<?xml version="1.0" encoding="UTF-8" standalone="no"?>
<svg
   xmlns:dc="http://purl.org/dc/elements/1.1/"
   xmlns:cc="http://creativecommons.org/ns#"
   xmlns:rdf="http://www.w3.org/1999/02/22-rdf-syntax-ns#"
   xmlns:svg="http://www.w3.org/2000/svg"
   xmlns="http://www.w3.org/2000/svg"
   xmlns:sodipodi="http://sodipodi.sourceforge.net/DTD/sodipodi-0.dtd"
   xmlns:inkscape="http://www.inkscape.org/namespaces/inkscape"
   version="1.1"
   id="svg2"
   xml:space="preserve"
   width="304.44"
   height="56.52"
   viewBox="0 0 304.44 56.52"
   sodipodi:docname="arvutiteaduse instituut_est_valge.eps"><metadata
     id="metadata8"><rdf:RDF><cc:Work
         rdf:about=""><dc:format>image/svg+xml</dc:format><dc:type
           rdf:resource="http://purl.org/dc/dcmitype/StillImage" /></cc:Work></rdf:RDF></metadata><defs
     id="defs6" /><sodipodi:namedview
     pagecolor="#ffffff"
     bordercolor="#666666"
     borderopacity="1"
     objecttolerance="10"
     gridtolerance="10"
     guidetolerance="10"
     inkscape:pageopacity="0"
     inkscape:pageshadow="2"
     inkscape:window-width="640"
     inkscape:window-height="480"
     id="namedview4" /><g
     id="g10"
     inkscape:groupmode="layer"
     inkscape:label="ink_ext_XXXXXX"
     transform="matrix(1.3333333,0,0,-1.3333333,0,56.52)"><g
       id="g12"
       transform="scale(0.1)"><path
         d="m 479.371,107.207 c 3.711,1.731 7.477,4.395 11.309,7.988 -0.121,1.789 -0.18,4.844 -0.18,9.153 l 0.18,16.863 c -9.809,-0.352 -18.543,-2.363 -26.2,-6.016 -7.66,-3.64 -11.488,-9.238 -11.488,-16.777 0,-4.422 1.317,-7.832 3.953,-10.223 2.625,-2.394 5.977,-3.593 10.047,-3.593 4.543,0 8.672,0.867 12.379,2.605 z m -36.512,-6.914 c -4.613,3.957 -6.91,9.094 -6.91,15.441 0,6.934 2.778,12.793 8.344,17.586 5.562,4.785 12.559,8.34 20.992,10.676 8.438,2.332 16.899,3.438 25.395,3.32 v 11.122 c 0,7.785 -1.137,13.847 -3.407,18.222 -2.277,4.367 -7.121,6.543 -14.539,6.543 -3.711,0 -7.242,-0.781 -10.589,-2.332 -3.348,-1.555 -5.801,-3.887 -7.36,-6.992 1.559,-1.68 2.336,-3.957 2.336,-6.828 0,-1.785 -0.66,-3.496 -1.973,-5.106 -1.32,-1.621 -3.234,-2.422 -5.742,-2.422 -2.515,0 -4.488,0.801 -5.922,2.422 -1.437,1.61 -2.156,3.731 -2.156,6.368 0,3.945 1.531,7.566 4.574,10.859 3.055,3.289 7.297,5.887 12.746,7.801 5.442,1.914 11.512,2.871 18.211,2.871 10.051,0 17.469,-2.664 22.254,-7.989 4.785,-5.32 7.117,-13.718 7,-25.203 l -0.179,-40.382 c 0,-3.829 -0.243,-7.899 -0.719,-12.207 l 12.738,0.722 v -7.5389 h -25.656 c -0.363,1.7969 -0.781,5.2069 -1.262,10.2269 -8.73,-8.7308 -18.125,-13.098 -28.172,-13.098 -8.73,0 -15.406,1.9727 -20.004,5.918"
         style="fill:#ffffff;fill-opacity:1;fill-rule:nonzero;stroke:none"
         id="path14" /><path
         d="m 529.492,102.629 c 3.469,0 5.953,0.867 7.449,2.605 1.493,1.731 2.391,3.946 2.696,6.641 0.293,2.688 0.441,6.906 0.441,12.648 v 40.918 c 0,5.028 0.242,8.914 0.719,11.668 l -12.738,-0.546 v 7.363 h 5.558 c 4.547,0 7.84,0.383 9.875,1.164 2.031,0.781 3.946,2 5.742,3.68 h 5.207 c 0.473,-4.668 0.774,-10.586 0.891,-17.762 2.988,4.902 7.273,9.265 12.832,13.094 5.563,3.828 11.332,5.742 17.32,5.742 3.59,0 6.579,-0.957 8.969,-2.871 2.395,-1.914 3.59,-4.727 3.59,-8.426 0,-1.926 -0.746,-3.84 -2.242,-5.754 -1.496,-1.914 -3.617,-2.871 -6.371,-2.871 -2.633,0 -4.785,0.996 -6.461,2.969 -1.672,1.972 -2.332,4.336 -1.973,7.089 -4.551,0.118 -9.125,-1.621 -13.73,-5.203 -4.606,-3.593 -8.52,-8.379 -11.75,-14.355 l 0.179,-44.152 c 0,-5.379 -0.246,-9.454 -0.718,-12.207 l 11.304,0.539 v -7.3559 h -36.789 v 5.3829"
         style="fill:#ffffff;fill-opacity:1;fill-rule:nonzero;stroke:none"
         id="path16" /><path
         d="m 619.844,155.215 c -4.785,11.008 -7.293,19.316 -7.531,24.941 l -7.715,-0.535 v 7.352 h 33.015 v -5.379 c -5.269,0 -7.894,-2.219 -7.894,-6.641 0,-3.234 1.254,-7.656 3.769,-13.281 l 13.813,-31.582 c 1.558,-3.711 3.351,-8.137 5.387,-13.281 h 0.179 c 0.356,1.191 0.836,2.507 1.438,3.945 l 2.687,7.715 14.356,39.304 c 1.199,3.469 2.988,7.598 5.386,12.383 l -11.484,-0.535 v 7.352 h 28.352 v -5.379 c -2.512,0 -4.664,-0.871 -6.461,-2.61 -1.793,-1.726 -3.438,-4.148 -4.934,-7.265 -1.496,-3.106 -3.5,-7.891 -6.016,-14.356 L 652.688,96.7109 h -7.18 l -25.664,58.5041"
         style="fill:#ffffff;fill-opacity:1;fill-rule:nonzero;stroke:none"
         id="path18" /><path
         d="m 720.32,103.164 c -4.726,5.859 -7.09,15.977 -7.09,30.332 v 31.945 c 0,5.028 0.239,8.914 0.715,11.668 l -12.375,-0.546 v 7.363 h 5.559 c 4.664,0 8.195,0.422 10.586,1.25 2.394,0.84 4.426,2.043 6.105,3.594 h 5.203 v -54.735 c 0,-10.527 1.461,-18.242 4.395,-23.144 2.93,-4.914 7.809,-7.364 14.625,-7.364 4.426,0 8.766,1.317 13.012,3.946 4.246,2.636 7.687,5.925 10.316,9.871 v 46.125 c 0,5.625 0.301,10.164 0.902,13.64 l -12.921,-0.546 v 7.363 h 5.562 c 4.66,0 8.191,0.422 10.586,1.25 2.391,0.84 4.422,2.043 6.102,3.594 h 5.207 l -0.18,-67.832 c 0,-6.942 -0.246,-12.567 -0.719,-16.875 l 12.918,0.722 v -7.5389 h -25.656 c -0.602,3.7109 -1.024,7.2969 -1.262,10.7739 -3.945,-3.957 -8.555,-7.219 -13.816,-9.7856 -5.266,-2.5703 -10.406,-3.8594 -15.434,-3.8594 -10.168,0 -17.613,2.9297 -22.34,8.789"
         style="fill:#ffffff;fill-opacity:1;fill-rule:nonzero;stroke:none"
         id="path20" /><path
         d="m 816.051,127.395 0.359,52.039 -13.816,-0.176 v 7.715 c 5.742,0.117 10.617,2.726 14.625,7.812 4.008,5.078 6.969,10.852 8.883,17.317 h 6.101 v -25.129 h 30.149 v -6.993 l -30.149,-0.359 c -0.121,-18.312 -0.211,-30.988 -0.269,-38.047 -0.063,-7.062 -0.09,-11.008 -0.09,-11.847 0,-8.497 1.015,-14.805 3.051,-18.934 2.031,-4.121 5.558,-6.191 10.585,-6.191 3.11,0 6.192,0.957 9.243,2.871 3.05,1.914 5.715,4.55 7.988,7.898 l 4.844,-3.945 c -4.668,-6.942 -9.274,-11.5237 -13.821,-13.7307 -4.543,-2.2148 -8.972,-3.3203 -13.281,-3.3203 -16.39,0 -24.523,11.008 -24.402,33.02"
         style="fill:#ffffff;fill-opacity:1;fill-rule:nonzero;stroke:none"
         id="path22" /><path
         d="m 886.363,209.68 c -1.918,2.09 -2.871,4.57 -2.871,7.441 0,2.875 0.988,5.391 2.957,7.543 1.977,2.152 4.223,3.227 6.731,3.227 2.754,0 5.054,-1.043 6.91,-3.137 1.855,-2.098 2.781,-4.641 2.781,-7.633 0,-2.871 -0.984,-5.351 -2.965,-7.441 -1.968,-2.102 -4.273,-3.145 -6.902,-3.145 -2.516,0 -4.731,1.043 -6.641,3.145 z M 875.234,102.629 c 3.469,0 5.954,0.867 7.45,2.605 1.492,1.731 2.39,3.946 2.695,6.641 0.293,2.688 0.441,6.906 0.441,12.648 v 40.918 c 0,3.465 0.243,7.352 0.719,11.668 l -12.738,-0.722 v 7.539 c 7.054,0 12.113,0.422 15.164,1.25 3.047,0.84 5.41,2.043 7.086,3.594 h 5.207 v -72.5 c 0,-5.379 -0.242,-9.454 -0.719,-12.207 l 11.305,0.539 v -7.3559 h -36.61 v 5.3829"
         style="fill:#ffffff;fill-opacity:1;fill-rule:nonzero;stroke:none"
         id="path24" /><path
         d="m 930.148,127.395 0.36,52.039 -13.817,-0.176 v 7.715 c 5.743,0.117 10.614,2.726 14.625,7.812 4.008,5.078 6.965,10.852 8.879,17.317 h 6.106 v -25.129 h 30.144 v -6.993 l -30.144,-0.359 c -0.121,-18.312 -0.211,-30.988 -0.27,-38.047 -0.062,-7.062 -0.093,-11.008 -0.093,-11.847 0,-8.497 1.015,-14.805 3.05,-18.934 2.035,-4.121 5.563,-6.191 10.586,-6.191 3.114,0 6.196,0.957 9.246,2.871 3.051,1.914 5.711,4.55 7.989,7.898 l 4.843,-3.945 c -4.668,-6.942 -9.273,-11.5237 -13.82,-13.7307 -4.547,-2.2148 -8.973,-3.3203 -13.281,-3.3203 -16.391,0 -24.524,11.008 -24.403,33.02"
         style="fill:#ffffff;fill-opacity:1;fill-rule:nonzero;stroke:none"
         id="path26" /><path
         d="m 1052.37,156.652 c 0,7.176 -1.61,13.34 -4.84,18.477 -3.23,5.144 -8.08,7.723 -14.54,7.723 -14.83,0 -23.62,-8.739 -26.38,-26.2 z m -43.34,-56.445 c -6.63,3.887 -11.87,9.453 -15.694,16.688 -3.832,7.238 -5.742,15.585 -5.742,25.039 0,8.371 1.91,16.242 5.742,23.593 3.824,7.364 9.184,13.254 16.064,17.676 6.88,4.426 14.68,6.641 23.41,6.641 6.82,0 12.98,-1.492 18.49,-4.481 5.5,-3 9.87,-7.453 13.1,-13.371 3.23,-5.926 4.84,-13.191 4.84,-21.804 l -63.16,-1.075 c -0.13,-14.355 2.24,-25.547 7.09,-33.566 4.84,-8.016 12.34,-12.02 22.51,-12.02 5.51,0 11.16,1.434 16.96,4.305 5.8,2.871 10.26,6.398 13.37,10.586 l 4.31,-3.582 c -4.55,-6.945 -10.44,-12.09 -17.68,-15.4297 -7.24,-3.3516 -14.32,-5.0313 -21.26,-5.0313 -8.26,0 -15.71,1.9453 -22.35,5.832"
         style="fill:#ffffff;fill-opacity:1;fill-rule:nonzero;stroke:none"
         id="path28" /><path
         d="m 1125.62,107.207 c 3.71,1.731 7.48,4.395 11.31,7.988 -0.12,1.789 -0.18,4.844 -0.18,9.153 l 0.18,16.863 c -9.81,-0.352 -18.55,-2.363 -26.2,-6.016 -7.66,-3.64 -11.49,-9.238 -11.49,-16.777 0,-4.422 1.32,-7.832 3.95,-10.223 2.63,-2.394 5.98,-3.593 10.05,-3.593 4.54,0 8.68,0.867 12.38,2.605 z m -36.51,-6.914 c -4.61,3.957 -6.91,9.094 -6.91,15.441 0,6.934 2.78,12.793 8.34,17.586 5.56,4.785 12.56,8.34 20.99,10.676 8.44,2.332 16.9,3.438 25.4,3.32 v 11.122 c 0,7.785 -1.14,13.847 -3.41,18.222 -2.27,4.367 -7.12,6.543 -14.53,6.543 -3.72,0 -7.25,-0.781 -10.6,-2.332 -3.34,-1.555 -5.8,-3.887 -7.35,-6.992 1.55,-1.68 2.33,-3.957 2.33,-6.828 0,-1.785 -0.66,-3.496 -1.97,-5.106 -1.32,-1.621 -3.23,-2.422 -5.74,-2.422 -2.52,0 -4.49,0.801 -5.93,2.422 -1.43,1.61 -2.15,3.731 -2.15,6.368 0,3.945 1.53,7.566 4.57,10.859 3.06,3.289 7.3,5.887 12.75,7.801 5.44,1.914 11.51,2.871 18.21,2.871 10.05,0 17.47,-2.664 22.25,-7.989 4.79,-5.32 7.12,-13.718 7,-25.203 l -0.18,-40.382 c 0,-3.829 -0.24,-7.899 -0.71,-12.207 l 12.74,0.722 v -7.5389 h -25.66 c -0.37,1.7969 -0.79,5.2069 -1.26,10.2269 -8.73,-8.7308 -18.13,-13.098 -28.18,-13.098 -8.73,0 -15.4,1.9727 -20,5.918"
         style="fill:#ffffff;fill-opacity:1;fill-rule:nonzero;stroke:none"
         id="path30" /><path
         d="m 1229.15,106.484 c 4.01,2.219 7.38,5.059 10.14,8.528 -0.12,1.914 -0.18,5.203 -0.18,9.871 l 0.18,51.68 c -5.63,4.191 -12.27,6.289 -19.92,6.289 -8.62,0 -15.56,-3.563 -20.82,-10.684 -5.26,-7.117 -7.89,-16.543 -7.89,-28.262 0,-12.207 2.33,-22.051 6.99,-29.519 4.67,-7.481 11.25,-11.223 19.74,-11.223 3.83,0 7.75,1.113 11.76,3.32 z m -38.13,-6.5426 c -5.87,3.7036 -10.48,8.9646 -13.82,15.7926 -3.36,6.817 -5.03,14.774 -5.03,23.856 0,9.582 1.98,18.195 5.92,25.851 3.95,7.657 9.43,13.641 16.42,17.95 7,4.304 14.92,6.453 23.78,6.453 3.71,0 7.51,-0.508 11.4,-1.524 3.88,-1.015 7.08,-2.187 9.6,-3.496 v 24.582 c 0,4.551 0.17,8.438 0.54,11.668 l -12.74,-0.715 v 7.532 c 7.05,0 12.11,0.422 15.16,1.261 3.05,0.836 5.41,2.032 7.09,3.586 h 5.2 V 116.27 c 0,-3.829 -0.24,-7.899 -0.72,-12.207 l 12.74,0.722 v -7.5389 h -25.66 c -0.6,3.2339 -1.02,6.3399 -1.26,9.3359 -3.47,-3.836 -7.68,-6.8242 -12.65,-8.9726 -4.96,-2.1602 -10.31,-3.2344 -16.06,-3.2344 -7.41,0 -14.05,1.8555 -19.91,5.5664"
         style="fill:#ffffff;fill-opacity:1;fill-rule:nonzero;stroke:none"
         id="path32" /><path
         d="m 1289.91,103.164 c -4.73,5.859 -7.09,15.977 -7.09,30.332 v 31.945 c 0,5.028 0.24,8.914 0.72,11.668 l -12.38,-0.546 v 7.363 h 5.56 c 4.66,0 8.19,0.422 10.59,1.25 2.39,0.84 4.42,2.043 6.1,3.594 h 5.2 v -54.735 c 0,-10.527 1.46,-18.242 4.4,-23.144 2.93,-4.914 7.81,-7.364 14.62,-7.364 4.43,0 8.77,1.317 13.02,3.946 4.24,2.636 7.68,5.925 10.31,9.871 v 46.125 c 0,5.625 0.3,10.164 0.9,13.64 l -12.92,-0.546 v 7.363 h 5.56 c 4.67,0 8.2,0.422 10.59,1.25 2.39,0.84 4.42,2.043 6.1,3.594 h 5.21 l -0.18,-67.832 c 0,-6.942 -0.25,-12.567 -0.72,-16.875 l 12.92,0.722 v -7.5389 h -25.66 c -0.6,3.7109 -1.02,7.2969 -1.26,10.7739 -3.95,-3.957 -8.55,-7.219 -13.82,-9.7856 -5.26,-2.5703 -10.4,-3.8594 -15.43,-3.8594 -10.17,0 -17.62,2.9297 -22.34,8.789"
         style="fill:#ffffff;fill-opacity:1;fill-rule:nonzero;stroke:none"
         id="path34" /><path
         d="m 1400.57,96.6211 c -4.67,1.4961 -8.67,3.3789 -12.02,5.6559 l 0.71,-6.2887 h -7.53 l -1.08,30.8667 h 5.56 c 0.24,-4.902 1.59,-9.265 4.04,-13.093 2.45,-3.84 5.68,-6.856 9.69,-9.063 4.01,-2.219 8.28,-3.32 12.83,-3.32 5.15,0 9.72,1.219 13.73,3.672 4.01,2.449 6.01,5.957 6.01,10.496 0,3.351 -0.99,6.164 -2.96,8.437 -1.97,2.278 -4.43,4.161 -7.36,5.657 -2.93,1.492 -7.03,3.25 -12.29,5.293 -6.34,2.39 -11.42,4.636 -15.25,6.726 -3.83,2.09 -7.12,4.942 -9.87,8.528 -2.76,3.593 -4.13,8.132 -4.13,13.64 0,3.945 0.96,7.891 2.87,11.848 1.92,3.945 5.14,7.293 9.69,10.047 4.55,2.746 10.59,4.121 18.13,4.121 3.71,0 7.5,-0.594 11.39,-1.797 3.89,-1.192 7.51,-3.164 10.86,-5.918 l -0.36,6.816 h 7.54 v -31.394 h -5.74 c -0.37,6.933 -2.49,12.937 -6.38,18.027 -3.88,5.086 -9.36,7.625 -16.42,7.625 -5.38,0 -9.66,-1.348 -12.82,-4.031 -3.18,-2.695 -4.76,-5.899 -4.76,-9.602 0,-3.476 1.04,-6.406 3.14,-8.797 2.09,-2.394 4.69,-4.425 7.81,-6.093 3.1,-1.68 7.29,-3.535 12.56,-5.567 6.22,-2.511 11.24,-4.855 15.07,-7.004 3.83,-2.148 7.09,-5 9.78,-8.523 2.69,-3.527 4.04,-7.805 4.04,-12.832 0,-5.742 -1.47,-10.586 -4.4,-14.531 -2.93,-3.946 -6.76,-6.9144 -11.48,-8.8871 -4.73,-1.9726 -9.78,-2.9609 -15.17,-2.9609 -5.62,0 -10.76,0.7539 -15.43,2.2461"
         style="fill:#ffffff;fill-opacity:1;fill-rule:nonzero;stroke:none"
         id="path36" /><path
         d="m 1523.71,156.652 c 0,7.176 -1.61,13.34 -4.84,18.477 -3.23,5.144 -8.08,7.723 -14.54,7.723 -14.84,0 -23.63,-8.739 -26.38,-26.2 z m -43.34,-56.445 c -6.63,3.887 -11.87,9.453 -15.7,16.688 -3.83,7.238 -5.74,15.585 -5.74,25.039 0,8.371 1.91,16.242 5.74,23.593 3.83,7.364 9.18,13.254 16.06,17.676 6.88,4.426 14.69,6.641 23.42,6.641 6.82,0 12.98,-1.492 18.48,-4.481 5.51,-3 9.88,-7.453 13.1,-13.371 3.24,-5.926 4.85,-13.191 4.85,-21.804 l -63.17,-1.075 c -0.12,-14.355 2.24,-25.547 7.09,-33.566 4.85,-8.016 12.35,-12.02 22.52,-12.02 5.51,0 11.15,1.434 16.96,4.305 5.8,2.871 10.26,6.398 13.37,10.586 l 4.31,-3.582 c -4.55,-6.945 -10.44,-12.09 -17.68,-15.4297 -7.24,-3.3516 -14.33,-5.0313 -21.26,-5.0313 -8.26,0 -15.71,1.9453 -22.35,5.832"
         style="fill:#ffffff;fill-opacity:1;fill-rule:nonzero;stroke:none"
         id="path38" /><path
         d="m 1611.28,209.68 c -1.92,2.09 -2.87,4.57 -2.87,7.441 0,2.875 0.99,5.391 2.96,7.543 1.97,2.152 4.22,3.227 6.73,3.227 2.75,0 5.05,-1.043 6.91,-3.137 1.85,-2.098 2.78,-4.641 2.78,-7.633 0,-2.871 -0.99,-5.351 -2.96,-7.441 -1.98,-2.102 -4.28,-3.145 -6.91,-3.145 -2.51,0 -4.73,1.043 -6.64,3.145 z m -11.13,-107.051 c 3.47,0 5.95,0.867 7.45,2.605 1.49,1.731 2.39,3.946 2.69,6.641 0.3,2.688 0.45,6.906 0.45,12.648 v 40.918 c 0,3.465 0.24,7.352 0.72,11.668 l -12.74,-0.722 v 7.539 c 7.05,0 12.11,0.422 15.16,1.25 3.05,0.84 5.41,2.043 7.09,3.594 h 5.2 v -72.5 c 0,-5.379 -0.24,-9.454 -0.71,-12.207 l 11.3,0.539 v -7.3559 h -36.61 v 5.3829"
         style="fill:#ffffff;fill-opacity:1;fill-rule:nonzero;stroke:none"
         id="path40" /><path
         d="m 1649,102.629 c 3.47,0 5.95,0.867 7.45,2.605 1.49,1.731 2.36,3.887 2.6,6.457 0.24,2.579 0.42,6.844 0.54,12.832 l 0.18,40.918 c 0,5.028 0.24,8.914 0.71,11.668 l -12.73,-0.722 v 7.539 c 7.05,0 11.89,0.383 14.53,1.164 2.63,0.781 4.85,2 6.64,3.68 h 5.2 c 0.24,-2.274 0.48,-5.918 0.72,-10.946 4.07,3.594 8.71,6.485 13.91,8.699 5.2,2.219 10.32,3.321 15.34,3.321 10.41,0 18.01,-3.262 22.79,-9.774 4.79,-6.523 7.18,-16.66 7.18,-30.422 V 116.27 c 0,-5.379 -0.24,-9.454 -0.72,-12.207 l 11.31,0.539 v -7.3559 h -36.61 v 5.3829 c 3.47,0 5.95,0.867 7.45,2.605 1.49,1.731 2.39,3.946 2.69,6.641 0.3,2.688 0.45,6.906 0.45,12.648 v 25.125 c -0.12,10.286 -1.8,18.04 -5.03,23.243 -3.23,5.207 -8.32,7.804 -15.25,7.804 -4.31,0 -8.59,-1.074 -12.83,-3.234 -4.25,-2.148 -7.75,-4.961 -10.5,-8.426 0.12,-1.32 0.18,-3.652 0.18,-7.004 l -0.18,-45.761 c 0,-5.379 -0.24,-9.454 -0.72,-12.207 l 11.31,0.539 V 97.2461 H 1649 v 5.3829"
         style="fill:#ffffff;fill-opacity:1;fill-rule:nonzero;stroke:none"
         id="path42" /><path
         d="m 1776.88,96.6211 c -4.67,1.4961 -8.68,3.3789 -12.03,5.6559 l 0.72,-6.2887 h -7.54 l -1.08,30.8667 h 5.57 c 0.23,-4.902 1.58,-9.265 4.03,-13.093 2.45,-3.84 5.69,-6.856 9.7,-9.063 4,-2.219 8.28,-3.32 12.83,-3.32 5.14,0 9.72,1.219 13.72,3.672 4.01,2.449 6.01,5.957 6.01,10.496 0,3.351 -0.98,6.164 -2.95,8.437 -1.98,2.278 -4.43,4.161 -7.36,5.657 -2.94,1.492 -7.03,3.25 -12.29,5.293 -6.35,2.39 -11.43,4.636 -15.26,6.726 -3.83,2.09 -7.12,4.942 -9.87,8.528 -2.75,3.593 -4.13,8.132 -4.13,13.64 0,3.945 0.96,7.891 2.88,11.848 1.91,3.945 5.14,7.293 9.69,10.047 4.54,2.746 10.58,4.121 18.12,4.121 3.71,0 7.51,-0.594 11.39,-1.797 3.89,-1.192 7.51,-3.164 10.86,-5.918 l -0.36,6.816 h 7.54 v -31.394 h -5.74 c -0.36,6.933 -2.49,12.937 -6.37,18.027 -3.89,5.086 -9.36,7.625 -16.42,7.625 -5.38,0 -9.66,-1.348 -12.83,-4.031 -3.17,-2.695 -4.76,-5.899 -4.76,-9.602 0,-3.476 1.05,-6.406 3.14,-8.797 2.09,-2.394 4.7,-4.425 7.81,-6.093 3.11,-1.68 7.3,-3.535 12.56,-5.567 6.22,-2.511 11.24,-4.855 15.07,-7.004 3.83,-2.148 7.09,-5 9.78,-8.523 2.7,-3.527 4.04,-7.805 4.04,-12.832 0,-5.742 -1.46,-10.586 -4.39,-14.531 -2.94,-3.946 -6.77,-6.9144 -11.49,-8.8871 -4.72,-1.9726 -9.78,-2.9609 -15.16,-2.9609 -5.63,0 -10.77,0.7539 -15.43,2.2461"
         style="fill:#ffffff;fill-opacity:1;fill-rule:nonzero;stroke:none"
         id="path44" /><path
         d="m 1844.54,127.395 0.36,52.039 -13.81,-0.176 v 7.715 c 5.74,0.117 10.61,2.726 14.62,7.812 4.01,5.078 6.97,10.852 8.88,17.317 h 6.1 v -25.129 h 30.15 v -6.993 l -30.15,-0.359 c -0.12,-18.312 -0.21,-30.988 -0.26,-38.047 -0.07,-7.062 -0.1,-11.008 -0.1,-11.847 0,-8.497 1.02,-14.805 3.05,-18.934 2.04,-4.121 5.57,-6.191 10.59,-6.191 3.11,0 6.19,0.957 9.24,2.871 3.06,1.914 5.72,4.55 7.99,7.898 l 4.85,-3.945 c -4.67,-6.942 -9.28,-11.5237 -13.82,-13.7307 -4.55,-2.2148 -8.98,-3.3203 -13.28,-3.3203 -16.4,0 -24.53,11.008 -24.41,33.02"
         style="fill:#ffffff;fill-opacity:1;fill-rule:nonzero;stroke:none"
         id="path46" /><path
         d="m 1914.85,209.68 c -1.91,2.09 -2.87,4.57 -2.87,7.441 0,2.875 0.99,5.391 2.96,7.543 1.98,2.152 4.22,3.227 6.73,3.227 2.75,0 5.05,-1.043 6.91,-3.137 1.86,-2.098 2.78,-4.641 2.78,-7.633 0,-2.871 -0.98,-5.351 -2.96,-7.441 -1.97,-2.102 -4.28,-3.145 -6.9,-3.145 -2.52,0 -4.74,1.043 -6.65,3.145 z m -11.12,-107.051 c 3.46,0 5.95,0.867 7.44,2.605 1.5,1.731 2.4,3.946 2.7,6.641 0.29,2.688 0.44,6.906 0.44,12.648 v 40.918 c 0,3.465 0.24,7.352 0.72,11.668 l -12.74,-0.722 v 7.539 c 7.06,0 12.12,0.422 15.17,1.25 3.04,0.84 5.41,2.043 7.08,3.594 h 5.21 v -72.5 c 0,-5.379 -0.24,-9.454 -0.72,-12.207 l 11.3,0.539 v -7.3559 h -36.6 v 5.3829"
         style="fill:#ffffff;fill-opacity:1;fill-rule:nonzero;stroke:none"
         id="path48" /><path
         d="m 1958.64,127.395 0.36,52.039 -13.82,-0.176 v 7.715 c 5.74,0.117 10.62,2.726 14.63,7.812 4,5.078 6.96,10.852 8.88,17.317 h 6.1 v -25.129 h 30.15 v -6.993 l -30.15,-0.359 c -0.12,-18.312 -0.21,-30.988 -0.27,-38.047 -0.06,-7.062 -0.09,-11.008 -0.09,-11.847 0,-8.497 1.02,-14.805 3.05,-18.934 2.03,-4.121 5.56,-6.191 10.59,-6.191 3.11,0 6.19,0.957 9.24,2.871 3.05,1.914 5.71,4.55 7.99,7.898 l 4.84,-3.945 c -4.67,-6.942 -9.27,-11.5237 -13.82,-13.7307 -4.54,-2.2148 -8.97,-3.3203 -13.28,-3.3203 -16.39,0 -24.52,11.008 -24.4,33.02"
         style="fill:#ffffff;fill-opacity:1;fill-rule:nonzero;stroke:none"
         id="path50" /><path
         d="m 2034.28,103.164 c -4.73,5.859 -7.09,15.977 -7.09,30.332 v 31.945 c 0,5.028 0.24,8.914 0.72,11.668 l -12.38,-0.546 v 7.363 h 5.56 c 4.66,0 8.19,0.422 10.59,1.25 2.39,0.84 4.42,2.043 6.1,3.594 h 5.2 v -54.735 c 0,-10.527 1.46,-18.242 4.4,-23.144 2.93,-4.914 7.81,-7.364 14.62,-7.364 4.43,0 8.77,1.317 13.02,3.946 4.24,2.636 7.68,5.925 10.31,9.871 v 46.125 c 0,5.625 0.3,10.164 0.9,13.64 l -12.92,-0.546 v 7.363 h 5.56 c 4.67,0 8.2,0.422 10.59,1.25 2.39,0.84 4.42,2.043 6.1,3.594 h 5.21 l -0.18,-67.832 c 0,-6.942 -0.25,-12.567 -0.72,-16.875 l 12.92,0.722 v -7.5389 h -25.66 c -0.6,3.7109 -1.02,7.2969 -1.26,10.7739 -3.95,-3.957 -8.55,-7.219 -13.82,-9.7856 -5.26,-2.5703 -10.4,-3.8594 -15.43,-3.8594 -10.17,0 -17.62,2.9297 -22.34,8.789"
         style="fill:#ffffff;fill-opacity:1;fill-rule:nonzero;stroke:none"
         id="path52" /><path
         d="m 2136.04,103.164 c -4.73,5.859 -7.09,15.977 -7.09,30.332 v 31.945 c 0,5.028 0.24,8.914 0.72,11.668 l -12.38,-0.546 v 7.363 h 5.56 c 4.67,0 8.2,0.422 10.59,1.25 2.39,0.84 4.42,2.043 6.1,3.594 h 5.21 v -54.735 c 0,-10.527 1.46,-18.242 4.39,-23.144 2.93,-4.914 7.81,-7.364 14.63,-7.364 4.42,0 8.76,1.317 13.01,3.946 4.24,2.636 7.68,5.925 10.32,9.871 v 46.125 c 0,5.625 0.29,10.164 0.89,13.64 l -12.92,-0.546 v 7.363 h 5.57 c 4.66,0 8.19,0.422 10.58,1.25 2.39,0.84 4.43,2.043 6.11,3.594 h 5.2 l -0.18,-67.832 c 0,-6.942 -0.24,-12.567 -0.72,-16.875 l 12.92,0.722 v -7.5389 h -25.66 c -0.6,3.7109 -1.02,7.2969 -1.26,10.7739 -3.94,-3.957 -8.55,-7.219 -13.82,-9.7856 -5.26,-2.5703 -10.4,-3.8594 -15.43,-3.8594 -10.17,0 -17.61,2.9297 -22.34,8.789"
         style="fill:#ffffff;fill-opacity:1;fill-rule:nonzero;stroke:none"
         id="path54" /><path
         d="m 2231.77,127.395 0.36,52.039 -13.81,-0.176 v 7.715 c 5.74,0.117 10.61,2.726 14.62,7.812 4.01,5.078 6.97,10.852 8.88,17.317 h 6.11 v -25.129 h 30.14 v -6.993 l -30.14,-0.359 c -0.13,-18.312 -0.21,-30.988 -0.27,-38.047 -0.07,-7.062 -0.1,-11.008 -0.1,-11.847 0,-8.497 1.02,-14.805 3.06,-18.934 2.03,-4.121 5.56,-6.191 10.58,-6.191 3.11,0 6.19,0.957 9.25,2.871 3.05,1.914 5.71,4.55 7.98,7.898 l 4.85,-3.945 c -4.67,-6.942 -9.28,-11.5237 -13.82,-13.7307 -4.55,-2.2148 -8.98,-3.3203 -13.28,-3.3203 -16.39,0 -24.53,11.008 -24.41,33.02"
         style="fill:#ffffff;fill-opacity:1;fill-rule:nonzero;stroke:none"
         id="path56" /><path
         d="m 517.938,391.141 c -0.325,0.976 -1.188,2.117 -3.372,2.117 -0.679,0 -1.257,-0.391 -1.746,-1.16 -0.336,-0.508 -0.73,-1.094 -1.199,-1.75 -0.469,-0.602 -1,-1.188 -1.637,-1.723 -0.55,-0.492 -1.254,-0.793 -2.07,-0.93 -1.203,-0.164 -2.437,-0.257 -3.68,-0.3 -5.332,-0.168 -10.355,-0.075 -15.179,-0.188 -8.2,-0.184 -17.278,-0.164 -26.575,0.066 -5.05,0.122 -10.152,0.313 -15.128,0.559 -1.094,0.074 -1.938,0.301 -2.524,0.731 -0.633,0.433 -1.14,0.902 -1.515,1.371 -0.399,0.531 -0.739,0.996 -1.016,1.39 -0.543,0.793 -1.223,0.957 -1.676,0.957 -1.262,0 -2.258,-0.351 -2.988,-1.031 -0.653,-0.598 -1.16,-1.391 -1.485,-2.328 -0.312,-0.883 -0.523,-1.879 -0.582,-2.953 l -0.05,-0.391 c -0.075,-0.89 -0.137,-1.73 -0.211,-2.519 -0.414,-4.215 -0.934,-7.52 -1.578,-9.805 -0.68,-2.426 -1.032,-4.332 -1.032,-5.816 0,-1.176 0.305,-1.958 0.914,-2.422 0.551,-0.45 1.297,-0.68 2.329,-0.68 0.644,0 1.281,0.574 2.187,2.102 0.73,1.21 1.465,2.527 2.195,3.921 0.735,1.457 1.434,2.832 2.098,4.161 0.781,1.527 1.23,2.16 1.437,2.371 1.559,1.488 3.192,2.484 4.813,2.972 1.711,0.524 3.477,0.774 5.293,0.774 h 7.648 c 1.922,0 3.743,-0.137 5.45,-0.414 1.964,-0.325 2.179,-0.868 2.207,-0.957 0.089,-0.45 0.14,-1.446 0.164,-2.18 0.039,-1.078 0.058,-1.824 0.058,-2.246 v -59.735 c 0,-2.257 -0.113,-4.171 -0.34,-5.679 -0.242,-1.426 -0.699,-2.633 -1.355,-3.567 -0.652,-0.918 -1.648,-1.632 -2.93,-2.14 -1.394,-0.563 -3.254,-0.957 -5.668,-1.207 -0.156,-0.055 -0.531,-0.094 -1.418,-0.094 -0.902,0 -1.785,-0.164 -2.629,-0.504 -0.726,-0.285 -1.582,-0.976 -1.582,-2.625 0,-1.82 1.211,-2.164 1.719,-2.207 0.727,-0.094 1.445,-0.148 2.117,-0.148 3.008,0 5.993,0.093 8.907,0.312 6.004,0.442 12.48,0.399 18.511,0 3.235,-0.219 6.543,-0.312 9.868,-0.312 1.074,0 1.933,0.054 2.593,0.148 0.996,0.137 1.504,1.094 1.504,2.836 0,0.824 -0.359,2.187 -2.836,2.465 l -4.886,0.562 c -1.708,0.192 -3.352,0.68 -4.946,1.426 -1.422,0.68 -2.273,1.996 -2.648,4.067 -0.239,1.281 -0.399,2.57 -0.414,3.847 -0.055,1.309 -0.075,2.613 -0.075,3.91 0.165,7.25 0.145,14.563 -0.074,21.762 -0.176,7.141 -0.211,14.453 -0.039,21.691 l 0.227,15.071 c 0,1.84 0.117,3.222 0.308,4.097 0.211,1.047 0.504,1.446 0.649,1.61 0.187,0.187 0.355,0.258 0.695,0.285 1.094,-0.098 2.258,-0.098 4.172,-0.027 2.289,0.117 5.355,0.097 8.496,-0.121 1.895,-0.118 3.57,-0.321 5.18,-0.606 1.547,-0.269 2.933,-0.691 4.043,-1.277 1,-0.528 1.699,-1.207 2.051,-2 0.441,-1.141 0.632,-2.375 0.562,-3.637 -0.074,-1.391 -0.187,-2.684 -0.305,-3.855 -0.14,-1.262 -0.109,-2.344 0.067,-3.204 0.144,-0.644 0.652,-1.757 2.472,-1.757 1.094,0 2.579,0.55 3.371,3.25 0.543,1.812 0.985,4.027 1.27,6.543 0.27,2.464 0.531,5.035 0.734,7.621 0.211,2.511 0.582,4.539 1.125,6.027 0.395,1.07 0.368,2.234 -0.046,3.473"
         style="fill:#ffffff;fill-opacity:1;fill-rule:nonzero;stroke:none"
         id="path58" /><path
         d="m 571.152,344.27 c -0.129,-0.055 -0.277,-0.094 -0.371,-0.137 -5.051,0 -8.988,-0.031 -11.781,-0.07 -2.844,-0.051 -4.93,-0.051 -6.34,-0.051 h -2.211 c 1.465,3.468 2.684,6.386 3.629,8.691 1.074,2.559 2.027,4.867 2.871,6.938 0.813,2.05 1.621,4.023 2.446,5.961 0.675,1.539 1.421,3.304 2.304,5.312 0.168,-0.469 0.399,-1.07 0.68,-1.859 0.699,-1.977 1.527,-4.379 2.539,-7.219 0.977,-2.852 2.047,-5.898 3.215,-9.164 1.047,-2.953 2.043,-5.75 3.019,-8.402 m 39.993,-41.715 c -1.032,0.312 -2.219,0.59 -3.536,0.82 -1.289,0.238 -2.593,0.605 -3.89,1.094 -1.172,0.426 -2.082,1.301 -2.735,2.707 -4.164,8.66 -8.195,17.488 -11.972,26.25 -3.703,8.605 -7.332,17.57 -10.848,26.664 -1.894,4.676 -3.816,9.453 -5.789,14.32 -1.988,4.844 -3.922,9.621 -5.805,14.289 -0.187,0.469 -0.468,0.957 -0.84,1.477 -0.468,0.656 -1.148,0.976 -1.96,0.976 -0.922,0 -1.555,-0.238 -1.903,-0.75 -0.258,-0.351 -0.465,-0.785 -0.656,-1.32 -3.047,-7.48 -6.082,-14.934 -9.129,-22.336 -3.059,-7.41 -6.094,-14.863 -9.133,-22.351 l -5.375,-13.149 c -1.726,-4.226 -3.496,-8.66 -5.246,-13.133 -0.258,-0.574 -0.598,-1.484 -1.039,-2.672 -0.465,-1.199 -0.957,-2.402 -1.492,-3.609 -0.531,-1.238 -1.051,-2.402 -1.539,-3.516 -0.606,-1.382 -0.891,-1.871 -1.055,-2.058 -0.621,-0.996 -1.39,-1.645 -2.223,-1.926 -1.007,-0.312 -1.957,-0.543 -2.894,-0.699 -1.023,-0.195 -1.871,-0.442 -2.606,-0.82 -0.625,-0.321 -1.398,-1.071 -1.398,-2.762 0,-0.656 0.18,-1.27 0.563,-1.805 0.437,-0.625 1.093,-0.953 1.902,-0.953 1.914,0 3.664,0.125 5.246,0.328 3.59,0.496 8.422,0.379 12.969,-0.109 2.742,-0.305 5.476,-0.449 8.097,-0.449 0.84,0 1.614,0.3 2.239,0.863 0.656,0.605 0.988,1.371 0.988,2.234 0,1.582 -0.914,2.653 -2.57,3.031 -1.321,0.278 -2.797,0.504 -4.473,0.696 -1.539,0.133 -2.93,0.465 -4.188,0.933 -0.625,0.231 -1.492,0.762 -1.492,2.633 0,0.137 0.075,0.762 0.774,3.258 0.558,1.879 1.277,4.262 2.164,7.004 0.902,2.801 1.996,5.918 3.265,9.269 1.188,3.246 2.536,6.571 3.95,9.93 0.957,0.176 2.125,0.324 3.515,0.399 3.266,0.156 6.707,0.136 9.809,0.062 1.633,-0.043 2.93,-0.062 3.906,-0.062 h 2.363 c 1.344,0 2.696,-0.075 3.996,-0.188 1.122,-0.102 1.954,-0.426 2.524,-0.957 0,0 0.137,-0.184 0.488,-1 0.293,-0.676 0.649,-1.422 1.039,-2.211 1.242,-2.965 2.457,-5.848 3.59,-8.644 1.149,-2.797 2.188,-5.336 3.082,-7.637 l 2.348,-5.985 c 0.644,-1.656 1.094,-2.898 1.371,-3.82 0.062,-0.219 0.137,-0.449 0.211,-0.68 0.074,-0.203 0.094,-0.421 0.094,-0.609 0,-1.344 -0.625,-1.695 -1.188,-1.852 -1.101,-0.312 -2.348,-0.519 -3.73,-0.585 -1.489,-0.09 -2.825,-0.215 -3.938,-0.372 -2.062,-0.3 -2.398,-1.609 -2.398,-2.363 0,-0.957 0.41,-1.785 1.144,-2.41 0.696,-0.637 1.539,-0.937 2.477,-0.937 2.91,0 5.793,0.117 8.629,0.375 4.691,0.414 9.625,0.605 14.343,0 2.008,-0.231 4.036,-0.375 6.043,-0.375 h 1.34 c 0.887,0 1.824,0.164 2.781,0.468 1.575,0.532 1.805,1.657 1.805,2.254 0,1.399 -0.719,2.403 -2.015,2.77"
         style="fill:#ffffff;fill-opacity:1;fill-rule:nonzero;stroke:none"
         id="path60" /><path
         d="m 675.758,354.871 c -1.149,-2.375 -2.703,-4.289 -4.684,-5.641 -1.996,-1.371 -4.418,-2.328 -7.164,-2.835 -2.847,-0.508 -5.926,-0.801 -9.137,-0.801 -1.398,0 -2.429,0.125 -3.031,0.332 -0.625,0.238 -0.808,0.558 -0.883,0.789 -0.187,0.488 -0.261,1.125 -0.207,1.859 0.051,0.895 0.071,1.934 0.071,3.196 0,3.285 0.019,6.988 0.113,11.089 0.074,4.114 0.117,7.825 0.117,11.125 v 4.192 c 0,1.777 0.395,3.129 1.188,4.012 0.515,0.582 1.816,1.281 5.101,1.281 2.934,0 5.68,-0.414 8.156,-1.262 2.434,-0.82 4.563,-2.043 6.332,-3.656 1.774,-1.602 3.184,-3.633 4.196,-5.981 1.019,-2.375 1.527,-5.172 1.527,-8.34 0,-3.82 -0.551,-6.957 -1.695,-9.359 m 35.89,-58.219 c -0.886,0.184 -1.769,0.489 -2.781,0.922 -3.304,0.699 -6.258,2.219 -8.773,4.453 -2.594,2.286 -4.942,5 -7.051,8.059 -2.105,3.098 -4.039,6.41 -5.73,9.852 -1.75,3.492 -3.352,6.796 -4.891,9.941 -1.547,3.168 -3.102,5.918 -4.617,8.176 -1.184,1.746 -2.422,3.074 -3.723,3.91 1.75,0.883 3.492,1.859 5.238,2.984 2.219,1.426 4.235,3.067 6.059,4.942 1.82,1.859 3.328,3.976 4.449,6.312 1.156,2.348 1.746,4.926 1.746,7.652 0,4.961 -0.957,9.129 -2.828,12.368 -1.859,3.211 -4.215,5.8 -7.012,7.715 -2.785,1.882 -5.808,3.21 -9.023,3.929 -3.152,0.699 -6.184,1.074 -8.926,1.074 -3.191,0 -6.387,-0.074 -9.472,-0.191 -3.102,-0.109 -6.27,-0.184 -9.415,-0.184 h -10.73 c -0.887,0 -1.801,0.047 -2.727,0.114 -1.953,0.164 -3.793,0.238 -5.66,-0.176 -0.726,-0.188 -1.886,-0.781 -1.886,-2.801 0,-1.047 0.539,-1.82 1.464,-2.172 0.727,-0.269 1.664,-0.457 2.758,-0.551 1.016,-0.074 2.11,-0.167 3.27,-0.238 1.086,-0.086 2.105,-0.304 3.082,-0.644 0.883,-0.313 1.582,-0.848 2.164,-1.657 0.562,-0.765 0.84,-1.89 0.84,-3.378 0,-6.895 -0.071,-13.907 -0.188,-20.84 -0.109,-7.012 -0.183,-14.055 -0.183,-20.875 v -25.43 c 0,-1.578 -0.286,-2.781 -0.868,-3.648 -0.578,-0.918 -1.332,-1.59 -2.254,-2.122 -0.957,-0.507 -1.976,-0.886 -3.054,-1.07 -1.133,-0.211 -2.231,-0.394 -3.238,-0.562 -1.071,-0.157 -1.954,-0.375 -2.653,-0.582 -0.957,-0.301 -1.508,-1 -1.508,-1.883 0,-1.5 0.25,-2.313 0.832,-2.684 0.457,-0.301 1.239,-0.418 2.516,-0.418 2.578,0 5.172,0.117 7.668,0.375 5.301,0.508 10.785,0.469 16.199,-0.07 2.953,-0.281 5.985,-0.445 8.965,-0.445 1.731,0 3.008,0.14 3.945,0.425 0.789,0.227 1.746,0.922 1.746,2.817 0,0.976 -0.519,1.691 -1.402,1.957 -0.625,0.187 -1.324,0.277 -2.07,0.277 -0.488,0 -0.645,0.043 -0.645,0.043 l -0.203,0.051 c -1.765,0.344 -3.23,0.605 -4.488,0.773 -1.219,0.133 -2.258,0.434 -3.141,0.903 -0.793,0.414 -1.426,1.074 -1.894,2.008 -0.489,0.945 -0.719,2.464 -0.719,4.46 v 25.43 c 0,2.414 0.281,3.297 0.469,3.586 0.074,0.145 0.488,0.613 2.351,0.613 2.785,0 5.149,-0.699 7.035,-2.07 1.93,-1.445 3.657,-3.266 5.125,-5.449 1.485,-2.192 2.836,-4.711 4.004,-7.457 1.184,-2.77 2.496,-5.539 3.868,-8.133 2.515,-6.488 6.218,-12.051 10.992,-16.578 4.812,-4.512 10.879,-7.422 17.992,-8.715 0.59,-0.059 1.308,-0.156 2.152,-0.227 0.832,-0.097 1.676,-0.136 2.539,-0.136 2.141,0 3.668,0.187 4.7,0.543 l 0.281,0.175 c 0.886,0.883 1.32,1.676 1.32,2.383 0,0.645 -0.25,1.789 -2.016,2.164"
         style="fill:#ffffff;fill-opacity:1;fill-rule:nonzero;stroke:none"
         id="path62" /><path
         d="m 796.422,393.258 c -0.676,0 -1.277,-0.395 -1.746,-1.16 -0.332,-0.516 -0.731,-1.094 -1.184,-1.75 -0.469,-0.606 -1.031,-1.188 -1.637,-1.727 -0.55,-0.48 -1.257,-0.793 -2.07,-0.926 -1.215,-0.164 -2.461,-0.261 -3.68,-0.3 -5.332,-0.168 -10.367,-0.075 -15.179,-0.188 -8.199,-0.187 -17.313,-0.164 -26.574,0.074 -5.055,0.114 -10.153,0.297 -15.149,0.547 -1.086,0.074 -1.922,0.313 -2.512,0.719 -0.644,0.457 -1.132,0.918 -1.507,1.387 -0.399,0.527 -0.75,0.996 -1.032,1.39 -0.527,0.793 -1.207,0.957 -1.675,0.957 -1.247,0 -2.254,-0.351 -2.973,-1.031 -0.656,-0.598 -1.164,-1.391 -1.496,-2.316 -0.301,-0.895 -0.512,-1.891 -0.606,-2.965 l -0.05,-0.739 c -0.059,-0.746 -0.106,-1.464 -0.176,-2.171 -0.426,-4.215 -0.957,-7.52 -1.594,-9.801 -0.664,-2.403 -1.016,-4.356 -1.016,-5.82 0,-1.168 0.297,-1.969 0.903,-2.426 0.562,-0.434 1.308,-0.676 2.332,-0.676 0.652,0 1.277,0.582 2.191,2.09 0.719,1.219 1.457,2.539 2.188,3.941 0.746,1.446 1.445,2.817 2.09,4.141 0.781,1.539 1.234,2.172 1.453,2.383 1.558,1.484 3.183,2.496 4.816,2.972 1.695,0.52 3.477,0.774 5.293,0.774 h 7.621 c 1.949,0 3.754,-0.137 5.465,-0.422 1.973,-0.32 2.191,-0.86 2.199,-0.957 0.094,-0.434 0.149,-1.434 0.168,-2.16 0.043,-1.09 0.074,-1.844 0.074,-2.258 v -59.735 c 0,-2.238 -0.113,-4.171 -0.371,-5.691 -0.211,-1.414 -0.679,-2.633 -1.351,-3.559 -0.66,-0.902 -1.629,-1.628 -2.938,-2.136 -1.371,-0.563 -3.246,-0.957 -5.633,-1.207 -0.168,-0.055 -0.562,-0.11 -1.418,-0.11 -0.918,0 -1.8,-0.156 -2.64,-0.488 -0.719,-0.301 -1.582,-0.976 -1.582,-2.621 0,-1.816 1.195,-2.164 1.726,-2.211 0.719,-0.094 1.45,-0.148 2.121,-0.148 3.008,0 5.981,0.093 8.891,0.304 6.012,0.446 12.492,0.395 18.516,0 3.234,-0.211 6.55,-0.304 9.879,-0.304 1.07,0 1.933,0.054 2.578,0.148 1,0.133 1.5,1.09 1.5,2.836 0,0.812 -0.352,2.195 -2.817,2.477 l -4.89,0.55 c -1.707,0.188 -3.383,0.68 -4.942,1.426 -1.425,0.664 -2.273,1.996 -2.66,4.078 -0.25,1.278 -0.394,2.559 -0.422,3.836 -0.039,1.301 -0.054,2.61 -0.054,3.91 0.156,7.25 0.128,14.559 -0.075,21.746 -0.191,7.25 -0.211,14.559 -0.054,21.719 l 0.238,15.067 c 0,1.832 0.117,3.203 0.305,4.097 0.211,1.039 0.507,1.446 0.652,1.602 0.187,0.187 0.324,0.211 0.699,0.277 1.071,-0.09 2.254,-0.09 4.16,-0.027 2.286,0.125 5.332,0.101 8.504,-0.102 1.864,-0.117 3.59,-0.332 5.172,-0.617 1.559,-0.277 2.93,-0.699 4.024,-1.277 1.031,-0.528 1.722,-1.207 2.082,-2 0.433,-1.141 0.625,-2.383 0.55,-3.625 -0.082,-1.407 -0.191,-2.688 -0.293,-3.867 -0.144,-1.262 -0.121,-2.336 0.063,-3.196 0.148,-0.66 0.656,-1.765 2.469,-1.765 1.101,0 2.586,0.558 3.379,3.25 0.539,1.82 0.957,4.039 1.257,6.543 0.278,2.476 0.528,5.035 0.739,7.613 0.195,2.527 0.582,4.547 1.121,6.031 0.394,1.082 0.379,2.234 -0.051,3.477 -0.324,0.976 -1.176,2.117 -3.371,2.117"
         style="fill:#ffffff;fill-opacity:1;fill-rule:nonzero;stroke:none"
         id="path64" /><path
         d="m 907.73,388.523 -0.257,0.051 c -2.188,0 -4.453,-0.07 -6.7,-0.187 -4.246,-0.242 -8.808,-0.282 -13.05,0.043 -2.231,0.183 -4.422,0.258 -6.543,0.258 -0.7,0 -1.395,-0.094 -2.047,-0.29 -0.543,-0.125 -1.426,-0.625 -1.426,-2.207 0,-1.765 0.859,-2.628 1.559,-3.046 0.843,-0.489 1.89,-0.864 3.078,-1.082 1.125,-0.196 2.258,-0.395 3.433,-0.547 0.996,-0.137 1.809,-0.512 2.434,-1.075 0.578,-0.519 1.027,-1.613 1.234,-3.16 0.254,-1.726 0.375,-3.715 0.375,-5.898 0,-2.215 -0.054,-4.492 -0.121,-6.875 -0.09,-2.391 -0.136,-4.531 -0.136,-6.445 v -26.407 c 0,-2.402 -0.231,-4.754 -0.719,-7.039 -0.719,-4.09 -1.746,-7.586 -3.028,-10.363 -1.257,-2.742 -2.933,-5 -4.941,-6.727 -2.008,-1.726 -4.473,-2.984 -7.328,-3.73 -2.938,-0.766 -6.5,-1.137 -10.629,-1.137 -3.445,0 -6.617,0.344 -9.426,1.07 -2.754,0.7 -5.144,1.981 -7.152,3.778 -2.008,1.808 -3.652,4.324 -4.867,7.5 -1.262,3.203 -2.051,7.351 -2.375,12.351 -0.141,2.496 -0.258,5.055 -0.297,7.621 -0.024,2.559 -0.055,5.098 -0.055,7.649 v 22.723 c 0,1.218 0.031,2.535 0.055,3.914 0.039,1.418 0.133,2.773 0.258,4.031 0.101,1.301 0.25,2.484 0.414,3.535 0.156,1 0.343,1.77 0.554,2.281 0.489,1.121 1.278,1.817 2.418,2.164 1.336,0.391 2.707,0.727 4.059,0.985 1.426,0.23 2.726,0.531 3.84,0.883 1.445,0.418 2.246,1.464 2.246,2.937 0,1.277 -0.801,2.117 -2.137,2.348 -1.066,0.183 -1.898,0.258 -2.594,0.258 -2.875,0 -5.734,-0.114 -8.531,-0.372 -5.238,-0.468 -10.754,-0.523 -16.137,0 -2.632,0.258 -5.285,0.372 -7.918,0.372 -2.05,0 -3.246,-1.122 -3.246,-3.102 0,-0.82 0.356,-1.512 1.012,-1.973 0.527,-0.375 1.16,-0.652 1.914,-0.8 0.645,-0.137 1.277,-0.227 1.953,-0.247 0.625,-0.046 1.141,-0.074 1.582,-0.074 h 1.352 c 1.445,0 2.484,-0.375 3.215,-1.113 0.789,-0.844 1.332,-1.801 1.672,-2.984 0.351,-1.188 0.562,-2.52 0.582,-3.946 0.043,-1.465 0.074,-2.781 0.074,-3.929 0,-7.008 -0.094,-13.965 -0.262,-20.704 -0.164,-6.828 -0.226,-13.804 -0.226,-20.773 v -4.563 c 0,-0.75 0.019,-1.511 0.039,-2.257 0.05,-0.774 0.125,-1.52 0.187,-2.266 0.512,-4.859 1.75,-8.953 3.715,-12.148 1.922,-3.211 4.461,-5.825 7.519,-7.778 2.997,-1.937 6.489,-3.312 10.36,-4.121 3.812,-0.801 7.91,-1.195 12.133,-1.195 3.515,0 7.218,0.281 10.972,0.808 3.746,0.543 7.399,1.5 10.914,2.825 4.051,1.609 7.227,3.937 9.461,6.922 2.184,2.933 3.84,6.285 4.938,9.914 1.074,3.66 1.719,7.507 1.93,11.492 0.214,3.949 0.296,7.797 0.296,11.379 0,2.234 0,4.48 -0.039,6.683 -0.043,2.215 -0.074,4.418 -0.074,6.664 0,2.465 -0.019,5.348 -0.043,8.645 -0.051,3.273 -0.051,6.449 0,9.476 0.024,3.028 0.156,5.68 0.418,7.891 0.332,2.934 0.832,3.309 0.863,3.328 0.188,0.113 0.696,0.324 2.121,0.508 1.227,0.168 2.516,0.406 3.84,0.699 1.379,0.313 2.606,0.727 3.61,1.242 1.582,0.766 1.914,1.934 1.914,2.774 0,0.808 -0.399,1.902 -2.239,2.558"
         style="fill:#ffffff;fill-opacity:1;fill-rule:nonzero;stroke:none"
         id="path66" /><path
         d="m 1020.47,397.207 c 0.18,-0.125 0.44,-0.164 0.74,-0.164 2.17,0 4.01,0.707 5.51,2.051 1.52,1.371 2.29,3.23 2.29,5.496 0,2.09 -0.73,3.84 -2.09,5.203 -1.38,1.289 -3.13,1.965 -5.22,1.965 -2.17,0 -3.96,-0.695 -5.36,-2.07 -1.37,-1.372 -2.08,-3.118 -2.08,-5.208 0,-1.824 0.58,-3.453 1.73,-4.871 1.12,-1.379 2.63,-2.191 4.48,-2.402"
         style="fill:#ffffff;fill-opacity:1;fill-rule:nonzero;stroke:none"
         id="path68" /><path
         d="m 996.148,397.184 c 1.977,0 3.754,0.625 5.242,1.886 1.54,1.309 2.3,3.055 2.3,5.145 0,1.914 -0.68,3.664 -2.04,5.199 -1.38,1.563 -3.099,2.352 -5.127,2.352 -2.07,0 -3.918,-0.703 -5.449,-2.102 -1.562,-1.41 -2.351,-3.203 -2.351,-5.301 0,-2.125 0.761,-3.867 2.234,-5.203 1.438,-1.32 3.184,-1.976 5.191,-1.976"
         style="fill:#ffffff;fill-opacity:1;fill-rule:nonzero;stroke:none"
         id="path70" /><path
         d="m 1051.2,388.523 -0.26,0.051 c -2.18,0 -4.45,-0.07 -6.7,-0.187 -4.24,-0.242 -8.8,-0.282 -13.04,0.043 -2.23,0.183 -4.43,0.258 -6.55,0.258 -0.69,0 -1.39,-0.094 -2.05,-0.29 -0.54,-0.125 -1.42,-0.625 -1.42,-2.207 0,-1.785 0.86,-2.648 1.57,-3.046 0.83,-0.489 1.88,-0.864 3.07,-1.082 1.12,-0.196 2.25,-0.395 3.43,-0.547 1,-0.137 1.81,-0.512 2.43,-1.075 0.6,-0.519 1.03,-1.613 1.24,-3.16 0.26,-1.726 0.37,-3.715 0.37,-5.898 0,-2.215 -0.04,-4.492 -0.11,-6.875 -0.09,-2.391 -0.15,-4.531 -0.15,-6.445 v -26.407 c 0,-2.402 -0.23,-4.754 -0.71,-7.039 -0.72,-4.09 -1.75,-7.586 -3.03,-10.363 -1.26,-2.742 -2.93,-5 -4.94,-6.727 -2.01,-1.726 -4.47,-2.984 -7.33,-3.73 -2.95,-0.766 -6.52,-1.137 -10.63,-1.137 -3.44,0 -6.605,0.344 -9.421,1.07 -2.758,0.7 -5.153,1.981 -7.156,3.778 -2.008,1.808 -3.649,4.324 -4.872,7.5 -1.253,3.203 -2.043,7.351 -2.367,12.351 -0.144,2.496 -0.261,5.055 -0.301,7.621 -0.031,2.559 -0.054,5.098 -0.054,7.649 v 22.723 c 0,1.218 0.023,2.535 0.054,3.914 0.04,1.398 0.145,2.722 0.247,4.031 0.117,1.301 0.257,2.484 0.425,3.535 0.157,1 0.348,1.77 0.586,2.281 0.453,1.121 1.246,1.817 2.395,2.164 1.328,0.391 2.699,0.727 4.051,0.985 1.418,0.23 2.722,0.531 3.839,0.883 1.446,0.418 2.247,1.464 2.247,2.937 0,1.277 -0.801,2.117 -2.145,2.348 -1.051,0.183 -1.891,0.258 -2.59,0.258 -2.859,0 -5.726,-0.114 -8.523,-0.372 -5.246,-0.468 -10.758,-0.523 -16.133,0 -2.633,0.258 -5.293,0.372 -7.926,0.372 -2.047,0 -3.242,-1.122 -3.242,-3.102 0,-0.82 0.351,-1.512 1.008,-1.973 0.539,-0.375 1.164,-0.652 1.914,-0.8 0.644,-0.137 1.277,-0.227 1.957,-0.247 0.621,-0.046 1.14,-0.074 1.578,-0.074 h 1.352 c 1.445,0 2.496,-0.375 3.21,-1.113 0.793,-0.844 1.336,-1.801 1.688,-2.984 0.344,-1.188 0.551,-2.52 0.57,-3.946 0.043,-1.465 0.074,-2.781 0.074,-3.929 0,-7.032 -0.093,-14.02 -0.261,-20.704 -0.156,-7.011 -0.231,-14 -0.231,-20.773 v -4.563 c 0,-0.75 0,-1.511 0.055,-2.257 0.039,-0.739 0.113,-1.52 0.176,-2.266 0.515,-4.859 1.75,-8.953 3.719,-12.148 1.921,-3.211 4.457,-5.825 7.511,-7.778 3,-1.937 6.496,-3.312 10.364,-4.121 3.816,-0.801 7.921,-1.195 12.132,-1.195 3.52,0 7.22,0.281 10.98,0.808 3.74,0.543 7.4,1.5 10.92,2.825 4.04,1.609 7.23,3.937 9.45,6.922 2.18,2.933 3.84,6.285 4.94,9.914 1.07,3.636 1.71,7.507 1.92,11.492 0.22,3.949 0.32,7.797 0.32,11.379 0,2.234 0,4.48 -0.06,6.683 -0.04,2.215 -0.07,4.418 -0.07,6.664 0,2.465 -0.02,5.348 -0.04,8.645 -0.05,3.273 -0.05,6.449 0,9.476 0.02,3.028 0.17,5.68 0.42,7.891 0.33,2.934 0.83,3.309 0.86,3.328 0.18,0.113 0.69,0.324 2.12,0.508 1.22,0.168 2.52,0.406 3.84,0.699 1.38,0.313 2.61,0.727 3.61,1.242 1.58,0.766 1.91,1.934 1.91,2.774 0,0.808 -0.4,1.902 -2.24,2.558"
         style="fill:#ffffff;fill-opacity:1;fill-rule:nonzero;stroke:none"
         id="path72" /><path
         d="m 1138.84,326.281 c -1.13,0.231 -2.16,0.02 -3.16,-0.773 -0.24,-0.203 -0.61,-0.727 -1.88,-2.93 -0.9,-1.609 -1.94,-3.402 -3.17,-5.398 -1.22,-2.008 -2.54,-3.922 -3.97,-5.731 -1.37,-1.781 -2.69,-3.023 -3.96,-3.754 -0.7,-0.449 -2.05,-1.047 -4.05,-1.746 -1.98,-0.726 -4.26,-1.281 -6.75,-1.621 -2.47,-0.387 -5.03,-0.406 -7.64,-0.074 -2.52,0.305 -4.8,1.207 -6.71,2.652 -0.44,0.395 -0.82,1.16 -1.11,2.274 -0.31,1.242 -0.56,2.668 -0.71,4.226 -0.15,1.528 -0.28,3.211 -0.32,4.981 -0.03,1.765 -0.05,3.402 -0.05,4.867 v 4.684 c 0,7.492 0.05,14.828 0.12,22.023 0.1,7.383 0.14,14.793 0.14,22.059 0,0.625 0,1.394 0.04,2.308 0.05,0.883 0.12,1.766 0.24,2.633 0.11,0.883 0.32,1.691 0.58,2.43 0.25,0.734 0.61,1.269 1.07,1.664 0.7,0.554 1.64,0.886 2.8,1.004 l 3.96,0.371 c 1.35,0.136 2.56,0.343 3.53,0.656 1.27,0.363 1.97,1.301 1.97,2.629 0,0.875 -0.47,1.746 -1.38,2.539 l -0.22,0.184 h -0.27 c -3.47,0 -6.61,-0.067 -9.36,-0.258 -5.39,-0.313 -11.53,-0.395 -17.06,0.211 -2.78,0.277 -5.65,0.414 -8.51,0.414 -0.98,0 -1.96,-0.082 -2.91,-0.258 -0.77,-0.137 -2.05,-0.645 -2.05,-2.715 0,-1.519 0.9,-2.519 2.54,-2.777 1.3,-0.207 2.74,-0.418 4.34,-0.625 1.54,-0.188 3.01,-0.582 4.38,-1.184 1.2,-0.512 1.92,-1.519 2.2,-3.082 0.33,-1.609 0.48,-3.422 0.48,-5.43 v -36.023 c 0,-2.309 0.08,-5.035 0.26,-8.379 0.16,-3.312 0.23,-6.562 0.23,-9.644 0,-3.102 -0.16,-5.958 -0.49,-8.551 -0.3,-2.461 -0.9,-4.133 -1.72,-4.981 -1.06,-0.976 -2.19,-1.539 -3.44,-1.722 -1.36,-0.192 -2.67,-0.329 -3.87,-0.418 -1.36,-0.094 -2.42,-0.282 -3.29,-0.582 -0.81,-0.313 -1.74,-1.032 -1.74,-2.891 0,-0.656 0.21,-1.281 0.65,-1.813 0.46,-0.609 1.09,-0.914 1.82,-0.914 2.68,0 5.1,0.075 7.17,0.258 2,0.168 3.95,0.324 5.8,0.492 1.86,0.164 3.77,0.321 5.8,0.489 1.95,0.164 4.33,0.226 7.03,0.226 5.41,0 11.01,-0.359 16.69,-1.086 5.78,-0.746 11.47,-1.125 16.89,-1.125 1.26,0 1.89,1.586 2.28,2.965 0.45,1.602 1.01,3.719 1.66,6.309 0.65,2.582 1.56,5.511 2.7,8.707 1.14,3.191 2.72,6.426 4.75,9.672 l 0.21,0.32 -0.17,0.379 c -0.44,0.957 -1.25,1.601 -2.37,1.859"
         style="fill:#ffffff;fill-opacity:1;fill-rule:nonzero;stroke:none"
         id="path74" /><path
         d="m 1178.07,359.273 c 0.13,5.118 0.18,10.336 0.18,15.446 0,1.41 0.05,2.672 0.12,3.765 0.09,0.938 0.35,1.704 0.84,2.309 0.47,0.602 1.26,1.07 2.3,1.352 1.2,0.296 2.87,0.464 5.01,0.464 1.24,0 2.33,0.137 3.21,0.395 0.7,0.211 1.87,0.836 1.87,2.844 0,0.332 -0.09,0.734 -0.3,1.257 -0.21,0.528 -0.43,0.883 -0.68,1.114 l -0.21,0.238 h -11.06 c -1.15,0 -2.36,-0.07 -3.64,-0.207 -1.25,-0.117 -2.44,-0.168 -3.51,-0.168 -2.36,0 -4.75,0.113 -7.15,0.344 -2.47,0.258 -4.91,0.383 -7.29,0.383 h -1.38 c -0.66,0 -1.44,-0.051 -2.25,-0.2 -1.17,-0.183 -1.82,-0.976 -1.82,-2.164 0,-1.84 0.88,-2.605 1.63,-2.91 0.84,-0.375 1.91,-0.578 3.14,-0.672 1.12,-0.097 2.31,-0.23 3.53,-0.441 1.06,-0.164 1.97,-0.652 2.72,-1.352 0.27,-0.394 0.67,-1.234 0.94,-3.121 0.27,-1.601 0.38,-3.094 0.38,-4.472 v -2.329 c 0,-2.046 -0.02,-4.125 -0.06,-6.168 -0.05,-2.054 -0.05,-4.167 -0.05,-6.289 l -0.14,-43.222 v -2.578 c 0,-1.52 -0.09,-3.133 -0.31,-4.786 -0.16,-1.488 -0.6,-2.484 -1.3,-3.046 -0.7,-0.657 -1.64,-1.114 -2.74,-1.371 -1.23,-0.282 -2.39,-0.543 -3.48,-0.75 -1.13,-0.208 -2.16,-0.469 -3.03,-0.77 -1.12,-0.395 -1.72,-1.184 -1.72,-2.262 0,-1.277 0.58,-2.211 1.65,-2.605 0.86,-0.321 1.78,-0.488 2.68,-0.488 h 1.73 c 2.49,0 4.77,0.14 6.77,0.445 3.68,0.531 8.62,0.562 13.39,0.07 3.62,-0.394 7.13,-0.558 10.72,-0.219 1.56,0.168 2.46,1.188 2.46,2.797 0,0.625 -0.25,1.77 -1.91,2.219 -0.91,0.258 -1.96,0.48 -3.23,0.699 -1.19,0.203 -2.4,0.446 -3.69,0.672 -1.13,0.231 -2.03,0.637 -2.65,1.188 -0.86,0.769 -1.37,1.886 -1.55,3.359 -0.2,1.602 -0.31,3.066 -0.31,4.348 v 31.457 c 0,5.265 0.06,10.445 0.19,15.425"
         style="fill:#ffffff;fill-opacity:1;fill-rule:nonzero;stroke:none"
         id="path76" /><path
         d="m 1300.99,302.305 c -0.98,0.281 -2.05,0.527 -3.12,0.695 -1.99,0.469 -3.82,1.277 -5.49,2.426 -1.73,1.164 -3.41,2.515 -4.97,4.054 -1.58,1.528 -3.12,3.18 -4.59,4.93 -1.49,1.77 -2.93,3.453 -4.36,5.055 -0.57,0.562 -1.67,1.726 -3.32,3.496 l -5.66,6.102 c -2.14,2.312 -4.4,4.753 -6.79,7.363 -2.39,2.578 -4.57,5 -6.6,7.262 -2.03,2.257 -3.75,4.21 -5.18,5.855 -1.29,1.484 -1.86,2.234 -2.11,2.578 0.25,0.32 0.84,0.977 2.19,2.301 1.52,1.492 3.4,3.262 5.61,5.312 2.21,2.051 4.63,4.231 7.26,6.59 2.54,2.262 5.09,4.446 7.53,6.516 2.37,2.023 4.48,3.754 6.34,5.238 2.23,1.801 3.21,2.438 3.66,2.641 0.96,0.531 2.16,0.91 3.51,1.094 1.41,0.207 2.79,0.394 4.12,0.562 1.35,0.156 2.54,0.414 3.5,0.789 1.18,0.418 1.84,1.32 1.84,2.559 0,0.996 -0.43,1.769 -1.24,2.257 -0.7,0.375 -1.45,0.583 -2.23,0.583 -2.1,0 -4.18,-0.067 -6.16,-0.176 -4.14,-0.262 -8.7,-0.242 -12.88,0 -3.35,0.176 -6.68,0.218 -10.36,0.136 -1.54,-0.074 -2.63,-0.812 -3.14,-2.164 l -0.07,-1.269 c 0,-0.688 0.32,-1.926 2.38,-2.227 1.19,-0.168 2.49,-0.285 3.86,-0.312 1.35,-0.039 2.59,-0.156 3.69,-0.293 1.06,-0.168 1.06,-0.563 1.06,-0.746 0,-0.055 -0.06,-0.543 -1.49,-2.219 -1.1,-1.328 -2.52,-2.867 -4.21,-4.613 -1.72,-1.739 -3.64,-3.633 -5.73,-5.586 -2.1,-1.953 -4.09,-3.848 -5.99,-5.606 -1.88,-1.769 -3.59,-3.359 -5.1,-4.75 -1.53,-1.398 -2.58,-2.402 -3.19,-2.988 l -1.61,-1.602 c -0.63,-0.625 -1.34,-1.289 -2.14,-1.914 -0.76,-0.621 -1.61,-1.199 -2.49,-1.652 -0.54,-0.301 -1.09,-0.512 -1.65,-0.613 0.15,0.746 0.18,1.027 0.18,1.176 v 6.539 c 0,1.976 -0.03,3.91 -0.07,5.75 -0.02,1.867 -0.05,3.773 -0.05,5.734 v 6.543 c 0,3.398 0.71,4.824 1.31,5.383 0.91,0.886 1.94,1.363 3.14,1.531 1.31,0.145 2.57,0.164 3.8,0.051 1.59,-0.145 2.68,0.262 3.22,1.133 0.22,0.332 0.38,0.769 0.48,1.328 0.07,0.379 0.2,0.699 0.3,0.984 l 0.1,0.32 c 0,0.489 -0.2,1.383 -1.63,1.84 -0.82,0.262 -1.61,0.399 -2.35,0.399 h -1.1 c -1.91,0 -3.79,-0.098 -5.66,-0.293 -1.74,-0.223 -3.58,-0.313 -5.45,-0.313 h -3.81 c -2.11,0 -4.2,0.117 -6.22,0.375 -2.1,0.231 -4.25,0.371 -6.39,0.371 h -1.37 c -0.76,0 -1.6,-0.113 -2.47,-0.351 -1.51,-0.395 -1.75,-1.438 -1.75,-2.028 0,-1.55 0.7,-2.351 1.28,-2.714 0.71,-0.469 1.6,-0.789 2.67,-0.938 0.97,-0.113 2,-0.164 3.09,-0.113 0.93,0.039 1.82,-0.024 2.63,-0.188 1.26,-0.187 2,-0.769 2.29,-1.843 0.34,-1.297 0.52,-2.586 0.52,-3.829 v -15.058 c 0,-8.41 -0.05,-16.625 -0.18,-24.5 -0.11,-8.223 -0.19,-16.461 -0.19,-24.504 0,-0.719 -0.04,-1.527 -0.11,-2.465 -0.1,-0.902 -0.23,-1.785 -0.46,-2.629 -0.24,-0.863 -0.56,-1.633 -0.99,-2.351 -0.36,-0.653 -0.86,-1.106 -1.46,-1.383 -0.59,-0.27 -1.38,-0.438 -2.43,-0.477 -1.18,-0.054 -2.35,-0.129 -3.44,-0.258 -1.17,-0.121 -2.22,-0.398 -3.12,-0.793 -1.09,-0.488 -1.67,-1.445 -1.67,-2.722 0,-1.262 0.73,-2.125 2.04,-2.356 0.98,-0.164 1.89,-0.257 2.65,-0.257 3.52,0 6.92,0.136 10.06,0.375 3.15,0.257 6.51,0.375 9.92,0.375 1.73,0 3.43,-0.118 5.07,-0.301 1.74,-0.211 3.48,-0.324 5.19,-0.324 h 1.6 c 0.94,0 1.84,0.207 2.69,0.644 0.99,0.488 1.52,1.371 1.52,2.59 0,1.394 -0.79,1.933 -1.28,2.109 -0.6,0.239 -1.32,0.375 -2.14,0.43 -0.77,0.039 -1.51,0.039 -2.25,0 h -0.23 c -0.51,0 -0.73,0.094 -0.82,0.156 l -0.23,0.164 -0.29,-0.019 c -1.53,-0.145 -2.72,0.093 -3.53,0.718 -0.87,0.657 -1.52,1.54 -1.92,2.61 -0.41,1.164 -0.69,2.465 -0.81,3.89 -0.14,1.446 -0.18,2.797 -0.18,4.004 0,3.047 0.02,6.047 0.04,9.012 0.04,2.957 0.07,5.965 0.07,9.012 v 5.539 c 0,1.144 0.02,2.238 0.07,3.238 0.05,1.235 0.12,1.797 0.16,2.028 0,0.074 0.02,0.113 0.05,0.164 0.49,-0.164 1.12,-0.282 1.96,-0.352 0.9,-0.492 2.14,-1.445 3.65,-2.84 1.66,-1.539 3.49,-3.351 5.48,-5.394 1.95,-2.051 4.04,-4.309 6.18,-6.711 2.15,-2.383 4.21,-4.731 6.19,-7.032 1.97,-2.289 3.75,-4.41 5.37,-6.293 l 3.7,-4.347 c 0.17,-0.278 0.49,-0.707 0.96,-1.309 0.45,-0.558 0.93,-1.168 1.42,-1.84 0.49,-0.656 0.93,-1.257 1.35,-1.8 0.37,-0.454 0.61,-0.758 0.72,-0.996 0.3,-0.461 0.38,-0.7 0.4,-0.739 -0.54,-0.219 -1.07,-0.301 -1.63,-0.301 -0.4,0 -1.15,0.02 -2.2,0.063 -1.09,0.019 -2.28,-0.023 -3.46,-0.211 -1.21,-0.164 -2.31,-0.488 -3.24,-0.937 -1.42,-0.665 -1.72,-1.747 -1.72,-2.504 0,-1.332 0.39,-2.172 1.19,-2.496 0.61,-0.25 1.32,-0.375 2.28,-0.375 3.14,0 6.38,0.093 9.55,0.3 5.87,0.399 11.61,0.469 17.16,0 2.53,-0.207 5.17,-0.3 7.84,-0.3 0.54,0 1.19,0.074 2.03,0.183 1.52,0.266 1.87,1.262 1.93,1.895 0.15,2.226 -1.13,2.957 -1.88,3.164"
         style="fill:#ffffff;fill-opacity:1;fill-rule:nonzero;stroke:none"
         id="path78" /><path
         d="m 1353.77,384.852 c 3.07,0 5.97,-0.469 8.66,-1.403 4.47,-1.562 8.43,-4.027 11.74,-7.336 3.35,-3.347 6.14,-7.402 8.31,-12.082 2.19,-4.679 3.78,-9.683 4.75,-14.851 0.81,-4.637 1.19,-9.578 1.1,-14.676 -0.08,-5.082 -0.93,-9.961 -2.54,-14.516 -1.61,-4.511 -4.15,-8.5 -7.6,-11.808 -3.4,-3.305 -8.12,-5.489 -14.05,-6.539 -2.31,-0.414 -4.55,-0.633 -6.62,-0.633 -3.42,0 -6.57,0.59 -9.37,1.703 -4.56,1.84 -8.5,4.609 -11.69,8.199 -3.24,3.625 -5.87,7.871 -7.82,12.621 -2.01,4.797 -3.42,9.645 -4.22,14.414 -0.91,4.641 -1.32,9.508 -1.3,14.489 0.04,4.961 0.86,9.664 2.44,14.019 1.54,4.305 4.07,8.106 7.5,11.293 3.42,3.192 8.21,5.356 14.21,6.481 2.23,0.418 4.43,0.625 6.5,0.625 m 35.84,-7.032 c -4.43,4.121 -9.63,7.352 -15.49,9.641 -5.87,2.301 -12.18,3.445 -18.73,3.445 -6.81,0 -13.2,-1.226 -18.93,-3.703 -5.75,-2.445 -10.78,-5.898 -15,-10.223 -4.21,-4.308 -7.52,-9.5 -9.85,-15.437 -2.33,-5.898 -3.51,-12.395 -3.51,-19.289 0,-6.887 1.16,-13.32 3.44,-19.094 2.29,-5.777 5.52,-10.867 9.59,-15.133 4.11,-4.246 9.07,-7.589 14.78,-9.972 5.7,-2.375 12.01,-3.59 18.74,-3.59 6.82,0 13.3,1.332 19.3,3.965 5.99,2.605 11.28,6.183 15.75,10.64 4.45,4.446 7.98,9.731 10.52,15.668 2.54,5.938 3.83,12.348 3.83,19.004 0,6.988 -1.31,13.465 -3.9,19.196 -2.58,5.75 -6.13,10.753 -10.54,14.882"
         style="fill:#ffffff;fill-opacity:1;fill-rule:nonzero;stroke:none"
         id="path80" /><path
         d="m 1465.27,384.852 c 3.08,0 5.98,-0.469 8.66,-1.403 4.47,-1.562 8.43,-4.027 11.76,-7.336 3.33,-3.347 6.13,-7.402 8.3,-12.082 2.18,-4.679 3.79,-9.683 4.75,-14.851 0.81,-4.617 1.18,-9.559 1.11,-14.676 -0.09,-5.102 -0.95,-9.961 -2.56,-14.516 -1.61,-4.511 -4.15,-8.5 -7.59,-11.808 -3.4,-3.305 -8.13,-5.489 -14.04,-6.539 -2.33,-0.414 -4.57,-0.633 -6.65,-0.633 -3.42,0 -6.56,0.59 -9.35,1.703 -4.57,1.84 -8.5,4.609 -11.7,8.199 -3.23,3.625 -5.86,7.871 -7.82,12.621 -2,4.778 -3.42,9.621 -4.22,14.414 -0.9,4.641 -1.32,9.508 -1.3,14.489 0.04,4.961 0.86,9.683 2.43,14.019 1.55,4.305 4.09,8.106 7.51,11.293 3.42,3.192 8.2,5.356 14.21,6.481 2.25,0.418 4.42,0.625 6.5,0.625 m 35.84,-7.032 c -4.42,4.121 -9.61,7.352 -15.49,9.641 -5.86,2.301 -12.14,3.445 -18.73,3.445 -6.81,0 -13.17,-1.226 -18.93,-3.703 -5.75,-2.445 -10.77,-5.898 -14.99,-10.223 -4.21,-4.328 -7.52,-9.527 -9.85,-15.437 -2.33,-5.898 -3.51,-12.395 -3.51,-19.289 0,-6.887 1.16,-13.32 3.44,-19.094 2.28,-5.777 5.52,-10.867 9.62,-15.133 4.06,-4.246 9.04,-7.589 14.74,-9.972 5.7,-2.375 12.01,-3.59 18.74,-3.59 6.82,0 13.33,1.332 19.33,3.965 5.97,2.605 11.25,6.183 15.7,10.64 4.48,4.446 8.01,9.731 10.55,15.668 2.53,5.973 3.81,12.348 3.81,19.004 0,6.988 -1.3,13.446 -3.88,19.196 -2.59,5.75 -6.13,10.753 -10.55,14.882"
         style="fill:#ffffff;fill-opacity:1;fill-rule:nonzero;stroke:none"
         id="path82" /><path
         d="m 1598.26,324.414 c -0.44,0.957 -1.25,1.613 -2.37,1.867 -1.14,0.258 -2.17,0.02 -3.17,-0.773 -0.23,-0.207 -0.6,-0.715 -1.86,-2.934 -0.9,-1.601 -1.96,-3.398 -3.19,-5.406 -1.21,-1.996 -2.54,-3.91 -3.95,-5.723 -1.39,-1.765 -2.71,-3.035 -3.97,-3.754 -0.7,-0.445 -2.04,-1.05 -4.04,-1.742 -1.99,-0.719 -4.28,-1.281 -6.76,-1.636 -2.47,-0.364 -5.04,-0.395 -7.65,-0.063 -2.51,0.301 -4.79,1.203 -6.7,2.656 -0.44,0.391 -0.81,1.16 -1.12,2.285 -0.3,1.227 -0.56,2.641 -0.71,4.215 -0.15,1.535 -0.26,3.211 -0.32,4.981 -0.02,1.765 -0.04,3.394 -0.04,4.867 v 4.676 c 0,7.5 0.04,14.843 0.12,22.039 0.09,7.375 0.14,14.777 0.14,22.051 0,0.632 0,1.39 0.04,2.308 0.05,0.883 0.12,1.766 0.24,2.633 0.12,0.848 0.32,1.691 0.58,2.441 0.26,0.727 0.6,1.258 1.07,1.653 0.7,0.562 1.63,0.886 2.79,0.996 l 3.96,0.379 c 1.36,0.136 2.56,0.34 3.54,0.652 1.26,0.367 1.96,1.301 1.96,2.633 0,0.883 -0.47,1.746 -1.37,2.539 l -0.22,0.184 h -0.27 c -3.48,0 -6.62,-0.071 -9.36,-0.258 -5.38,-0.301 -11.54,-0.395 -17.06,0.207 -2.79,0.281 -5.65,0.429 -8.52,0.429 -0.96,0 -1.93,-0.109 -2.91,-0.265 -0.77,-0.133 -2.04,-0.653 -2.04,-2.723 0,-1.519 0.9,-2.515 2.53,-2.773 1.31,-0.211 2.74,-0.418 4.35,-0.625 1.55,-0.188 3.01,-0.582 4.38,-1.188 1.19,-0.508 1.92,-1.508 2.2,-3.101 0.32,-1.578 0.49,-3.379 0.49,-5.395 v -36.027 c 0,-2.309 0.09,-5.125 0.25,-8.391 0.16,-3.234 0.23,-6.492 0.23,-9.64 0,-3.083 -0.16,-5.961 -0.48,-8.551 -0.3,-2.465 -0.92,-4.149 -1.73,-4.981 -1.07,-0.98 -2.19,-1.543 -3.45,-1.726 -1.35,-0.188 -2.64,-0.325 -3.86,-0.414 -1.35,-0.094 -2.43,-0.286 -3.31,-0.582 -0.79,-0.305 -1.72,-1.032 -1.72,-2.891 0,-0.648 0.2,-1.281 0.65,-1.813 0.47,-0.605 1.09,-0.917 1.82,-0.917 2.69,0 5.1,0.074 7.17,0.261 2,0.168 3.94,0.332 5.8,0.492 1.86,0.164 3.77,0.321 5.79,0.489 1.96,0.164 4.34,0.238 7.04,0.238 5.4,0 11.02,-0.387 16.7,-1.105 5.77,-0.739 11.46,-1.114 16.88,-1.114 1.29,0 1.89,1.582 2.28,2.957 0.45,1.61 1,3.723 1.66,6.313 0.64,2.586 1.56,5.519 2.7,8.715 1.11,3.16 2.71,6.425 4.74,9.664 l 0.22,0.32 -0.17,0.371"
         style="fill:#ffffff;fill-opacity:1;fill-rule:nonzero;stroke:none"
         id="path84" /><path
         d="m 83.875,33.8281 c 0.0625,2.4141 0.1016,4.8438 0.1016,7.3164 0,0.7227 0.0078,1.375 0.0547,1.9414 0.0195,0.2735 0.0898,0.4805 0.1835,0.6172 0.0352,0.0469 0.1915,0.2149 0.668,0.3711 0.3242,0.0977 0.9883,0.2344 2.1953,0.2344 0.7344,0 1.4063,0.0859 2.0157,0.2539 1.1484,0.332 1.832,1.3086 1.832,2.625 0,0.6445 -0.3047,1.2617 -0.8672,1.8281 l -0.4531,0.4688 h -6.2657 c -0.6445,0 -1.3164,-0.0391 -2.0039,-0.1094 -1.8164,-0.1836 -3.4921,-0.0859 -4.7734,0.0898 -1.0273,0.1446 -2.207,0.2149 -3.4961,0.2149 h -0.7148 c -0.4258,0 -0.8868,-0.0391 -1.375,-0.1289 -1.1836,-0.1758 -1.9571,-1.082 -1.9571,-2.3047 0,-1.7578 1.1133,-2.4219 1.5938,-2.6172 0.5703,-0.2422 1.2578,-0.3906 2.0156,-0.4375 0.543,-0.0312 1.1289,-0.1172 1.7188,-0.2266 0.3125,-0.039 0.5703,-0.1757 0.6523,-0.2226 0.0117,-0.0195 0.1484,-0.2656 0.2852,-1.1055 0.1132,-0.7812 0.1757,-1.4844 0.1757,-2.1367 v -1.2305 c 0,-1.0664 -0.0117,-2.1093 -0.0351,-3.1836 C 75.4063,35 75.3984,33.9063 75.3984,32.8047 L 75.332,26.8555 c 0,-0.75 -0.0625,-1.5313 -0.1562,-2.3516 -0.0703,-0.6172 -0.2227,-0.7812 -0.2774,-0.8398 -0.2382,-0.2071 -0.5312,-0.3516 -0.9179,-0.4297 -0.6094,-0.1367 -1.1953,-0.2735 -1.7657,-0.3711 -0.664,-0.1289 -1.2382,-0.2852 -1.7343,-0.461 -1.0742,-0.371 -1.7188,-1.2187 -1.7188,-2.2929 0,-1.1719 0.625,-2.1094 1.6563,-2.4805 0.5781,-0.2148 1.1836,-0.3242 1.8047,-0.3242 h 0.8984 c 0.6953,0 1.3008,0.0195 1.8164,0.0703 0.5117,0.0469 0.9805,0.1055 1.4258,0.1641 0.375,0.0703 0.7812,0.1093 1.2148,0.1484 1.2617,0.125 3.2149,0.0664 4.961,-0.1172 1.9609,-0.2148 3.9648,-0.293 5.8281,-0.0976 1.4336,0.1445 2.3633,1.1718 2.3633,2.6367 0,1.1133 -0.7188,2 -1.875,2.2929 -0.5196,0.1563 -1.1133,0.2657 -1.7891,0.3907 -0.625,0.1093 -1.25,0.2343 -1.9023,0.3515 C 84.7773,23.2148 84.5,23.3398 84.3438,23.4688 84.2344,23.5742 84.082,23.75 84,24.1523 c -0.1055,0.5469 -0.1914,1.0743 -0.2187,1.6094 v 0.8399 c 0,2.4336 0.0273,4.8359 0.0937,7.2265"
         style="fill:#ffffff;fill-opacity:1;fill-rule:nonzero;stroke:none"
         id="path86" /><path
         d="m 125.414,44.5117 c -1.184,1.3281 -2.664,2.3633 -4.359,3.125 -2.774,1.2305 -6.301,1.5039 -9.407,0.625 -1.16,-0.3398 -2.238,-0.7617 -3.23,-1.2773 -0.285,-0.1485 -0.559,-0.3047 -0.84,-0.4688 0.676,1.875 1.5,3.6719 2.477,5.3907 1.722,3.0078 3.949,5.7109 6.636,8.0351 0.622,0.5391 1.235,1.0274 1.872,1.5039 0.625,0.4492 1.257,0.8906 1.847,1.2305 0.156,0.0781 0.442,0.207 0.848,0.3906 0.469,0.2149 0.91,0.4219 1.336,0.6445 0.504,0.2735 0.957,0.5664 1.351,0.8907 0.719,0.5859 1.075,1.2304 1.075,1.9414 0,0.7539 -0.313,1.4258 -0.872,1.9453 -0.332,0.293 -0.636,0.5273 -0.949,0.7109 l -0.433,0.2461 -0.504,-0.039 c -0.633,-0.0586 -1.317,-0.2461 -2.102,-0.5665 -0.64,-0.2539 -1.203,-0.5078 -1.703,-0.7343 -3.07,-1.4258 -5.973,-3.2305 -8.621,-5.3789 -2.66,-2.1485 -5.035,-4.6211 -7.043,-7.336 -2.008,-2.7343 -3.6055,-5.7304 -4.7383,-8.9258 -1.1602,-3.2304 -1.7383,-6.6679 -1.7383,-10.2148 0,-1.8359 0.1992,-3.6523 0.5781,-5.3906 0.3985,-1.7774 1.0039,-3.4571 1.8243,-5.0196 0.8203,-1.582 1.8902,-3.0156 3.2032,-4.2656 1.297,-1.2695 2.891,-2.3047 4.766,-3.1172 2.246,-0.9375 4.519,-1.414 6.777,-1.414 2.328,0 4.496,0.4883 6.437,1.4531 1.907,0.9492 3.547,2.2578 4.911,3.8672 1.339,1.6015 2.39,3.4492 3.128,5.4609 0.762,2.0391 1.122,4.1797 1.122,6.3672 0,2.0313 -0.297,3.9336 -0.911,5.6719 -0.636,1.789 -1.554,3.3515 -2.738,4.6484 m -9.098,-21.4258 c -0.832,-0.5937 -1.843,-0.8789 -3.113,-0.8789 -1.5,0 -2.672,0.3516 -3.598,1.0547 -0.996,0.7617 -1.785,1.7578 -2.367,2.9297 -0.617,1.2891 -1.054,2.6953 -1.312,4.1797 -0.262,1.5625 -0.399,3.0586 -0.399,4.4648 0,0.75 0.036,1.4336 0.094,2.0899 l 0.172,1.6211 c 0.297,0.332 0.664,0.7031 1.066,1.0742 0.563,0.5273 1.2,1.0234 1.871,1.4922 0.672,0.4492 1.387,0.8398 2.133,1.164 1.914,0.8204 3.953,0.4297 5.317,-0.3515 0.925,-0.5469 1.652,-1.2305 2.222,-2.1094 0.618,-0.918 1.071,-1.9844 1.375,-3.1836 0.313,-1.2422 0.457,-2.5117 0.457,-3.789 0,-1.2032 -0.136,-2.4922 -0.414,-3.8204 -0.257,-1.2695 -0.707,-2.4492 -1.297,-3.4961 -0.578,-0.9843 -1.316,-1.8046 -2.207,-2.4414"
         style="fill:#ffffff;fill-opacity:1;fill-rule:nonzero;stroke:none"
         id="path88" /><path
         d="m 155.711,29.2695 c -1.227,1.1602 -2.727,2.0313 -4.465,2.6055 -0.527,0.1758 -1.078,0.3125 -1.641,0.4102 0.727,0.7421 1.446,1.5625 2.129,2.4414 0.895,1.125 1.676,2.3047 2.321,3.5273 0.718,1.3477 1.082,2.6172 1.082,3.7969 0,1.5625 -0.293,2.9492 -0.883,4.0742 -0.598,1.1016 -1.363,2.0313 -2.32,2.7422 -0.946,0.7148 -1.996,1.2226 -3.153,1.5234 -2.211,0.586 -4.605,0.6641 -7.051,-0.3203 -1.152,-0.4609 -2.21,-1.0469 -3.167,-1.7187 -0.985,-0.6836 -1.805,-1.4375 -2.438,-2.2461 -0.777,-1.0078 -1.145,-2.0117 -1.051,-3.086 0.094,-0.6172 0.406,-1.1718 0.895,-1.6328 0.511,-0.4375 1.027,-0.5351 1.371,-0.5351 0.523,0 1,0.2031 1.449,0.6523 0.926,1.0469 1.789,1.8945 2.559,2.5195 1.058,0.8789 3.316,1.0743 4.804,-0.3593 0.696,-0.6836 1.063,-1.8282 1.063,-3.4297 0,-0.8789 -0.262,-1.7774 -0.793,-2.7227 -0.606,-1.0547 -1.371,-2.0703 -2.281,-3.0273 -0.93,-0.9766 -1.942,-1.8555 -3.012,-2.6485 -1.082,-0.789 -2.07,-1.4336 -2.871,-1.8828 l -1.262,-0.6054 c -1.516,-0.7344 -1.758,-1.8282 -1.758,-2.4219 0,-1.5938 1.032,-2.6875 2.551,-2.6875 0.582,0 1.168,0.2539 2.016,0.832 0.429,0.2813 0.754,0.4766 1.093,0.6328 0.551,0.293 1.063,0.4297 1.602,0.4297 l 0.305,-0.0195 c 0.883,-0.086 1.722,-0.1953 2.523,-0.3516 0.856,-0.164 1.602,-0.4961 2.246,-0.957 0.668,-0.4883 1.231,-1.082 1.676,-1.7774 0.477,-0.75 0.844,-1.582 1.102,-2.4609 0.269,-0.8867 0.394,-1.7851 0.394,-2.6445 0,-1.711 -0.348,-3.2735 -1.019,-4.6289 -0.715,-1.3985 -1.664,-2.668 -2.872,-3.74222 C 145.633,8.4375 144.164,7.45313 142.5,6.64063 140.836,5.83203 139.059,5.15625 137.246,4.62891 136.664,4.55078 136.168,4.23828 135.848,3.78906 135.586,3.41797 135.406,2.96875 135.359,2.51172 135.285,1.92578 135.43,1.36719 135.762,0.890625 136.004,0.558594 136.555,0 137.605,0 h 0.008 0.02 c 2.414,0.0507813 4.933,0.605469 7.488,1.66016 2.516,1.05468 4.863,2.48047 6.945,4.23828 2.106,1.79687 3.872,3.88672 5.247,6.24216 1.414,2.4492 2.14,5.0586 2.14,7.7735 0,1.8242 -0.332,3.5625 -0.945,5.1445 -0.656,1.6328 -1.582,3.0273 -2.797,4.2109"
         style="fill:#ffffff;fill-opacity:1;fill-rule:nonzero;stroke:none"
         id="path90" /><path
         d="m 193.031,29.8164 c -0.246,0.5352 -0.746,1.2695 -1.859,1.707 -1.156,0.461 -2.363,0.0899 -3.152,-0.9961 l -1.832,-2.6367 c -0.446,-0.6328 -0.903,-1.289 -1.391,-1.9609 -0.488,-0.6758 -0.926,-1.2891 -1.309,-1.7774 -0.011,-0.0117 -0.293,-0.2539 -1.457,-0.4882 -1.144,-0.2461 -2.402,-0.4024 -3.734,-0.461 -1.188,-0.0586 -2.32,-0.0586 -3.402,0 0.382,0.3907 0.816,0.8399 1.257,1.3282 0.875,0.9375 1.801,1.9921 2.746,3.1562 0.981,1.1602 1.895,2.3438 2.758,3.5625 0.852,1.2227 1.629,2.4023 2.266,3.5469 0.699,1.2304 1.168,2.3125 1.406,3.2812 1.031,3.6914 0.684,6.7578 -1.019,9.1094 -1.731,2.375 -4.43,3.5742 -8.039,3.5742 -0.676,0 -1.34,-0.0273 -1.997,-0.0781 -0.75,-0.0469 -1.527,-0.1953 -2.308,-0.4375 -0.801,-0.2734 -1.645,-0.6953 -2.496,-1.2617 -0.836,-0.5742 -1.707,-1.3555 -2.621,-2.3633 -0.168,-0.1641 -0.387,-0.4492 -0.68,-0.8281 l -0.652,-0.918 c -0.305,-0.4102 -0.555,-0.832 -0.75,-1.2422 -0.239,-0.5351 -0.364,-0.9844 -0.364,-1.4062 0,-0.8008 0.356,-1.5118 1.008,-1.9922 0.707,-0.4961 1.594,-0.5742 2.383,-0.1836 0.555,0.2734 1.008,0.7617 1.41,1.4726 0.184,0.3321 0.449,0.7032 0.805,1.1133 0.293,0.3321 0.715,0.6367 1.269,0.8985 0.364,0.1875 1.082,0.3828 2.418,0.3828 2.43,0 3.094,-0.9961 3.313,-1.3399 0.601,-0.9179 0.551,-2.3125 -0.137,-4.1211 -0.461,-1.1015 -1.078,-2.3632 -1.84,-3.6992 -0.812,-1.418 -1.722,-2.8828 -2.734,-4.3672 -1.031,-1.5117 -2.137,-3.0273 -3.32,-4.5508 -1.184,-1.5117 -2.36,-2.9296 -3.461,-4.1601 -0.657,-0.6445 -0.793,-1.3164 -0.793,-1.7656 0,-0.3907 0,-1.6133 0.929,-2.3243 0.414,-0.3437 0.957,-0.539 1.582,-0.5976 l 0.454,-0.0391 c 0.851,0 1.425,0.5586 1.781,0.9883 0.984,0 2.082,0.0195 3.261,0.0391 1.387,0.0195 2.622,0.0273 3.68,0.0273 2.645,-0.0781 4.86,-0.2617 6.567,-0.5273 1.828,-0.2813 3.39,-0.4766 4.554,-0.5547 l 0.274,-0.0117 c 0.929,0 1.941,0.6445 2.078,2.1015 0.039,0.4375 0.125,1.1133 0.238,1.961 0.125,0.8203 0.383,1.8867 0.77,3.1445 0.355,1.2109 1.05,2.6367 2.039,4.2109 l 0.445,0.711 -0.344,0.7734"
         style="fill:#ffffff;fill-opacity:1;fill-rule:nonzero;stroke:none"
         id="path92" /><path
         d="M 6.04297,333.176 133.066,393.664 260.07,333.176 Z"
         style="fill:#ffffff;fill-opacity:1;fill-rule:nonzero;stroke:none"
         id="path94" /><path
         d="M 266.105,308.996 H 0 v 12.106 h 266.105 v -12.106"
         style="fill:#ffffff;fill-opacity:1;fill-rule:nonzero;stroke:none"
         id="path96" /><path
         d="M 72.5938,97.2852 H 0 V 133.574 H 72.5938 V 97.2852"
         style="fill:#ffffff;fill-opacity:1;fill-rule:nonzero;stroke:none"
         id="path98" /><path
         d="m 266.105,97.2852 h -72.57 v 36.2888 h 72.57 V 97.2852"
         style="fill:#ffffff;fill-opacity:1;fill-rule:nonzero;stroke:none"
         id="path100" /><path
         d="M 120.965,97.2852 H 96.7852 V 133.574 H 120.965 V 97.2852"
         style="fill:#ffffff;fill-opacity:1;fill-rule:nonzero;stroke:none"
         id="path102" /><path
         d="m 169.336,97.2852 h -24.18 v 36.2888 h 24.18 V 97.2852"
         style="fill:#ffffff;fill-opacity:1;fill-rule:nonzero;stroke:none"
         id="path104" /><path
         d="M 21.168,296.922 24.1875,145.684 H 0.0078125 L 3.02344,296.922 H 21.168"
         style="fill:#ffffff;fill-opacity:1;fill-rule:nonzero;stroke:none"
         id="path106" /><path
         d="M 69.5703,296.922 72.5898,145.684 H 48.3906 l 3.0117,151.238 h 18.168"
         style="fill:#ffffff;fill-opacity:1;fill-rule:nonzero;stroke:none"
         id="path108" /><path
         d="m 117.945,296.922 3.02,-151.238 H 96.7734 l 3.0235,151.238 h 18.1481"
         style="fill:#ffffff;fill-opacity:1;fill-rule:nonzero;stroke:none"
         id="path110" /><path
         d="m 166.316,296.922 3.016,-151.238 h -24.18 l 3.008,151.238 h 18.156"
         style="fill:#ffffff;fill-opacity:1;fill-rule:nonzero;stroke:none"
         id="path112" /><path
         d="m 214.723,296.922 3.015,-151.238 h -24.203 l 3.047,151.238 h 18.141"
         style="fill:#ffffff;fill-opacity:1;fill-rule:nonzero;stroke:none"
         id="path114" /><path
         d="m 263.098,296.922 3.015,-151.238 h -24.179 l 3.004,151.238 h 18.16"
         style="fill:#ffffff;fill-opacity:1;fill-rule:nonzero;stroke:none"
         id="path116" /><path
         d="M 133.059,423.898 0,360.379 v -15.094 l 133.059,63.5 133.046,-63.5 v 15.094 l -133.046,63.519"
         style="fill:#ffffff;fill-opacity:1;fill-rule:nonzero;stroke:none"
         id="path118" /></g></g></svg>
