<?xml version="1.0" encoding="UTF-8" standalone="no"?>
<svg
   xmlns:dc="http://purl.org/dc/elements/1.1/"
   xmlns:cc="http://creativecommons.org/ns#"
   xmlns:rdf="http://www.w3.org/1999/02/22-rdf-syntax-ns#"
   xmlns:svg="http://www.w3.org/2000/svg"
   xmlns="http://www.w3.org/2000/svg"
   xmlns:sodipodi="http://sodipodi.sourceforge.net/DTD/sodipodi-0.dtd"
   xmlns:inkscape="http://www.inkscape.org/namespaces/inkscape"
   version="1.1"
   id="svg2"
   xml:space="preserve"
   width="325.05334"
   height="70.973335"
   viewBox="0 0 325.05334 70.973335"
   sodipodi:docname="matemaatika ja statistika instituut_est_valge.eps"><metadata
     id="metadata8"><rdf:RDF><cc:Work
         rdf:about=""><dc:format>image/svg+xml</dc:format><dc:type
           rdf:resource="http://purl.org/dc/dcmitype/StillImage" /></cc:Work></rdf:RDF></metadata><defs
     id="defs6" /><sodipodi:namedview
     pagecolor="#ffffff"
     bordercolor="#666666"
     borderopacity="1"
     objecttolerance="10"
     gridtolerance="10"
     guidetolerance="10"
     inkscape:pageopacity="0"
     inkscape:pageshadow="2"
     inkscape:window-width="640"
     inkscape:window-height="480"
     id="namedview4" /><g
     id="g10"
     inkscape:groupmode="layer"
     inkscape:label="ink_ext_XXXXXX"
     transform="matrix(1.3333333,0,0,-1.3333333,0,70.973333)"><g
       id="g12"
       transform="scale(0.1)"><path
         d="m 437.738,211.055 c 3.469,0 5.953,0.871 7.45,2.605 1.492,1.731 2.39,3.949 2.695,6.645 0.293,2.683 0.441,6.902 0.441,12.644 v 40.914 c 0,5.024 0.242,8.91 0.719,11.664 l -12.738,-0.718 v 7.535 c 7.054,0 11.906,0.386 14.535,1.168 2.633,0.773 4.844,2 6.64,3.676 h 5.208 c 0.234,-1.793 0.472,-4.965 0.714,-9.508 3.707,3.226 7.899,5.8 12.563,7.715 4.668,1.914 9.269,2.871 13.816,2.871 5.86,0 10.86,-1.047 14.985,-3.137 4.129,-2.098 7.324,-5.059 9.601,-8.883 4.305,3.465 9.121,6.336 14.449,8.613 5.321,2.27 10.434,3.407 15.34,3.407 10.528,0 18.211,-3.203 23.059,-9.598 4.848,-6.402 7.144,-16.602 6.906,-30.598 l -0.176,-33.375 c 0,-5.379 -0.242,-9.453 -0.715,-12.207 l 11.301,0.539 v -7.351 h -36.605 v 5.379 c 3.469,0 5.945,0.871 7.445,2.605 1.496,1.731 2.395,3.949 2.692,6.645 0.296,2.683 0.449,6.902 0.449,12.644 v 25.121 c 0,10.285 -1.617,17.969 -4.844,23.059 -3.23,5.082 -8.316,7.625 -15.254,7.625 -3.711,0 -7.445,-0.805 -11.215,-2.422 -3.769,-1.613 -7.09,-3.738 -9.961,-6.371 1.196,-3.707 1.797,-8.074 1.797,-13.102 l -0.363,-42.164 c 0,-5.379 -0.238,-9.453 -0.719,-12.207 l 11.305,0.539 v -7.351 h -36.606 v 5.379 c 3.465,0 5.953,0.871 7.446,2.605 1.496,1.731 2.363,3.891 2.601,6.457 0.242,2.578 0.422,6.848 0.539,12.832 l 0.18,25.121 c 0.117,10.407 -1.375,18.184 -4.484,23.328 -3.114,5.141 -8.075,7.719 -14.895,7.719 -3.711,0 -7.387,-0.781 -11.035,-2.336 -3.652,-1.554 -6.793,-3.652 -9.426,-6.285 l 0.184,-9.683 v -46.118 c 0,-5.379 -0.239,-9.453 -0.719,-12.207 l 11.305,0.539 v -7.351 h -36.61 v 5.379"
         style="fill:#ffffff;fill-opacity:1;fill-rule:nonzero;stroke:none"
         id="path14" /><path
         d="m 638.578,215.637 c 3.715,1.726 7.477,4.39 11.313,7.984 -0.125,1.789 -0.184,4.848 -0.184,9.152 l 0.184,16.868 c -9.813,-0.356 -18.547,-2.364 -26.203,-6.02 -7.657,-3.641 -11.485,-9.234 -11.485,-16.773 0,-4.426 1.313,-7.832 3.949,-10.227 2.629,-2.391 5.977,-3.594 10.051,-3.594 4.539,0 8.672,0.871 12.375,2.61 z m -36.512,-6.914 c -4.609,3.953 -6.91,9.09 -6.91,15.437 0,6.934 2.782,12.793 8.348,17.586 5.559,4.785 12.559,8.336 20.988,10.672 8.438,2.332 16.903,3.437 25.399,3.32 v 11.121 c 0,7.782 -1.141,13.848 -3.411,18.219 -2.277,4.367 -7.121,6.547 -14.535,6.547 -3.711,0 -7.242,-0.781 -10.59,-2.332 -3.351,-1.555 -5.8,-3.887 -7.359,-6.996 1.559,-1.676 2.332,-3.953 2.332,-6.824 0,-1.789 -0.656,-3.496 -1.973,-5.11 -1.316,-1.617 -3.23,-2.422 -5.742,-2.422 -2.511,0 -4.484,0.805 -5.922,2.422 -1.433,1.614 -2.152,3.735 -2.152,6.371 0,3.946 1.527,7.563 4.574,10.856 3.051,3.289 7.293,5.89 12.746,7.805 5.438,1.914 11.512,2.871 18.211,2.871 10.047,0 17.465,-2.664 22.25,-7.989 4.785,-5.32 7.121,-13.722 7.004,-25.207 l -0.179,-40.375 c 0,-3.828 -0.247,-7.898 -0.719,-12.207 l 12.738,0.727 v -7.539 h -25.66 c -0.359,1.797 -0.781,5.203 -1.258,10.222 -8.73,-8.73 -18.125,-13.093 -28.176,-13.093 -8.73,0 -15.402,1.972 -20.004,5.918"
         style="fill:#ffffff;fill-opacity:1;fill-rule:nonzero;stroke:none"
         id="path16" /><path
         d="m 693.137,235.82 0.359,52.035 -13.816,-0.175 v 7.715 c 5.742,0.117 10.613,2.718 14.625,7.808 4.008,5.082 6.965,10.856 8.879,17.317 h 6.105 v -25.125 h 30.145 v -6.997 l -30.145,-0.363 c -0.121,-18.305 -0.211,-30.984 -0.269,-38.039 -0.063,-7.055 -0.094,-11.004 -0.094,-11.844 0,-8.496 1.015,-14.8 3.054,-18.933 2.032,-4.121 5.559,-6.192 10.586,-6.192 3.11,0 6.192,0.957 9.243,2.871 3.05,1.915 5.711,4.551 7.988,7.903 l 4.844,-3.946 c -4.668,-6.945 -9.274,-11.527 -13.821,-13.734 -4.543,-2.215 -8.972,-3.316 -13.281,-3.316 -16.391,0 -24.523,11.004 -24.402,33.015"
         style="fill:#ffffff;fill-opacity:1;fill-rule:nonzero;stroke:none"
         id="path18" /><path
         d="m 815.363,265.07 c 0,7.176 -1.617,13.336 -4.843,18.481 -3.235,5.14 -8.079,7.719 -14.536,7.719 -14.839,0 -23.629,-8.735 -26.382,-26.2 z m -43.34,-56.437 c -6.636,3.887 -11.875,9.453 -15.699,16.687 -3.832,7.239 -5.742,15.586 -5.742,25.035 0,8.372 1.91,16.239 5.742,23.594 3.824,7.36 9.18,13.246 16.059,17.676 6.883,4.426 14.683,6.641 23.418,6.641 6.82,0 12.98,-1.496 18.48,-4.489 5.504,-2.992 9.875,-7.445 13.102,-13.367 3.234,-5.922 4.851,-13.187 4.851,-21.801 l -63.171,-1.082 c -0.122,-14.343 2.242,-25.535 7.089,-33.55 4.844,-8.02 12.352,-12.024 22.52,-12.024 5.504,0 11.152,1.438 16.961,4.309 5.801,2.871 10.258,6.394 13.367,10.586 l 4.309,-3.586 c -4.547,-6.942 -10.442,-12.09 -17.676,-15.43 -7.242,-3.348 -14.328,-5.027 -21.266,-5.027 -8.258,0 -15.703,1.941 -22.344,5.828"
         style="fill:#ffffff;fill-opacity:1;fill-rule:nonzero;stroke:none"
         id="path20" /><path
         d="m 843.426,211.055 c 3.465,0 5.949,0.871 7.445,2.605 1.492,1.731 2.391,3.949 2.695,6.645 0.293,2.683 0.446,6.902 0.446,12.644 v 40.914 c 0,5.024 0.238,8.91 0.715,11.664 l -12.739,-0.718 v 7.535 c 7.055,0 11.907,0.386 14.535,1.168 2.633,0.773 4.844,2 6.641,3.676 h 5.207 c 0.234,-1.793 0.473,-4.965 0.719,-9.508 3.703,3.226 7.894,5.8 12.558,7.715 4.668,1.914 9.27,2.871 13.817,2.871 5.859,0 10.859,-1.047 14.984,-3.137 4.125,-2.098 7.324,-5.059 9.602,-8.883 4.304,3.465 9.121,6.336 14.445,8.613 5.324,2.27 10.438,3.407 15.344,3.407 10.527,0 18.215,-3.203 23.058,-9.598 4.848,-6.402 7.149,-16.602 6.907,-30.598 l -0.176,-33.375 c 0,-5.379 -0.242,-9.453 -0.719,-12.207 l 11.305,0.539 v -7.351 h -36.606 v 5.379 c 3.465,0 5.95,0.871 7.446,2.605 1.496,1.731 2.394,3.949 2.691,6.645 0.297,2.683 0.449,6.902 0.449,12.644 v 25.121 c 0,10.285 -1.617,17.969 -4.843,23.059 -3.235,5.082 -8.317,7.625 -15.254,7.625 -3.711,0 -7.446,-0.805 -11.215,-2.422 -3.77,-1.613 -7.09,-3.738 -9.961,-6.371 1.195,-3.707 1.797,-8.074 1.797,-13.102 l -0.364,-42.164 c 0,-5.379 -0.238,-9.453 -0.714,-12.207 l 11.3,0.539 v -7.351 h -36.605 v 5.379 c 3.469,0 5.953,0.871 7.445,2.605 1.496,1.731 2.364,3.891 2.606,6.457 0.238,2.578 0.418,6.848 0.535,12.832 l 0.18,25.121 c 0.117,10.407 -1.375,18.184 -4.489,23.328 -3.109,5.141 -8.07,7.719 -14.89,7.719 -3.711,0 -7.387,-0.781 -11.035,-2.336 -3.653,-1.554 -6.793,-3.652 -9.422,-6.285 l 0.179,-9.683 v -46.118 c 0,-5.379 -0.242,-9.453 -0.718,-12.207 l 11.304,0.539 v -7.351 h -36.605 v 5.379"
         style="fill:#ffffff;fill-opacity:1;fill-rule:nonzero;stroke:none"
         id="path22" /><path
         d="m 1044.26,215.637 c 3.71,1.726 7.48,4.39 11.31,7.984 -0.12,1.789 -0.18,4.848 -0.18,9.152 l 0.18,16.868 c -9.81,-0.356 -18.54,-2.364 -26.2,-6.02 -7.65,-3.641 -11.48,-9.234 -11.48,-16.773 0,-4.426 1.31,-7.832 3.95,-10.227 2.62,-2.391 5.97,-3.594 10.05,-3.594 4.54,0 8.67,0.871 12.37,2.61 z m -36.51,-6.914 c -4.61,3.953 -6.91,9.09 -6.91,15.437 0,6.934 2.78,12.793 8.35,17.586 5.56,4.785 12.55,8.336 20.99,10.672 8.43,2.332 16.9,3.437 25.39,3.32 v 11.121 c 0,7.782 -1.14,13.848 -3.41,18.219 -2.27,4.367 -7.11,6.547 -14.53,6.547 -3.71,0 -7.24,-0.781 -10.59,-2.332 -3.35,-1.555 -5.8,-3.887 -7.36,-6.996 1.56,-1.676 2.33,-3.953 2.33,-6.824 0,-1.789 -0.66,-3.496 -1.97,-5.11 -1.32,-1.617 -3.23,-2.422 -5.74,-2.422 -2.52,0 -4.49,0.805 -5.92,2.422 -1.44,1.614 -2.16,3.735 -2.16,6.371 0,3.946 1.53,7.563 4.58,10.856 3.05,3.289 7.29,5.89 12.74,7.805 5.44,1.914 11.51,2.871 18.21,2.871 10.05,0 17.47,-2.664 22.26,-7.989 4.78,-5.32 7.11,-13.722 7,-25.207 l -0.18,-40.375 c 0,-3.828 -0.25,-7.898 -0.72,-12.207 l 12.74,0.727 v -7.539 h -25.66 c -0.36,1.797 -0.78,5.203 -1.26,10.222 -8.73,-8.73 -18.13,-13.093 -28.17,-13.093 -8.74,0 -15.41,1.972 -20.01,5.918"
         style="fill:#ffffff;fill-opacity:1;fill-rule:nonzero;stroke:none"
         id="path24" /><path
         d="m 1136.29,215.637 c 3.71,1.726 7.48,4.39 11.31,7.984 -0.12,1.789 -0.18,4.848 -0.18,9.152 l 0.18,16.868 c -9.81,-0.356 -18.55,-2.364 -26.2,-6.02 -7.66,-3.641 -11.49,-9.234 -11.49,-16.773 0,-4.426 1.32,-7.832 3.95,-10.227 2.63,-2.391 5.98,-3.594 10.05,-3.594 4.54,0 8.67,0.871 12.38,2.61 z m -36.51,-6.914 c -4.61,3.953 -6.91,9.09 -6.91,15.437 0,6.934 2.78,12.793 8.34,17.586 5.56,4.785 12.56,8.336 20.99,10.672 8.44,2.332 16.9,3.437 25.4,3.32 v 11.121 c 0,7.782 -1.14,13.848 -3.41,18.219 -2.27,4.367 -7.12,6.547 -14.54,6.547 -3.71,0 -7.24,-0.781 -10.59,-2.332 -3.35,-1.555 -5.8,-3.887 -7.35,-6.996 1.55,-1.676 2.33,-3.953 2.33,-6.824 0,-1.789 -0.66,-3.496 -1.97,-5.11 -1.32,-1.617 -3.24,-2.422 -5.75,-2.422 -2.51,0 -4.48,0.805 -5.92,2.422 -1.43,1.614 -2.15,3.735 -2.15,6.371 0,3.946 1.53,7.563 4.57,10.856 3.06,3.289 7.3,5.89 12.75,7.805 5.44,1.914 11.51,2.871 18.21,2.871 10.05,0 17.47,-2.664 22.25,-7.989 4.79,-5.32 7.12,-13.722 7,-25.207 l -0.18,-40.375 c 0,-3.828 -0.24,-7.898 -0.72,-12.207 l 12.74,0.727 v -7.539 h -25.65 c -0.37,1.797 -0.79,5.203 -1.26,10.222 -8.74,-8.73 -18.13,-13.093 -28.18,-13.093 -8.73,0 -15.4,1.972 -20,5.918"
         style="fill:#ffffff;fill-opacity:1;fill-rule:nonzero;stroke:none"
         id="path26" /><path
         d="m 1190.85,235.82 0.36,52.035 -13.82,-0.175 v 7.715 c 5.74,0.117 10.61,2.718 14.62,7.808 4.01,5.082 6.97,10.856 8.88,17.317 h 6.11 v -25.125 h 30.14 v -6.997 L 1207,288.035 c -0.12,-18.305 -0.21,-30.984 -0.27,-38.039 -0.06,-7.055 -0.09,-11.004 -0.09,-11.844 0,-8.496 1.01,-14.8 3.05,-18.933 2.03,-4.121 5.56,-6.192 10.58,-6.192 3.11,0 6.2,0.957 9.25,2.871 3.05,1.915 5.71,4.551 7.99,7.903 l 4.84,-3.946 c -4.67,-6.945 -9.27,-11.527 -13.82,-13.734 -4.54,-2.215 -8.97,-3.316 -13.28,-3.316 -16.39,0 -24.53,11.004 -24.4,33.015"
         style="fill:#ffffff;fill-opacity:1;fill-rule:nonzero;stroke:none"
         id="path28" /><path
         d="m 1261.16,318.098 c -1.92,2.09 -2.87,4.574 -2.87,7.445 0,2.871 0.98,5.387 2.96,7.539 1.97,2.152 4.22,3.227 6.72,3.227 2.76,0 5.06,-1.043 6.91,-3.141 1.86,-2.094 2.79,-4.637 2.79,-7.625 0,-2.871 -0.99,-5.355 -2.97,-7.445 -1.97,-2.098 -4.27,-3.141 -6.9,-3.141 -2.52,0 -4.73,1.043 -6.64,3.141 z m -11.13,-107.043 c 3.47,0 5.95,0.871 7.45,2.605 1.49,1.731 2.39,3.949 2.69,6.645 0.3,2.683 0.45,6.902 0.45,12.644 v 40.914 c 0,3.465 0.24,7.352 0.71,11.664 l -12.74,-0.718 v 7.535 c 7.06,0 12.12,0.422 15.17,1.254 3.05,0.836 5.41,2.039 7.09,3.59 h 5.2 v -72.493 c 0,-5.379 -0.24,-9.453 -0.72,-12.207 l 11.31,0.539 v -7.351 h -36.61 v 5.379"
         style="fill:#ffffff;fill-opacity:1;fill-rule:nonzero;stroke:none"
         id="path30" /><path
         d="m 1298.08,211.055 c 3.47,0 5.95,0.871 7.45,2.605 1.5,1.731 2.36,3.918 2.6,6.543 0.24,2.641 0.36,6.887 0.36,12.746 0,1.192 0.03,7.715 0.09,19.555 0.06,11.848 0.09,33.617 0.09,65.324 0,4.543 0.18,8.434 0.54,11.664 l -12.74,-0.719 v 7.536 c 7.06,0 12.11,0.421 15.16,1.261 3.05,0.832 5.41,2.032 7.09,3.586 h 5.21 v -84.883 h 7.17 l 21.89,22.969 c 4.55,4.785 8.08,7.953 10.6,9.512 l -12.21,-0.535 v 7.176 h 32.66 v -5.383 c -5.26,-0.602 -10.05,-2.512 -14.36,-5.742 -4.3,-3.231 -9.09,-7.598 -14.35,-13.102 l -14,-14.715 c 2.16,-0.961 4.04,-2.183 5.65,-3.676 1.62,-1.504 3.44,-3.492 5.48,-6.007 l 12.74,-16.329 c 0.24,-0.246 1.58,-2.062 4.03,-5.48 2.46,-3.406 5.39,-6.57 8.8,-9.512 3.41,-2.929 6.37,-4.394 8.88,-4.394 v -5.379 h -16.33 c -2.87,0 -5.56,1.258 -8.07,3.769 -2.51,2.508 -6.17,6.875 -10.95,13.094 l -7,9.871 c -2.63,3.711 -5.11,7.153 -7.44,10.324 -2.34,3.164 -4.28,5.469 -5.84,6.907 l -7.35,-0.356 v -24.59 c 0,-5.379 -0.25,-9.453 -0.72,-12.207 l 11.48,0.539 v -7.351 h -36.61 v 5.379"
         style="fill:#ffffff;fill-opacity:1;fill-rule:nonzero;stroke:none"
         id="path32" /><path
         d="m 1438.19,215.637 c 3.72,1.726 7.48,4.39 11.31,7.984 -0.12,1.789 -0.18,4.848 -0.18,9.152 l 0.18,16.868 c -9.81,-0.356 -18.54,-2.364 -26.2,-6.02 -7.65,-3.641 -11.48,-9.234 -11.48,-16.773 0,-4.426 1.31,-7.832 3.95,-10.227 2.62,-2.391 5.97,-3.594 10.05,-3.594 4.54,0 8.67,0.871 12.37,2.61 z m -36.51,-6.914 c -4.61,3.953 -6.91,9.09 -6.91,15.437 0,6.934 2.78,12.793 8.35,17.586 5.56,4.785 12.55,8.336 20.99,10.672 8.44,2.332 16.9,3.437 25.39,3.32 v 11.121 c 0,7.782 -1.13,13.848 -3.41,18.219 -2.27,4.367 -7.11,6.547 -14.53,6.547 -3.71,0 -7.24,-0.781 -10.59,-2.332 -3.35,-1.555 -5.8,-3.887 -7.36,-6.996 1.56,-1.676 2.33,-3.953 2.33,-6.824 0,-1.789 -0.66,-3.496 -1.97,-5.11 -1.32,-1.617 -3.23,-2.422 -5.74,-2.422 -2.52,0 -4.49,0.805 -5.92,2.422 -1.44,1.614 -2.16,3.735 -2.16,6.371 0,3.946 1.53,7.563 4.58,10.856 3.05,3.289 7.29,5.89 12.74,7.805 5.44,1.914 11.52,2.871 18.21,2.871 10.05,0 17.47,-2.664 22.26,-7.989 4.78,-5.32 7.11,-13.722 7,-25.207 l -0.18,-40.375 c 0,-3.828 -0.25,-7.898 -0.72,-12.207 l 12.74,0.727 v -7.539 h -25.66 c -0.36,1.797 -0.78,5.203 -1.26,10.222 -8.73,-8.73 -18.13,-13.093 -28.17,-13.093 -8.73,0 -15.41,1.972 -20.01,5.918"
         style="fill:#ffffff;fill-opacity:1;fill-rule:nonzero;stroke:none"
         id="path34" /><path
         d="m 1541.92,318.098 c -1.92,2.09 -2.88,4.574 -2.88,7.445 0,2.871 1,5.387 2.97,7.539 1.97,2.152 4.21,3.227 6.73,3.227 2.75,0 5.05,-1.043 6.91,-3.141 1.85,-2.094 2.78,-4.637 2.78,-7.625 0,-2.871 -0.99,-5.355 -2.97,-7.445 -1.97,-2.098 -4.27,-3.141 -6.9,-3.141 -2.51,0 -4.73,1.043 -6.64,3.141 z M 1512.67,159.91 c -2.4,1.914 -3.59,4.309 -3.59,7.18 0,2.394 0.75,4.394 2.24,6.015 1.5,1.614 3.44,2.422 5.83,2.422 2.51,0 4.4,-0.808 5.65,-2.422 1.26,-1.621 1.89,-3.32 1.89,-5.117 0,-0.711 -0.06,-1.258 -0.18,-1.609 1.67,-0.727 3.23,-1.086 4.67,-1.086 2.74,0 5.14,1.027 7.17,3.059 3.47,3.347 5.21,10.64 5.21,21.89 l 0.36,83.621 c 0,4.543 0.18,8.434 0.54,11.664 l -12.75,-0.718 v 7.535 c 7.18,0 12.3,0.422 15.35,1.254 3.05,0.836 5.41,2.039 7.08,3.59 h 5.21 v -92.051 c 0,-16.035 -3.11,-28.059 -9.33,-36.074 -6.22,-8.008 -14.48,-12.02 -24.77,-12.02 -4.66,0 -8.19,0.953 -10.58,2.867"
         style="fill:#ffffff;fill-opacity:1;fill-rule:nonzero;stroke:none"
         id="path36" /><path
         d="m 1614.09,215.637 c 3.71,1.726 7.47,4.39 11.31,7.984 -0.13,1.789 -0.18,4.848 -0.18,9.152 l 0.18,16.868 c -9.81,-0.356 -18.55,-2.364 -26.2,-6.02 -7.66,-3.641 -11.49,-9.234 -11.49,-16.773 0,-4.426 1.31,-7.832 3.95,-10.227 2.63,-2.391 5.98,-3.594 10.05,-3.594 4.54,0 8.67,0.871 12.38,2.61 z m -36.52,-6.914 c -4.61,3.953 -6.9,9.09 -6.9,15.437 0,6.934 2.77,12.793 8.34,17.586 5.56,4.785 12.56,8.336 20.99,10.672 8.44,2.332 16.9,3.437 25.4,3.32 v 11.121 c 0,7.782 -1.14,13.848 -3.41,18.219 -2.28,4.367 -7.12,6.547 -14.54,6.547 -3.71,0 -7.24,-0.781 -10.59,-2.332 -3.35,-1.555 -5.8,-3.887 -7.36,-6.996 1.56,-1.676 2.34,-3.953 2.34,-6.824 0,-1.789 -0.66,-3.496 -1.98,-5.11 -1.31,-1.617 -3.23,-2.422 -5.74,-2.422 -2.51,0 -4.49,0.805 -5.92,2.422 -1.44,1.614 -2.15,3.735 -2.15,6.371 0,3.946 1.52,7.563 4.57,10.856 3.05,3.289 7.3,5.89 12.75,7.805 5.43,1.914 11.51,2.871 18.21,2.871 10.05,0 17.46,-2.664 22.25,-7.989 4.78,-5.32 7.12,-13.722 7,-25.207 l -0.18,-40.375 c 0,-3.828 -0.24,-7.898 -0.72,-12.207 l 12.74,0.727 v -7.539 h -25.66 c -0.36,1.797 -0.78,5.203 -1.26,10.222 -8.73,-8.73 -18.12,-13.093 -28.17,-13.093 -8.73,0 -15.41,1.972 -20.01,5.918"
         style="fill:#ffffff;fill-opacity:1;fill-rule:nonzero;stroke:none"
         id="path38" /><path
         d="m 1730.02,205.051 c -4.67,1.492 -8.68,3.379 -12.03,5.652 l 0.72,-6.289 h -7.54 l -1.08,30.867 h 5.57 c 0.23,-4.898 1.58,-9.265 4.03,-13.093 2.45,-3.836 5.69,-6.856 9.7,-9.063 4,-2.219 8.28,-3.32 12.83,-3.32 5.14,0 9.71,1.222 13.72,3.672 4.01,2.453 6.01,5.957 6.01,10.5 0,3.347 -0.98,6.16 -2.95,8.433 -1.98,2.278 -4.43,4.16 -7.36,5.656 -2.94,1.497 -7.03,3.254 -12.29,5.293 -6.35,2.395 -11.43,4.637 -15.26,6.723 -3.83,2.09 -7.12,4.938 -9.87,8.527 -2.75,3.586 -4.13,8.133 -4.13,13.637 0,3.945 0.96,7.895 2.87,11.848 1.92,3.941 5.15,7.293 9.7,10.047 4.54,2.75 10.58,4.125 18.12,4.125 3.71,0 7.51,-0.602 11.39,-1.797 3.89,-1.196 7.51,-3.168 10.86,-5.918 l -0.36,6.816 h 7.54 v -31.398 h -5.74 c -0.36,6.933 -2.49,12.941 -6.37,18.031 -3.89,5.082 -9.36,7.625 -16.42,7.625 -5.38,0 -9.66,-1.348 -12.83,-4.035 -3.18,-2.692 -4.76,-5.895 -4.76,-9.602 0,-3.472 1.05,-6.402 3.14,-8.793 2.09,-2.394 4.69,-4.429 7.81,-6.097 3.11,-1.684 7.3,-3.532 12.56,-5.571 6.22,-2.507 11.24,-4.847 15.07,-6.996 3.83,-2.14 7.09,-4.996 9.78,-8.519 2.7,-3.524 4.04,-7.801 4.04,-12.832 0,-5.742 -1.46,-10.586 -4.39,-14.532 -2.94,-3.945 -6.77,-6.914 -11.49,-8.886 -4.73,-1.973 -9.78,-2.957 -15.16,-2.957 -5.63,0 -10.77,0.75 -15.43,2.246"
         style="fill:#ffffff;fill-opacity:1;fill-rule:nonzero;stroke:none"
         id="path40" /><path
         d="m 1797.68,235.82 0.36,52.035 -13.82,-0.175 v 7.715 c 5.75,0.117 10.62,2.718 14.63,7.808 4.01,5.082 6.97,10.856 8.88,17.317 h 6.1 v -25.125 h 30.15 v -6.997 l -30.15,-0.363 c -0.12,-18.305 -0.21,-30.984 -0.26,-38.039 -0.07,-7.055 -0.1,-11.004 -0.1,-11.844 0,-8.496 1.02,-14.8 3.05,-18.933 2.04,-4.121 5.57,-6.192 10.59,-6.192 3.11,0 6.19,0.957 9.24,2.871 3.06,1.915 5.72,4.551 7.99,7.903 l 4.85,-3.946 c -4.67,-6.945 -9.28,-11.527 -13.82,-13.734 -4.55,-2.215 -8.98,-3.316 -13.28,-3.316 -16.4,0 -24.53,11.004 -24.41,33.015"
         style="fill:#ffffff;fill-opacity:1;fill-rule:nonzero;stroke:none"
         id="path42" /><path
         d="m 1901.39,215.637 c 3.71,1.726 7.47,4.39 11.31,7.984 -0.13,1.789 -0.18,4.848 -0.18,9.152 l 0.18,16.868 c -9.81,-0.356 -18.55,-2.364 -26.2,-6.02 -7.66,-3.641 -11.49,-9.234 -11.49,-16.773 0,-4.426 1.31,-7.832 3.95,-10.227 2.63,-2.391 5.98,-3.594 10.05,-3.594 4.54,0 8.67,0.871 12.38,2.61 z m -36.52,-6.914 c -4.61,3.953 -6.91,9.09 -6.91,15.437 0,6.934 2.78,12.793 8.35,17.586 5.56,4.785 12.56,8.336 20.99,10.672 8.44,2.332 16.9,3.437 25.4,3.32 v 11.121 c 0,7.782 -1.14,13.848 -3.41,18.219 -2.28,4.367 -7.12,6.547 -14.54,6.547 -3.71,0 -7.24,-0.781 -10.59,-2.332 -3.35,-1.555 -5.8,-3.887 -7.36,-6.996 1.56,-1.676 2.34,-3.953 2.34,-6.824 0,-1.789 -0.66,-3.496 -1.98,-5.11 -1.31,-1.617 -3.23,-2.422 -5.74,-2.422 -2.51,0 -4.49,0.805 -5.92,2.422 -1.44,1.614 -2.15,3.735 -2.15,6.371 0,3.946 1.52,7.563 4.57,10.856 3.05,3.289 7.3,5.89 12.75,7.805 5.43,1.914 11.51,2.871 18.21,2.871 10.05,0 17.46,-2.664 22.25,-7.989 4.78,-5.32 7.12,-13.722 7,-25.207 l -0.18,-40.375 c 0,-3.828 -0.24,-7.898 -0.72,-12.207 l 12.74,0.727 v -7.539 h -25.66 c -0.36,1.797 -0.78,5.203 -1.26,10.222 -8.73,-8.73 -18.12,-13.093 -28.17,-13.093 -8.73,0 -15.41,1.972 -20.01,5.918"
         style="fill:#ffffff;fill-opacity:1;fill-rule:nonzero;stroke:none"
         id="path44" /><path
         d="m 1955.94,235.82 0.36,52.035 -13.81,-0.175 v 7.715 c 5.74,0.117 10.61,2.718 14.62,7.808 4.01,5.082 6.97,10.856 8.88,17.317 h 6.11 v -25.125 h 30.14 v -6.997 l -30.14,-0.363 c -0.13,-18.305 -0.21,-30.984 -0.27,-38.039 -0.07,-7.055 -0.1,-11.004 -0.1,-11.844 0,-8.496 1.02,-14.8 3.06,-18.933 2.03,-4.121 5.56,-6.192 10.58,-6.192 3.11,0 6.19,0.957 9.25,2.871 3.05,1.915 5.71,4.551 7.98,7.903 l 4.85,-3.946 c -4.67,-6.945 -9.28,-11.527 -13.82,-13.734 -4.55,-2.215 -8.98,-3.316 -13.28,-3.316 -16.39,0 -24.53,11.004 -24.41,33.015"
         style="fill:#ffffff;fill-opacity:1;fill-rule:nonzero;stroke:none"
         id="path46" /><path
         d="m 2026.26,318.098 c -1.92,2.09 -2.88,4.574 -2.88,7.445 0,2.871 0.99,5.387 2.96,7.539 1.98,2.152 4.22,3.227 6.73,3.227 2.76,0 5.06,-1.043 6.91,-3.141 1.86,-2.094 2.78,-4.637 2.78,-7.625 0,-2.871 -0.98,-5.355 -2.96,-7.445 -1.97,-2.098 -4.28,-3.141 -6.9,-3.141 -2.52,0 -4.73,1.043 -6.64,3.141 z m -11.13,-107.043 c 3.46,0 5.95,0.871 7.44,2.605 1.5,1.731 2.4,3.949 2.7,6.645 0.29,2.683 0.44,6.902 0.44,12.644 v 40.914 c 0,3.465 0.24,7.352 0.72,11.664 l -12.74,-0.718 v 7.535 c 7.06,0 12.12,0.422 15.17,1.254 3.05,0.836 5.41,2.039 7.08,3.59 h 5.21 v -72.493 c 0,-5.379 -0.24,-9.453 -0.72,-12.207 l 11.3,0.539 v -7.351 h -36.6 v 5.379"
         style="fill:#ffffff;fill-opacity:1;fill-rule:nonzero;stroke:none"
         id="path48" /><path
         d="m 2084.32,205.051 c -4.67,1.492 -8.67,3.379 -12.02,5.652 l 0.71,-6.289 h -7.53 l -1.08,30.867 h 5.56 c 0.24,-4.898 1.59,-9.265 4.04,-13.093 2.45,-3.836 5.68,-6.856 9.69,-9.063 4.01,-2.219 8.28,-3.32 12.83,-3.32 5.15,0 9.72,1.222 13.73,3.672 4.01,2.453 6.01,5.957 6.01,10.5 0,3.347 -0.99,6.16 -2.96,8.433 -1.97,2.278 -4.43,4.16 -7.36,5.656 -2.93,1.497 -7.03,3.254 -12.29,5.293 -6.34,2.395 -11.42,4.637 -15.25,6.723 -3.83,2.09 -7.12,4.938 -9.87,8.527 -2.76,3.586 -4.13,8.133 -4.13,13.637 0,3.945 0.96,7.895 2.87,11.848 1.92,3.941 5.14,7.293 9.69,10.047 4.55,2.75 10.59,4.125 18.13,4.125 3.71,0 7.5,-0.602 11.39,-1.797 3.89,-1.196 7.51,-3.168 10.86,-5.918 l -0.36,6.816 h 7.54 v -31.398 h -5.74 c -0.37,6.933 -2.49,12.941 -6.38,18.031 -3.88,5.082 -9.36,7.625 -16.42,7.625 -5.38,0 -9.66,-1.348 -12.82,-4.035 -3.18,-2.692 -4.76,-5.895 -4.76,-9.602 0,-3.472 1.04,-6.402 3.14,-8.793 2.09,-2.394 4.69,-4.429 7.81,-6.097 3.1,-1.684 7.29,-3.532 12.56,-5.571 6.22,-2.507 11.24,-4.847 15.07,-6.996 3.83,-2.14 7.09,-4.996 9.78,-8.519 2.69,-3.524 4.04,-7.801 4.04,-12.832 0,-5.742 -1.47,-10.586 -4.4,-14.532 -2.93,-3.945 -6.76,-6.914 -11.48,-8.886 -4.73,-1.973 -9.78,-2.957 -15.17,-2.957 -5.62,0 -10.76,0.75 -15.43,2.246"
         style="fill:#ffffff;fill-opacity:1;fill-rule:nonzero;stroke:none"
         id="path50" /><path
         d="m 2151.99,235.82 0.36,52.035 -13.81,-0.175 v 7.715 c 5.74,0.117 10.61,2.718 14.62,7.808 4.01,5.082 6.97,10.856 8.88,17.317 h 6.11 v -25.125 h 30.14 v -6.997 l -30.14,-0.363 c -0.13,-18.305 -0.21,-30.984 -0.27,-38.039 -0.07,-7.055 -0.1,-11.004 -0.1,-11.844 0,-8.496 1.02,-14.8 3.06,-18.933 2.03,-4.121 5.56,-6.192 10.58,-6.192 3.11,0 6.19,0.957 9.25,2.871 3.05,1.915 5.71,4.551 7.98,7.903 l 4.85,-3.946 c -4.67,-6.945 -9.28,-11.527 -13.82,-13.734 -4.55,-2.215 -8.98,-3.316 -13.28,-3.316 -16.39,0 -24.53,11.004 -24.41,33.015"
         style="fill:#ffffff;fill-opacity:1;fill-rule:nonzero;stroke:none"
         id="path52" /><path
         d="m 2222.31,318.098 c -1.92,2.09 -2.88,4.574 -2.88,7.445 0,2.871 0.99,5.387 2.96,7.539 1.98,2.152 4.22,3.227 6.73,3.227 2.76,0 5.06,-1.043 6.91,-3.141 1.86,-2.094 2.78,-4.637 2.78,-7.625 0,-2.871 -0.98,-5.355 -2.96,-7.445 -1.97,-2.098 -4.28,-3.141 -6.9,-3.141 -2.52,0 -4.74,1.043 -6.64,3.141 z m -11.13,-107.043 c 3.46,0 5.95,0.871 7.44,2.605 1.5,1.731 2.4,3.949 2.7,6.645 0.29,2.683 0.44,6.902 0.44,12.644 v 40.914 c 0,3.465 0.24,7.352 0.72,11.664 l -12.74,-0.718 v 7.535 c 7.06,0 12.12,0.422 15.17,1.254 3.05,0.836 5.41,2.039 7.08,3.59 h 5.21 v -72.493 c 0,-5.379 -0.24,-9.453 -0.72,-12.207 l 11.3,0.539 v -7.351 h -36.6 v 5.379"
         style="fill:#ffffff;fill-opacity:1;fill-rule:nonzero;stroke:none"
         id="path54" /><path
         d="m 2259.23,211.055 c 3.47,0 5.95,0.871 7.45,2.605 1.49,1.731 2.36,3.918 2.6,6.543 0.24,2.641 0.36,6.887 0.36,12.746 0,1.192 0.03,7.715 0.09,19.555 0.06,11.848 0.09,33.617 0.09,65.324 0,4.543 0.18,8.434 0.54,11.664 l -12.74,-0.719 v 7.536 c 7.05,0 12.11,0.421 15.16,1.261 3.05,0.832 5.41,2.032 7.09,3.586 h 5.2 v -84.883 h 7.18 l 21.89,22.969 c 4.55,4.785 8.08,7.953 10.59,9.512 l -12.2,-0.535 v 7.176 h 32.66 v -5.383 c -5.27,-0.602 -10.05,-2.512 -14.36,-5.742 -4.31,-3.231 -9.09,-7.598 -14.35,-13.102 l -14,-14.715 c 2.15,-0.961 4.03,-2.183 5.65,-3.676 1.62,-1.504 3.44,-3.492 5.47,-6.007 l 12.74,-16.329 c 0.24,-0.246 1.59,-2.062 4.04,-5.48 2.45,-3.406 5.39,-6.57 8.8,-9.512 3.41,-2.929 6.37,-4.394 8.88,-4.394 v -5.379 h -16.33 c -2.87,0 -5.56,1.258 -8.08,3.769 -2.51,2.508 -6.16,6.875 -10.94,13.094 l -7,9.871 c -2.63,3.711 -5.11,7.153 -7.45,10.324 -2.33,3.164 -4.27,5.469 -5.83,6.907 l -7.36,-0.356 v -24.59 c 0,-5.379 -0.24,-9.453 -0.71,-12.207 l 11.48,0.539 v -7.351 h -36.61 v 5.379"
         style="fill:#ffffff;fill-opacity:1;fill-rule:nonzero;stroke:none"
         id="path56" /><path
         d="m 2399.34,215.637 c 3.71,1.726 7.48,4.39 11.31,7.984 -0.12,1.789 -0.18,4.848 -0.18,9.152 l 0.18,16.868 c -9.81,-0.356 -18.54,-2.364 -26.2,-6.02 -7.66,-3.641 -11.49,-9.234 -11.49,-16.773 0,-4.426 1.32,-7.832 3.96,-10.227 2.62,-2.391 5.97,-3.594 10.04,-3.594 4.54,0 8.68,0.871 12.38,2.61 z m -36.51,-6.914 c -4.61,3.953 -6.91,9.09 -6.91,15.437 0,6.934 2.78,12.793 8.34,17.586 5.57,4.785 12.56,8.336 20.99,10.672 8.44,2.332 16.9,3.437 25.4,3.32 v 11.121 c 0,7.782 -1.14,13.848 -3.41,18.219 -2.27,4.367 -7.12,6.547 -14.53,6.547 -3.71,0 -7.25,-0.781 -10.59,-2.332 -3.35,-1.555 -5.81,-3.887 -7.36,-6.996 1.55,-1.676 2.33,-3.953 2.33,-6.824 0,-1.789 -0.66,-3.496 -1.97,-5.11 -1.32,-1.617 -3.23,-2.422 -5.74,-2.422 -2.52,0 -4.49,0.805 -5.93,2.422 -1.43,1.614 -2.15,3.735 -2.15,6.371 0,3.946 1.53,7.563 4.58,10.856 3.05,3.289 7.29,5.89 12.74,7.805 5.44,1.914 11.51,2.871 18.21,2.871 10.05,0 17.47,-2.664 22.25,-7.989 4.79,-5.32 7.12,-13.722 7.01,-25.207 l -0.19,-40.375 c 0,-3.828 -0.24,-7.898 -0.71,-12.207 l 12.74,0.727 v -7.539 h -25.66 c -0.36,1.797 -0.78,5.203 -1.26,10.222 -8.73,-8.73 -18.13,-13.093 -28.18,-13.093 -8.73,0 -15.4,1.972 -20,5.918"
         style="fill:#ffffff;fill-opacity:1;fill-rule:nonzero;stroke:none"
         id="path58" /><path
         d="m 448.867,115.293 c -1.918,2.102 -2.871,4.578 -2.871,7.449 0,2.871 0.988,5.383 2.961,7.539 1.973,2.153 4.219,3.235 6.727,3.235 2.754,0 5.054,-1.055 6.91,-3.145 1.855,-2.09 2.785,-4.637 2.785,-7.629 0,-2.871 -0.988,-5.347 -2.965,-7.449 -1.973,-2.09 -4.277,-3.137 -6.906,-3.137 -2.516,0 -4.731,1.047 -6.641,3.137 z M 437.738,8.25391 c 3.469,0 5.953,0.86718 7.45,2.60549 1.492,1.7304 2.39,3.9453 2.695,6.6406 0.293,2.6875 0.441,6.9023 0.441,12.6484 v 40.918 c 0,3.4649 0.242,7.3516 0.719,11.6602 l -12.738,-0.7149 v 7.5391 c 7.054,0 12.113,0.4101 15.168,1.25 3.047,0.8398 5.41,2.0312 7.082,3.5937 h 5.207 v -72.5 c 0,-5.3789 -0.239,-9.4531 -0.719,-12.207 l 11.305,0.5391 V 2.87109 h -36.61 v 5.38282"
         style="fill:#ffffff;fill-opacity:1;fill-rule:nonzero;stroke:none"
         id="path60" /><path
         d="m 486.59,8.25391 c 3.465,0 5.949,0.86718 7.445,2.60549 1.492,1.7304 2.363,3.8867 2.602,6.457 0.238,2.5781 0.422,6.8438 0.539,12.832 l 0.179,40.918 c 0,5.0195 0.239,8.9063 0.715,11.6602 l -12.738,-0.7149 v 7.5391 c 7.059,0 11.902,0.3828 14.535,1.164 2.629,0.7774 4.848,2 6.645,3.6797 h 5.199 c 0.238,-2.2773 0.477,-5.9257 0.719,-10.9492 4.066,3.586 8.703,6.4883 13.91,8.7031 5.199,2.2149 10.316,3.3204 15.34,3.3204 10.406,0 18.004,-3.2618 22.789,-9.7852 4.785,-6.5117 7.179,-16.6602 7.179,-30.4102 V 21.8945 c 0,-5.3789 -0.242,-9.4531 -0.718,-12.207 l 11.308,0.5391 V 2.87109 h -36.613 v 5.38282 c 3.473,0 5.953,0.86718 7.453,2.60549 1.492,1.7304 2.387,3.9453 2.692,6.6406 0.296,2.6875 0.449,6.9023 0.449,12.6484 v 25.125 c -0.125,10.2852 -1.797,18.0391 -5.028,23.2344 -3.23,5.2031 -8.32,7.8125 -15.253,7.8125 -4.305,0 -8.586,-1.0781 -12.833,-3.2344 -4.246,-2.1484 -7.746,-4.9609 -10.496,-8.4375 0.118,-1.3203 0.18,-3.6406 0.18,-6.9921 l -0.18,-45.7618 c 0,-5.3789 -0.242,-9.4531 -0.718,-12.207 l 11.304,0.5391 V 2.87109 H 486.59 v 5.38282"
         style="fill:#ffffff;fill-opacity:1;fill-rule:nonzero;stroke:none"
         id="path62" /><path
         d="m 614.465,2.24609 c -4.668,1.49219 -8.68,3.37891 -12.027,5.65625 l 0.718,-6.28906 h -7.535 l -1.078,30.86722 h 5.562 c 0.239,-4.9024 1.586,-9.2657 4.036,-13.0938 2.453,-3.8398 5.683,-6.8594 9.695,-9.0664 4.008,-2.21483 8.277,-3.31639 12.832,-3.31639 5.141,0 9.715,1.21875 13.723,3.67189 4.011,2.4492 6.011,5.957 6.011,10.4961 0,3.3515 -0.984,6.164 -2.957,8.4375 -1.972,2.2773 -4.429,4.1601 -7.359,5.6562 -2.934,1.4922 -7.031,3.25 -12.289,5.293 -6.344,2.3906 -11.43,4.6367 -15.254,6.7266 -3.836,2.0898 -7.121,4.9336 -9.875,8.5273 -2.754,3.582 -4.125,8.1328 -4.125,13.6328 0,3.9531 0.957,7.8985 2.871,11.8438 1.914,3.9531 5.141,7.2968 9.691,10.0507 4.547,2.754 10.586,4.129 18.125,4.129 3.708,0 7.504,-0.5977 11.391,-1.7969 3.887,-1.1914 7.512,-3.1758 10.859,-5.918 l -0.359,6.8164 h 7.539 V 63.1641 h -5.742 c -0.363,6.9453 -2.484,12.9492 -6.371,18.0351 -3.891,5.0899 -9.363,7.6289 -16.422,7.6289 -5.383,0 -9.66,-1.3476 -12.828,-4.0312 -3.176,-2.6953 -4.754,-5.8985 -4.754,-9.6094 0,-3.4687 1.043,-6.3984 3.137,-8.7891 2.09,-2.3945 4.691,-4.4257 7.808,-6.1054 3.106,-1.6719 7.293,-3.5235 12.559,-5.5547 6.223,-2.5195 11.246,-4.8555 15.074,-7.0039 3.828,-2.1602 7.09,-5 9.781,-8.5235 2.696,-3.5273 4.036,-7.8046 4.036,-12.832 0,-5.7422 -1.465,-10.5859 -4.395,-14.5312 C 653.609,7.90234 649.781,4.93359 645.059,2.96094 640.332,0.988281 635.277,0 629.895,0 624.27,0 619.129,0.753906 614.465,2.24609"
         style="fill:#ffffff;fill-opacity:1;fill-rule:nonzero;stroke:none"
         id="path64" /><path
         d="m 682.129,33.0195 0.363,52.0391 -13.82,-0.1758 v 7.7149 c 5.742,0.1171 10.617,2.7148 14.625,7.8043 4.008,5.086 6.969,10.86 8.883,17.325 h 6.101 V 92.5977 h 30.149 v -7 l -30.149,-0.3555 c -0.121,-18.3086 -0.211,-30.9844 -0.265,-38.0469 -0.067,-7.0586 -0.094,-11.0039 -0.094,-11.8437 0,-8.4961 1.016,-14.8047 3.051,-18.9336 2.031,-4.1211 5.562,-6.1914 10.586,-6.1914 3.109,0 6.191,0.957 9.242,2.8711 3.054,1.914 5.715,4.5507 7.988,7.8984 l 4.844,-3.9453 C 728.965,10.1094 724.359,5.52734 719.816,3.32031 715.27,1.10547 710.84,0 706.535,0 690.145,0 682.008,11.0078 682.129,33.0195"
         style="fill:#ffffff;fill-opacity:1;fill-rule:nonzero;stroke:none"
         id="path66" /><path
         d="m 752.441,115.293 c -1.918,2.102 -2.871,4.578 -2.871,7.449 0,2.871 0.989,5.383 2.961,7.539 1.973,2.153 4.219,3.235 6.727,3.235 2.754,0 5.055,-1.055 6.91,-3.145 1.855,-2.09 2.781,-4.637 2.781,-7.629 0,-2.871 -0.984,-5.347 -2.961,-7.449 -1.972,-2.09 -4.277,-3.137 -6.906,-3.137 -2.512,0 -4.73,1.047 -6.641,3.137 z M 741.316,8.25391 c 3.465,0 5.95,0.86718 7.446,2.60549 1.492,1.7304 2.39,3.9453 2.695,6.6406 0.293,2.6875 0.445,6.9023 0.445,12.6484 v 40.918 c 0,3.4649 0.239,7.3516 0.715,11.6602 l -12.738,-0.7149 v 7.5391 c 7.055,0 12.113,0.4101 15.168,1.25 3.047,0.8398 5.406,2.0312 7.082,3.5937 h 5.207 v -72.5 c 0,-5.3789 -0.238,-9.4531 -0.719,-12.207 l 11.305,0.5391 V 2.87109 h -36.606 v 5.38282"
         style="fill:#ffffff;fill-opacity:1;fill-rule:nonzero;stroke:none"
         id="path68" /><path
         d="m 796.227,33.0195 0.363,52.0391 -13.82,-0.1758 v 7.7149 c 5.742,0.1171 10.617,2.7148 14.625,7.8043 4.007,5.086 6.964,10.86 8.882,17.325 h 6.102 V 92.5977 h 30.148 v -7 l -30.148,-0.3555 c -0.121,-18.3086 -0.211,-30.9844 -0.27,-38.0469 -0.062,-7.0586 -0.089,-11.0039 -0.089,-11.8437 0,-8.4961 1.011,-14.8047 3.05,-18.9336 2.032,-4.1211 5.563,-6.1914 10.586,-6.1914 3.11,0 6.192,0.957 9.242,2.8711 3.051,1.914 5.711,4.5507 7.989,7.8984 l 4.843,-3.9453 C 843.063,10.1094 838.457,5.52734 833.91,3.32031 829.367,1.10547 824.938,0 820.633,0 804.238,0 796.105,11.0078 796.227,33.0195"
         style="fill:#ffffff;fill-opacity:1;fill-rule:nonzero;stroke:none"
         id="path70" /><path
         d="m 871.867,8.78906 c -4.726,5.85934 -7.09,15.97654 -7.09,30.33204 v 31.9453 c 0,5.0195 0.239,8.9063 0.715,11.6602 l -12.375,-0.5391 v 7.3633 h 5.563 c 4.66,0 8.191,0.4101 10.586,1.25 2.39,0.8398 4.422,2.0312 6.101,3.5937 h 5.203 V 39.6563 c 0,-10.5235 1.461,-18.2383 4.399,-23.1407 2.929,-4.914 7.804,-7.36326 14.621,-7.36326 4.426,0 8.765,1.31646 13.015,3.94536 4.243,2.6367 7.684,5.9257 10.317,9.8711 v 46.125 c 0,5.6132 0.297,10.164 0.898,13.6328 l -12.922,-0.5391 v 7.3633 h 5.563 c 4.664,0 8.191,0.4101 10.586,1.25 2.394,0.8398 4.426,2.0312 6.105,3.5937 h 5.203 l -0.179,-67.832 c 0,-6.9453 -0.246,-12.5703 -0.719,-16.875 l 12.922,0.7227 V 2.87109 h -25.66 C 924.117,6.58203 923.695,10.168 923.457,13.6445 919.512,9.6875 914.902,6.42578 909.641,3.85938 904.375,1.28906 899.234,0 894.211,0 884.039,0 876.594,2.92969 871.867,8.78906"
         style="fill:#ffffff;fill-opacity:1;fill-rule:nonzero;stroke:none"
         id="path72" /><path
         d="m 973.629,8.78906 c -4.727,5.85934 -7.09,15.97654 -7.09,30.33204 v 31.9453 c 0,5.0195 0.238,8.9063 0.719,11.6602 l -12.379,-0.5391 v 7.3633 h 5.562 c 4.664,0 8.192,0.4101 10.586,1.25 2.391,0.8398 4.422,2.0312 6.102,3.5937 h 5.207 V 39.6563 c 0,-10.5235 1.461,-18.2383 4.394,-23.1407 2.93,-4.914 7.805,-7.36326 14.62,-7.36326 4.43,0 8.77,1.31646 13.02,3.94536 4.24,2.6367 7.68,5.9257 10.31,9.8711 v 46.125 c 0,5.6132 0.3,10.164 0.9,13.6328 l -12.92,-0.5391 v 7.3633 h 5.56 c 4.67,0 8.2,0.4101 10.59,1.25 2.39,0.8398 4.42,2.0312 6.1,3.5937 h 5.21 l -0.18,-67.832 c 0,-6.9453 -0.25,-12.5703 -0.72,-16.875 l 12.92,0.7227 V 2.87109 h -25.66 c -0.6,3.71094 -1.02,7.29691 -1.26,10.77341 -3.94,-3.957 -8.55,-7.21872 -13.82,-9.78512 C 1006.14,1.28906 1001,0 995.973,0 985.801,0 978.355,2.92969 973.629,8.78906"
         style="fill:#ffffff;fill-opacity:1;fill-rule:nonzero;stroke:none"
         id="path74" /><path
         d="m 1069.36,33.0195 0.36,52.0391 -13.82,-0.1758 v 7.7149 c 5.75,0.1171 10.62,2.7148 14.63,7.8043 4.01,5.086 6.97,10.86 8.88,17.325 h 6.1 V 92.5977 h 30.15 v -7 l -30.15,-0.3555 c -0.12,-18.3086 -0.21,-30.9844 -0.26,-38.0469 -0.07,-7.0586 -0.1,-11.0039 -0.1,-11.8437 0,-8.4961 1.02,-14.8047 3.05,-18.9336 2.04,-4.1211 5.57,-6.1914 10.59,-6.1914 3.11,0 6.19,0.957 9.24,2.8711 3.06,1.914 5.72,4.5507 7.99,7.8984 l 4.85,-3.9453 C 1116.2,10.1094 1111.59,5.52734 1107.05,3.32031 1102.5,1.10547 1098.07,0 1093.77,0 c -16.4,0 -24.53,11.0078 -24.41,33.0195"
         style="fill:#ffffff;fill-opacity:1;fill-rule:nonzero;stroke:none"
         id="path76" /><path
         d="m 517.938,499.563 c -0.325,0.976 -1.188,2.117 -3.372,2.117 -0.679,0 -1.257,-0.395 -1.746,-1.16 -0.336,-0.516 -0.73,-1.094 -1.199,-1.75 -0.469,-0.606 -1,-1.188 -1.637,-1.727 -0.55,-0.488 -1.254,-0.793 -2.07,-0.926 -1.203,-0.164 -2.437,-0.262 -3.68,-0.301 -5.332,-0.168 -10.355,-0.074 -15.179,-0.191 -8.2,-0.184 -17.278,-0.164 -26.575,0.063 -5.05,0.128 -10.152,0.312 -15.128,0.562 -1.094,0.074 -1.938,0.305 -2.524,0.727 -0.633,0.441 -1.14,0.91 -1.515,1.378 -0.399,0.528 -0.739,0.997 -1.016,1.391 -0.543,0.793 -1.223,0.957 -1.676,0.957 -1.262,0 -2.258,-0.355 -2.988,-1.031 -0.653,-0.606 -1.16,-1.391 -1.485,-2.328 -0.312,-0.883 -0.523,-1.883 -0.582,-2.953 l -0.05,-0.395 c -0.075,-0.887 -0.137,-1.726 -0.211,-2.516 -0.414,-4.214 -0.934,-7.519 -1.578,-9.808 -0.68,-2.422 -1.032,-4.328 -1.032,-5.813 0,-1.175 0.305,-1.957 0.914,-2.425 0.551,-0.446 1.297,-0.676 2.329,-0.676 0.644,0 1.281,0.574 2.187,2.101 0.73,1.207 1.465,2.528 2.195,3.922 0.735,1.453 1.434,2.824 2.098,4.16 0.781,1.528 1.23,2.161 1.437,2.372 1.559,1.484 3.192,2.484 4.813,2.972 1.711,0.52 3.477,0.77 5.293,0.77 h 7.648 c 1.922,0 3.743,-0.133 5.45,-0.418 1.964,-0.321 2.179,-0.864 2.207,-0.957 0.089,-0.442 0.14,-1.446 0.164,-2.172 0.039,-1.078 0.058,-1.832 0.058,-2.246 v -59.735 c 0,-2.257 -0.113,-4.172 -0.34,-5.679 -0.242,-1.426 -0.699,-2.633 -1.355,-3.571 -0.652,-0.914 -1.648,-1.629 -2.93,-2.136 -1.394,-0.563 -3.254,-0.957 -5.668,-1.211 -0.156,-0.051 -0.531,-0.094 -1.418,-0.094 -0.902,0 -1.785,-0.168 -2.629,-0.5 -0.726,-0.293 -1.582,-0.977 -1.582,-2.633 0,-1.82 1.211,-2.16 1.719,-2.199 0.727,-0.098 1.445,-0.149 2.117,-0.149 3.008,0 5.993,0.094 8.907,0.313 6.004,0.437 12.48,0.398 18.511,0 3.235,-0.219 6.543,-0.313 9.868,-0.313 1.074,0 1.933,0.051 2.593,0.149 0.996,0.133 1.504,1.09 1.504,2.836 0,0.82 -0.359,2.183 -2.836,2.465 l -4.886,0.562 c -1.708,0.188 -3.352,0.672 -4.946,1.426 -1.422,0.676 -2.273,1.996 -2.648,4.066 -0.239,1.278 -0.399,2.571 -0.414,3.848 -0.055,1.309 -0.075,2.609 -0.075,3.906 0.165,7.25 0.145,14.563 -0.074,21.758 -0.176,7.145 -0.211,14.461 -0.039,21.695 l 0.227,15.071 c 0,1.84 0.117,3.226 0.308,4.101 0.211,1.047 0.504,1.446 0.649,1.61 0.187,0.187 0.355,0.257 0.695,0.277 1.094,-0.09 2.258,-0.09 4.172,-0.02 2.289,0.114 5.355,0.094 8.496,-0.125 1.895,-0.113 3.57,-0.324 5.18,-0.601 1.547,-0.27 2.933,-0.699 4.043,-1.277 1,-0.536 1.699,-1.207 2.051,-2 0.441,-1.141 0.632,-2.383 0.562,-3.637 -0.074,-1.395 -0.187,-2.684 -0.305,-3.863 -0.14,-1.254 -0.109,-2.336 0.067,-3.204 0.144,-0.644 0.652,-1.757 2.472,-1.757 1.094,0 2.579,0.554 3.371,3.257 0.543,1.813 0.985,4.024 1.27,6.543 0.27,2.465 0.531,5.036 0.734,7.622 0.211,2.507 0.582,4.539 1.125,6.023 0.395,1.074 0.368,2.234 -0.046,3.477"
         style="fill:#ffffff;fill-opacity:1;fill-rule:nonzero;stroke:none"
         id="path78" /><path
         d="m 571.152,452.691 c -0.129,-0.054 -0.277,-0.093 -0.371,-0.136 -5.051,0 -8.988,-0.032 -11.781,-0.075 -2.844,-0.054 -4.93,-0.054 -6.34,-0.054 h -2.211 c 1.465,3.476 2.684,6.387 3.629,8.699 1.074,2.559 2.027,4.867 2.871,6.938 0.813,2.046 1.621,4.023 2.446,5.957 0.675,1.539 1.421,3.304 2.304,5.316 0.168,-0.469 0.399,-1.074 0.68,-1.863 0.699,-1.973 1.527,-4.375 2.539,-7.219 0.977,-2.848 2.047,-5.899 3.215,-9.16 1.047,-2.953 2.043,-5.75 3.019,-8.403 m 39.993,-41.714 c -1.032,0.312 -2.219,0.589 -3.536,0.82 -1.289,0.238 -2.593,0.601 -3.89,1.094 -1.172,0.425 -2.082,1.3 -2.735,2.699 -4.164,8.668 -8.195,17.496 -11.972,26.25 -3.703,8.613 -7.332,17.578 -10.848,26.668 -1.894,4.68 -3.816,9.453 -5.789,14.32 -1.988,4.848 -3.922,9.617 -5.805,14.293 -0.187,0.469 -0.468,0.957 -0.84,1.473 -0.468,0.656 -1.148,0.976 -1.96,0.976 -0.922,0 -1.555,-0.238 -1.903,-0.746 -0.258,-0.351 -0.465,-0.793 -0.656,-1.32 -3.047,-7.481 -6.082,-14.934 -9.129,-22.344 -3.059,-7.402 -6.094,-14.855 -9.133,-22.347 l -5.375,-13.145 c -1.726,-4.234 -3.496,-8.66 -5.246,-13.137 -0.258,-0.57 -0.598,-1.488 -1.039,-2.668 -0.465,-1.199 -0.957,-2.402 -1.492,-3.609 -0.531,-1.238 -1.051,-2.406 -1.539,-3.516 -0.606,-1.386 -0.891,-1.875 -1.055,-2.058 -0.621,-1.004 -1.39,-1.649 -2.223,-1.926 -1.007,-0.313 -1.957,-0.543 -2.894,-0.699 -1.023,-0.196 -1.871,-0.442 -2.606,-0.821 -0.625,-0.32 -1.398,-1.074 -1.398,-2.765 0,-0.656 0.18,-1.274 0.563,-1.797 0.437,-0.625 1.093,-0.957 1.902,-0.957 1.914,0 3.664,0.121 5.246,0.332 3.59,0.484 8.422,0.375 12.969,-0.113 2.742,-0.305 5.476,-0.45 8.097,-0.45 0.84,0 1.614,0.301 2.239,0.864 0.656,0.601 0.988,1.371 0.988,2.238 0,1.574 -0.914,2.648 -2.57,3.027 -1.321,0.278 -2.797,0.504 -4.473,0.692 -1.539,0.136 -2.93,0.468 -4.188,0.937 -0.625,0.231 -1.492,0.758 -1.492,2.633 0,0.133 0.075,0.758 0.774,3.25 0.558,1.887 1.277,4.27 2.164,7.012 0.902,2.801 1.996,5.918 3.265,9.269 1.188,3.242 2.536,6.571 3.95,9.93 0.957,0.176 2.125,0.324 3.515,0.398 3.266,0.157 6.707,0.137 9.809,0.063 1.633,-0.043 2.93,-0.063 3.906,-0.063 h 2.363 c 1.344,0 2.696,-0.074 3.996,-0.191 1.122,-0.102 1.954,-0.426 2.524,-0.953 0,0 0.137,-0.192 0.488,-1 0.293,-0.676 0.649,-1.426 1.039,-2.219 1.242,-2.961 2.457,-5.844 3.59,-8.641 1.149,-2.796 2.188,-5.332 3.082,-7.632 l 2.348,-5.993 c 0.644,-1.648 1.094,-2.89 1.371,-3.812 0.062,-0.219 0.137,-0.449 0.211,-0.68 0.074,-0.211 0.094,-0.422 0.094,-0.613 0,-1.34 -0.625,-1.695 -1.188,-1.852 -1.101,-0.312 -2.348,-0.515 -3.73,-0.582 -1.489,-0.089 -2.825,-0.218 -3.938,-0.375 -2.062,-0.296 -2.398,-1.613 -2.398,-2.359 0,-0.957 0.41,-1.785 1.144,-2.41 0.696,-0.637 1.539,-0.938 2.477,-0.938 2.91,0 5.793,0.114 8.629,0.375 4.691,0.414 9.625,0.602 14.343,0 2.008,-0.23 4.036,-0.375 6.043,-0.375 h 1.34 c 0.887,0 1.824,0.164 2.781,0.469 1.575,0.527 1.805,1.656 1.805,2.254 0,1.395 -0.719,2.402 -2.015,2.77"
         style="fill:#ffffff;fill-opacity:1;fill-rule:nonzero;stroke:none"
         id="path80" /><path
         d="m 675.758,463.293 c -1.149,-2.375 -2.703,-4.289 -4.684,-5.641 -1.996,-1.371 -4.418,-2.328 -7.164,-2.836 -2.847,-0.515 -5.926,-0.8 -9.137,-0.8 -1.398,0 -2.429,0.121 -3.031,0.332 -0.625,0.238 -0.808,0.558 -0.883,0.789 -0.187,0.488 -0.261,1.125 -0.207,1.859 0.051,0.895 0.071,1.934 0.071,3.195 0,3.286 0.019,6.989 0.113,11.082 0.074,4.122 0.117,7.832 0.117,11.129 v 4.196 c 0,1.777 0.395,3.129 1.188,4.011 0.515,0.582 1.816,1.282 5.101,1.282 2.934,0 5.68,-0.414 8.156,-1.262 2.434,-0.82 4.563,-2.051 6.332,-3.66 1.774,-1.602 3.184,-3.629 4.196,-5.977 1.019,-2.375 1.527,-5.172 1.527,-8.344 0,-3.816 -0.551,-6.953 -1.695,-9.355 m 35.89,-58.223 c -0.886,0.188 -1.769,0.489 -2.781,0.926 -3.304,0.699 -6.258,2.211 -8.773,4.449 -2.594,2.289 -4.942,5.004 -7.051,8.063 -2.105,3.097 -4.039,6.402 -5.73,9.847 -1.75,3.497 -3.352,6.801 -4.891,9.942 -1.547,3.172 -3.102,5.918 -4.617,8.172 -1.184,1.75 -2.422,3.082 -3.723,3.914 1.75,0.883 3.492,1.863 5.238,2.988 2.219,1.418 4.235,3.067 6.059,4.934 1.82,1.867 3.328,3.984 4.449,6.316 1.156,2.352 1.746,4.93 1.746,7.656 0,4.961 -0.957,9.129 -2.828,12.364 -1.859,3.211 -4.215,5.804 -7.012,7.718 -2.785,1.879 -5.808,3.211 -9.023,3.93 -3.152,0.695 -6.184,1.07 -8.926,1.07 -3.191,0 -6.387,-0.074 -9.472,-0.187 -3.102,-0.117 -6.27,-0.188 -9.415,-0.188 h -10.73 c -0.887,0 -1.801,0.051 -2.727,0.118 -1.953,0.164 -3.793,0.238 -5.66,-0.176 -0.726,-0.192 -1.886,-0.781 -1.886,-2.801 0,-1.047 0.539,-1.82 1.464,-2.172 0.727,-0.273 1.664,-0.457 2.758,-0.551 1.016,-0.074 2.11,-0.168 3.27,-0.238 1.086,-0.086 2.105,-0.305 3.082,-0.644 0.883,-0.313 1.582,-0.848 2.164,-1.657 0.562,-0.773 0.84,-1.894 0.84,-3.379 0,-6.894 -0.071,-13.906 -0.188,-20.843 -0.109,-7.008 -0.183,-14.051 -0.183,-20.871 v -25.43 c 0,-1.582 -0.286,-2.789 -0.868,-3.652 -0.578,-0.915 -1.332,-1.586 -2.254,-2.118 -0.957,-0.507 -1.976,-0.886 -3.054,-1.07 -1.133,-0.211 -2.231,-0.395 -3.238,-0.562 -1.071,-0.157 -1.954,-0.375 -2.653,-0.586 -0.957,-0.301 -1.508,-0.997 -1.508,-1.879 0,-1.5 0.25,-2.313 0.832,-2.688 0.457,-0.301 1.239,-0.414 2.516,-0.414 2.578,0 5.172,0.113 7.668,0.375 5.301,0.508 10.785,0.469 16.199,-0.07 2.953,-0.285 5.985,-0.449 8.965,-0.449 1.731,0 3.008,0.144 3.945,0.425 0.789,0.227 1.746,0.926 1.746,2.821 0,0.976 -0.519,1.691 -1.402,1.953 -0.625,0.183 -1.324,0.281 -2.07,0.281 -0.488,0 -0.645,0.039 -0.645,0.039 l -0.203,0.055 c -1.765,0.344 -3.23,0.601 -4.488,0.765 -1.219,0.137 -2.258,0.442 -3.141,0.911 -0.793,0.414 -1.426,1.07 -1.894,2.007 -0.489,0.946 -0.719,2.465 -0.719,4.461 v 25.426 c 0,2.41 0.281,3.297 0.469,3.59 0.074,0.144 0.488,0.613 2.351,0.613 2.785,0 5.149,-0.699 7.035,-2.07 1.93,-1.445 3.657,-3.266 5.125,-5.449 1.485,-2.196 2.836,-4.711 4.004,-7.457 1.184,-2.77 2.496,-5.547 3.868,-8.133 2.515,-6.488 6.218,-12.059 10.992,-16.578 4.812,-4.512 10.879,-7.426 17.992,-8.715 0.59,-0.063 1.308,-0.156 2.152,-0.231 0.832,-0.093 1.676,-0.132 2.539,-0.132 2.141,0 3.668,0.187 4.7,0.539 l 0.281,0.175 c 0.886,0.883 1.32,1.672 1.32,2.383 0,0.645 -0.25,1.789 -2.016,2.164"
         style="fill:#ffffff;fill-opacity:1;fill-rule:nonzero;stroke:none"
         id="path82" /><path
         d="m 796.422,501.68 c -0.676,0 -1.277,-0.395 -1.746,-1.168 -0.332,-0.508 -0.731,-1.086 -1.184,-1.746 -0.469,-0.602 -1.031,-1.184 -1.637,-1.723 -0.55,-0.48 -1.257,-0.793 -2.07,-0.93 -1.215,-0.164 -2.461,-0.258 -3.68,-0.297 -5.332,-0.168 -10.367,-0.074 -15.179,-0.191 -8.199,-0.184 -17.313,-0.164 -26.574,0.074 -5.055,0.117 -10.153,0.301 -15.149,0.551 -1.086,0.074 -1.922,0.313 -2.512,0.719 -0.644,0.457 -1.132,0.914 -1.507,1.383 -0.399,0.531 -0.75,1 -1.032,1.394 -0.527,0.793 -1.207,0.957 -1.675,0.957 -1.247,0 -2.254,-0.355 -2.973,-1.031 -0.656,-0.606 -1.164,-1.395 -1.496,-2.317 -0.301,-0.894 -0.512,-1.894 -0.606,-2.964 l -0.05,-0.739 c -0.059,-0.75 -0.106,-1.468 -0.176,-2.175 -0.426,-4.211 -0.957,-7.516 -1.594,-9.797 -0.664,-2.403 -1.016,-4.356 -1.016,-5.825 0,-1.164 0.297,-1.964 0.903,-2.421 0.562,-0.434 1.308,-0.676 2.332,-0.676 0.652,0 1.277,0.582 2.191,2.09 0.719,1.218 1.457,2.535 2.188,3.941 0.746,1.445 1.445,2.816 2.09,4.141 0.781,1.539 1.234,2.172 1.453,2.379 1.558,1.488 3.183,2.5 4.816,2.976 1.695,0.52 3.477,0.77 5.293,0.77 h 7.621 c 1.949,0 3.754,-0.137 5.465,-0.418 1.973,-0.321 2.191,-0.864 2.199,-0.957 0.094,-0.434 0.149,-1.434 0.168,-2.16 0.043,-1.094 0.074,-1.844 0.074,-2.258 v -59.735 c 0,-2.238 -0.113,-4.175 -0.371,-5.695 -0.211,-1.41 -0.679,-2.629 -1.351,-3.555 -0.66,-0.902 -1.629,-1.629 -2.938,-2.144 -1.371,-0.563 -3.246,-0.957 -5.633,-1.203 -0.168,-0.051 -0.562,-0.106 -1.418,-0.106 -0.918,0 -1.8,-0.156 -2.64,-0.488 -0.719,-0.301 -1.582,-0.977 -1.582,-2.621 0,-1.82 1.195,-2.164 1.726,-2.219 0.719,-0.09 1.45,-0.141 2.121,-0.141 3.008,0 5.981,0.094 8.891,0.297 6.012,0.453 12.492,0.399 18.516,0 3.234,-0.203 6.55,-0.297 9.879,-0.297 1.07,0 1.933,0.051 2.578,0.141 1,0.141 1.5,1.098 1.5,2.844 0,0.812 -0.352,2.191 -2.817,2.476 l -4.89,0.551 c -1.707,0.188 -3.383,0.672 -4.942,1.422 -1.425,0.668 -2.273,1.996 -2.66,4.074 -0.25,1.282 -0.394,2.563 -0.422,3.84 -0.039,1.305 -0.054,2.613 -0.054,3.91 0.156,7.25 0.128,14.563 -0.075,21.75 -0.191,7.246 -0.211,14.559 -0.054,21.715 l 0.238,15.067 c 0,1.832 0.117,3.203 0.305,4.101 0.211,1.039 0.507,1.445 0.652,1.602 0.187,0.187 0.324,0.207 0.699,0.277 1.071,-0.09 2.254,-0.09 4.16,-0.027 2.286,0.121 5.332,0.101 8.504,-0.11 1.864,-0.109 3.59,-0.332 5.172,-0.609 1.559,-0.281 2.93,-0.699 4.024,-1.277 1.031,-0.536 1.722,-1.207 2.082,-2 0.433,-1.141 0.625,-2.383 0.55,-3.633 -0.082,-1.399 -0.191,-2.68 -0.293,-3.867 -0.144,-1.258 -0.121,-2.329 0.063,-3.192 0.148,-0.656 0.656,-1.769 2.469,-1.769 1.101,0 2.586,0.562 3.379,3.257 0.539,1.821 0.957,4.036 1.257,6.543 0.278,2.473 0.528,5.032 0.739,7.614 0.195,2.523 0.582,4.539 1.121,6.031 0.394,1.078 0.379,2.234 -0.051,3.469 -0.324,0.984 -1.176,2.125 -3.371,2.125"
         style="fill:#ffffff;fill-opacity:1;fill-rule:nonzero;stroke:none"
         id="path84" /><path
         d="m 907.73,496.945 -0.257,0.047 c -2.188,0 -4.453,-0.074 -6.7,-0.183 -4.246,-0.243 -8.808,-0.282 -13.05,0.043 -2.231,0.183 -4.422,0.257 -6.543,0.257 -0.7,0 -1.395,-0.093 -2.047,-0.293 -0.543,-0.121 -1.426,-0.625 -1.426,-2.203 0,-1.765 0.859,-2.629 1.559,-3.047 0.843,-0.492 1.89,-0.863 3.078,-1.082 1.125,-0.195 2.258,-0.394 3.433,-0.55 0.996,-0.133 1.809,-0.508 2.434,-1.071 0.578,-0.523 1.027,-1.613 1.234,-3.164 0.254,-1.722 0.375,-3.711 0.375,-5.894 0,-2.215 -0.054,-4.492 -0.121,-6.875 -0.09,-2.391 -0.136,-4.535 -0.136,-6.45 v -26.406 c 0,-2.402 -0.231,-4.75 -0.719,-7.043 -0.719,-4.086 -1.746,-7.578 -3.028,-10.355 -1.257,-2.742 -2.933,-5 -4.941,-6.731 -2.008,-1.726 -4.473,-2.98 -7.328,-3.734 -2.938,-0.758 -6.5,-1.133 -10.629,-1.133 -3.445,0 -6.617,0.344 -9.426,1.074 -2.754,0.696 -5.144,1.973 -7.152,3.778 -2.008,1.804 -3.652,4.324 -4.867,7.492 -1.262,3.203 -2.051,7.355 -2.375,12.359 -0.141,2.496 -0.258,5.055 -0.297,7.621 -0.024,2.559 -0.055,5.098 -0.055,7.645 v 22.723 c 0,1.214 0.031,2.539 0.055,3.91 0.039,1.425 0.133,2.781 0.258,4.039 0.101,1.301 0.25,2.484 0.414,3.535 0.156,0.996 0.343,1.769 0.554,2.277 0.489,1.121 1.278,1.821 2.418,2.16 1.336,0.399 2.707,0.731 4.059,0.993 1.426,0.226 2.726,0.527 3.84,0.882 1.445,0.418 2.246,1.465 2.246,2.93 0,1.281 -0.801,2.125 -2.137,2.356 -1.066,0.183 -1.898,0.257 -2.594,0.257 -2.875,0 -5.734,-0.117 -8.531,-0.375 -5.238,-0.468 -10.754,-0.519 -16.137,0 -2.632,0.258 -5.285,0.375 -7.918,0.375 -2.05,0 -3.246,-1.121 -3.246,-3.101 0,-0.82 0.356,-1.516 1.012,-1.977 0.527,-0.371 1.16,-0.652 1.914,-0.801 0.645,-0.132 1.277,-0.222 1.953,-0.25 0.625,-0.039 1.141,-0.07 1.582,-0.07 h 1.352 c 1.445,0 2.484,-0.371 3.215,-1.109 0.789,-0.844 1.332,-1.801 1.672,-2.988 0.351,-1.188 0.562,-2.516 0.582,-3.942 0.043,-1.465 0.074,-2.789 0.074,-3.93 0,-7.011 -0.094,-13.968 -0.262,-20.707 -0.164,-6.824 -0.226,-13.8 -0.226,-20.769 v -4.563 c 0,-0.754 0.019,-1.511 0.039,-2.257 0.05,-0.774 0.125,-1.52 0.187,-2.27 0.512,-4.855 1.75,-8.957 3.715,-12.148 1.922,-3.215 4.461,-5.821 7.519,-7.782 2.997,-1.929 6.489,-3.304 10.36,-4.113 3.812,-0.801 7.91,-1.195 12.133,-1.195 3.515,0 7.218,0.277 10.972,0.808 3.746,0.543 7.399,1.5 10.914,2.817 4.051,1.613 7.227,3.941 9.461,6.929 2.184,2.93 3.84,6.282 4.938,9.914 1.074,3.657 1.719,7.504 1.93,11.489 0.214,3.953 0.296,7.801 0.296,11.375 0,2.238 0,4.484 -0.039,6.691 -0.043,2.211 -0.074,4.418 -0.074,6.664 0,2.465 -0.019,5.348 -0.043,8.645 -0.051,3.273 -0.051,6.449 0,9.472 0.024,3.028 0.156,5.676 0.418,7.895 0.332,2.934 0.832,3.305 0.863,3.328 0.188,0.113 0.696,0.324 2.121,0.508 1.227,0.168 2.516,0.406 3.84,0.699 1.379,0.313 2.606,0.727 3.61,1.234 1.582,0.774 1.914,1.934 1.914,2.782 0,0.808 -0.399,1.902 -2.239,2.558"
         style="fill:#ffffff;fill-opacity:1;fill-rule:nonzero;stroke:none"
         id="path86" /><path
         d="m 1020.47,505.629 c 0.18,-0.125 0.44,-0.164 0.74,-0.164 2.17,0 4.01,0.703 5.51,2.047 1.52,1.371 2.29,3.234 2.29,5.5 0,2.09 -0.73,3.84 -2.09,5.203 -1.38,1.289 -3.13,1.961 -5.22,1.961 -2.17,0 -3.96,-0.692 -5.36,-2.067 -1.37,-1.375 -2.08,-3.117 -2.08,-5.214 0,-1.817 0.58,-3.45 1.73,-4.864 1.12,-1.386 2.63,-2.195 4.48,-2.402"
         style="fill:#ffffff;fill-opacity:1;fill-rule:nonzero;stroke:none"
         id="path88" /><path
         d="m 996.148,505.605 c 1.977,0 3.754,0.625 5.242,1.879 1.54,1.317 2.3,3.063 2.3,5.153 0,1.914 -0.68,3.656 -2.04,5.199 -1.38,1.559 -3.099,2.352 -5.127,2.352 -2.07,0 -3.918,-0.711 -5.449,-2.102 -1.562,-1.414 -2.351,-3.203 -2.351,-5.301 0,-2.125 0.761,-3.875 2.234,-5.203 1.438,-1.32 3.184,-1.977 5.191,-1.977"
         style="fill:#ffffff;fill-opacity:1;fill-rule:nonzero;stroke:none"
         id="path90" /><path
         d="m 1051.2,496.945 -0.26,0.047 c -2.18,0 -4.45,-0.074 -6.7,-0.183 -4.24,-0.243 -8.8,-0.282 -13.04,0.043 -2.23,0.183 -4.43,0.257 -6.55,0.257 -0.69,0 -1.39,-0.093 -2.05,-0.293 -0.54,-0.121 -1.42,-0.625 -1.42,-2.203 0,-1.789 0.86,-2.648 1.57,-3.047 0.83,-0.492 1.88,-0.863 3.07,-1.082 1.12,-0.195 2.25,-0.394 3.43,-0.55 1,-0.133 1.81,-0.508 2.43,-1.071 0.6,-0.523 1.03,-1.613 1.24,-3.164 0.26,-1.722 0.37,-3.711 0.37,-5.894 0,-2.215 -0.04,-4.492 -0.11,-6.875 -0.09,-2.391 -0.15,-4.535 -0.15,-6.45 v -26.406 c 0,-2.402 -0.23,-4.75 -0.71,-7.043 -0.72,-4.086 -1.75,-7.578 -3.03,-10.355 -1.26,-2.742 -2.93,-5 -4.94,-6.731 -2.01,-1.726 -4.47,-2.98 -7.33,-3.734 -2.95,-0.758 -6.52,-1.133 -10.63,-1.133 -3.44,0 -6.605,0.344 -9.421,1.074 -2.758,0.696 -5.153,1.973 -7.156,3.778 -2.008,1.804 -3.649,4.324 -4.872,7.492 -1.253,3.203 -2.043,7.355 -2.367,12.359 -0.144,2.496 -0.261,5.055 -0.301,7.621 -0.031,2.559 -0.054,5.098 -0.054,7.645 v 22.723 c 0,1.214 0.023,2.539 0.054,3.91 0.04,1.406 0.145,2.726 0.247,4.039 0.117,1.301 0.257,2.484 0.425,3.535 0.157,0.996 0.348,1.769 0.586,2.277 0.453,1.121 1.246,1.821 2.395,2.16 1.328,0.399 2.699,0.731 4.051,0.993 1.418,0.226 2.722,0.527 3.839,0.882 1.446,0.418 2.247,1.465 2.247,2.93 0,1.281 -0.801,2.125 -2.145,2.356 -1.051,0.183 -1.891,0.257 -2.59,0.257 -2.859,0 -5.726,-0.117 -8.523,-0.375 -5.246,-0.468 -10.758,-0.519 -16.133,0 -2.633,0.258 -5.293,0.375 -7.926,0.375 -2.047,0 -3.242,-1.121 -3.242,-3.101 0,-0.82 0.351,-1.516 1.008,-1.977 0.539,-0.371 1.164,-0.652 1.914,-0.801 0.644,-0.132 1.277,-0.222 1.957,-0.25 0.621,-0.039 1.14,-0.07 1.578,-0.07 h 1.352 c 1.445,0 2.496,-0.371 3.21,-1.109 0.793,-0.844 1.336,-1.801 1.688,-2.988 0.344,-1.188 0.551,-2.516 0.57,-3.942 0.043,-1.465 0.074,-2.789 0.074,-3.93 0,-7.031 -0.093,-14.019 -0.261,-20.707 -0.156,-7.007 -0.231,-14 -0.231,-20.769 v -4.563 c 0,-0.754 0,-1.511 0.055,-2.257 0.039,-0.743 0.113,-1.52 0.176,-2.27 0.515,-4.855 1.75,-8.957 3.719,-12.148 1.921,-3.215 4.457,-5.821 7.511,-7.782 3,-1.929 6.496,-3.304 10.364,-4.113 3.816,-0.801 7.921,-1.195 12.132,-1.195 3.52,0 7.22,0.277 10.98,0.808 3.74,0.543 7.4,1.5 10.92,2.817 4.04,1.613 7.23,3.941 9.45,6.929 2.18,2.93 3.84,6.282 4.94,9.914 1.07,3.637 1.71,7.504 1.92,11.489 0.22,3.953 0.32,7.801 0.32,11.375 0,2.238 0,4.484 -0.06,6.691 -0.04,2.211 -0.07,4.418 -0.07,6.664 0,2.465 -0.02,5.348 -0.04,8.645 -0.05,3.273 -0.05,6.449 0,9.472 0.02,3.028 0.17,5.676 0.42,7.895 0.33,2.934 0.83,3.305 0.86,3.328 0.18,0.113 0.69,0.324 2.12,0.508 1.22,0.168 2.52,0.406 3.84,0.699 1.38,0.313 2.61,0.727 3.61,1.234 1.58,0.774 1.91,1.934 1.91,2.782 0,0.808 -0.4,1.902 -2.24,2.558"
         style="fill:#ffffff;fill-opacity:1;fill-rule:nonzero;stroke:none"
         id="path92" /><path
         d="m 1138.84,434.703 c -1.13,0.223 -2.16,0.02 -3.16,-0.773 -0.24,-0.207 -0.61,-0.727 -1.88,-2.934 -0.9,-1.609 -1.94,-3.398 -3.17,-5.394 -1.22,-2.008 -2.54,-3.922 -3.97,-5.735 -1.37,-1.777 -2.69,-3.019 -3.96,-3.754 -0.7,-0.445 -2.05,-1.05 -4.05,-1.742 -1.98,-0.734 -4.26,-1.281 -6.75,-1.629 -2.47,-0.379 -5.03,-0.402 -7.64,-0.07 -2.52,0.301 -4.8,1.207 -6.71,2.656 -0.44,0.391 -0.82,1.16 -1.11,2.274 -0.31,1.238 -0.56,2.664 -0.71,4.222 -0.15,1.531 -0.28,3.215 -0.32,4.985 -0.03,1.765 -0.05,3.394 -0.05,4.867 v 4.676 c 0,7.5 0.05,14.836 0.12,22.027 0.1,7.387 0.14,14.789 0.14,22.062 0,0.625 0,1.391 0.04,2.309 0.05,0.883 0.12,1.766 0.24,2.633 0.11,0.883 0.32,1.691 0.58,2.43 0.25,0.726 0.61,1.269 1.07,1.664 0.7,0.554 1.64,0.886 2.8,0.996 l 3.96,0.379 c 1.35,0.136 2.56,0.339 3.53,0.652 1.27,0.367 1.97,1.301 1.97,2.633 0,0.875 -0.47,1.746 -1.38,2.539 l -0.22,0.183 h -0.27 c -3.47,0 -6.61,-0.07 -9.36,-0.257 -5.39,-0.313 -11.53,-0.395 -17.06,0.207 -2.78,0.281 -5.65,0.418 -8.51,0.418 -0.98,0 -1.96,-0.082 -2.91,-0.262 -0.77,-0.133 -2.05,-0.645 -2.05,-2.711 0,-1.524 0.9,-2.52 2.54,-2.777 1.3,-0.211 2.74,-0.418 4.34,-0.625 1.54,-0.188 3.01,-0.582 4.38,-1.188 1.2,-0.508 1.92,-1.519 2.2,-3.078 0.33,-1.609 0.48,-3.422 0.48,-5.43 v -36.023 c 0,-2.309 0.08,-5.035 0.26,-8.383 0.16,-3.309 0.23,-6.562 0.23,-9.641 0,-3.101 -0.16,-5.961 -0.49,-8.55 -0.3,-2.465 -0.9,-4.141 -1.72,-4.981 -1.06,-0.976 -2.19,-1.539 -3.44,-1.726 -1.36,-0.188 -2.67,-0.325 -3.87,-0.414 -1.36,-0.094 -2.42,-0.286 -3.29,-0.583 -0.81,-0.312 -1.74,-1.031 -1.74,-2.89 0,-0.66 0.21,-1.281 0.65,-1.813 0.46,-0.617 1.09,-0.914 1.82,-0.914 2.68,0 5.1,0.071 7.17,0.258 2,0.168 3.95,0.324 5.8,0.492 1.86,0.164 3.77,0.321 5.8,0.489 1.95,0.164 4.33,0.226 7.03,0.226 5.41,0 11.01,-0.363 16.69,-1.094 5.78,-0.738 11.47,-1.121 16.89,-1.121 1.26,0 1.89,1.59 2.28,2.961 0.45,1.606 1.01,3.727 1.66,6.317 0.65,2.578 1.56,5.511 2.7,8.707 1.14,3.191 2.72,6.425 4.75,9.672 l 0.21,0.32 -0.17,0.371 c -0.44,0.957 -1.25,1.602 -2.37,1.867"
         style="fill:#ffffff;fill-opacity:1;fill-rule:nonzero;stroke:none"
         id="path94" /><path
         d="m 1178.07,467.695 c 0.13,5.114 0.18,10.336 0.18,15.442 0,1.414 0.05,2.676 0.12,3.769 0.09,0.93 0.35,1.703 0.84,2.305 0.47,0.605 1.26,1.074 2.3,1.352 1.2,0.3 2.87,0.468 5.01,0.468 1.24,0 2.33,0.137 3.21,0.395 0.7,0.211 1.87,0.832 1.87,2.844 0,0.332 -0.09,0.734 -0.3,1.253 -0.21,0.532 -0.43,0.883 -0.68,1.114 l -0.21,0.238 h -11.06 c -1.15,0 -2.36,-0.074 -3.64,-0.211 -1.25,-0.109 -2.44,-0.164 -3.51,-0.164 -2.36,0 -4.75,0.117 -7.15,0.348 -2.47,0.257 -4.91,0.382 -7.29,0.382 h -1.38 c -0.66,0 -1.44,-0.05 -2.25,-0.199 -1.17,-0.183 -1.82,-0.976 -1.82,-2.164 0,-1.84 0.88,-2.609 1.63,-2.91 0.84,-0.375 1.91,-0.586 3.14,-0.676 1.12,-0.093 2.31,-0.23 3.53,-0.437 1.06,-0.164 1.97,-0.653 2.72,-1.352 0.27,-0.394 0.67,-1.238 0.94,-3.121 0.27,-1.601 0.38,-3.098 0.38,-4.473 v -2.328 c 0,-2.05 -0.02,-4.129 -0.06,-6.168 -0.05,-2.058 -0.05,-4.168 -0.05,-6.293 l -0.14,-43.222 v -2.578 c 0,-1.52 -0.09,-3.129 -0.31,-4.786 -0.16,-1.484 -0.6,-2.484 -1.3,-3.046 -0.7,-0.657 -1.64,-1.114 -2.74,-1.372 -1.23,-0.281 -2.39,-0.542 -3.48,-0.746 -1.13,-0.211 -2.16,-0.468 -3.03,-0.773 -1.12,-0.395 -1.72,-1.188 -1.72,-2.258 0,-1.277 0.58,-2.215 1.65,-2.609 0.86,-0.324 1.78,-0.489 2.68,-0.489 h 1.73 c 2.49,0 4.77,0.145 6.77,0.45 3.68,0.527 8.62,0.558 13.39,0.074 3.62,-0.399 7.13,-0.563 10.72,-0.223 1.56,0.168 2.46,1.188 2.46,2.797 0,0.625 -0.25,1.77 -1.91,2.219 -0.91,0.258 -1.96,0.48 -3.23,0.691 -1.19,0.211 -2.4,0.453 -3.69,0.68 -1.13,0.23 -2.03,0.637 -2.65,1.187 -0.86,0.766 -1.37,1.879 -1.55,3.36 -0.2,1.601 -0.31,3.066 -0.31,4.348 v 31.457 c 0,5.265 0.06,10.441 0.19,15.425"
         style="fill:#ffffff;fill-opacity:1;fill-rule:nonzero;stroke:none"
         id="path96" /><path
         d="m 1300.99,410.723 c -0.98,0.285 -2.05,0.531 -3.12,0.699 -1.99,0.469 -3.82,1.277 -5.49,2.422 -1.73,1.168 -3.41,2.519 -4.97,4.058 -1.58,1.528 -3.12,3.184 -4.59,4.926 -1.49,1.774 -2.93,3.457 -4.36,5.059 -0.57,0.558 -1.67,1.722 -3.32,3.492 l -5.66,6.105 c -2.14,2.305 -4.4,4.754 -6.79,7.364 -2.39,2.578 -4.57,5 -6.6,7.257 -2.03,2.254 -3.75,4.215 -5.18,5.856 -1.29,1.488 -1.86,2.234 -2.11,2.582 0.25,0.32 0.84,0.977 2.19,2.293 1.52,1.5 3.4,3.269 5.61,5.32 2.21,2.043 4.63,4.231 7.26,6.59 2.54,2.258 5.09,4.438 7.53,6.508 2.37,2.031 4.48,3.758 6.34,5.246 2.23,1.797 3.21,2.43 3.66,2.641 0.96,0.527 2.16,0.902 3.51,1.089 1.41,0.211 2.79,0.395 4.12,0.563 1.35,0.156 2.54,0.418 3.5,0.789 1.18,0.422 1.84,1.324 1.84,2.559 0,1 -0.43,1.769 -1.24,2.261 -0.7,0.371 -1.45,0.582 -2.23,0.582 -2.1,0 -4.18,-0.066 -6.16,-0.175 -4.14,-0.266 -8.7,-0.243 -12.88,0 -3.35,0.175 -6.68,0.214 -10.36,0.129 -1.54,-0.071 -2.63,-0.809 -3.14,-2.161 l -0.07,-1.269 c 0,-0.684 0.32,-1.926 2.38,-2.223 1.19,-0.168 2.49,-0.285 3.86,-0.312 1.35,-0.043 2.59,-0.157 3.69,-0.293 1.06,-0.168 1.06,-0.563 1.06,-0.746 0,-0.055 -0.06,-0.543 -1.49,-2.219 -1.1,-1.332 -2.52,-2.871 -4.21,-4.617 -1.72,-1.735 -3.64,-3.629 -5.73,-5.582 -2.1,-1.957 -4.09,-3.852 -5.99,-5.606 -1.88,-1.769 -3.59,-3.359 -5.1,-4.758 -1.53,-1.39 -2.58,-2.402 -3.19,-2.98 l -1.61,-1.602 c -0.63,-0.625 -1.34,-1.289 -2.14,-1.914 -0.76,-0.625 -1.61,-1.199 -2.49,-1.656 -0.54,-0.297 -1.09,-0.508 -1.65,-0.609 0.15,0.746 0.18,1.027 0.18,1.172 v 6.542 c 0,1.977 -0.03,3.911 -0.07,5.75 -0.02,1.86 -0.05,3.774 -0.05,5.735 v 6.535 c 0,3.406 0.71,4.824 1.31,5.391 0.91,0.886 1.94,1.363 3.14,1.531 1.31,0.141 2.57,0.164 3.8,0.047 1.59,-0.145 2.68,0.265 3.22,1.133 0.22,0.336 0.38,0.773 0.48,1.332 0.07,0.379 0.2,0.699 0.3,0.976 l 0.1,0.324 c 0,0.489 -0.2,1.387 -1.63,1.84 -0.82,0.266 -1.61,0.395 -2.35,0.395 h -1.1 c -1.91,0 -3.79,-0.09 -5.66,-0.285 -1.74,-0.223 -3.58,-0.313 -5.45,-0.313 h -3.81 c -2.11,0 -4.2,0.109 -6.22,0.371 -2.1,0.227 -4.25,0.375 -6.39,0.375 h -1.37 c -0.76,0 -1.6,-0.113 -2.47,-0.351 -1.51,-0.395 -1.75,-1.438 -1.75,-2.032 0,-1.546 0.7,-2.347 1.28,-2.714 0.71,-0.465 1.6,-0.786 2.67,-0.934 0.97,-0.117 2,-0.164 3.09,-0.117 0.93,0.043 1.82,-0.02 2.63,-0.184 1.26,-0.187 2,-0.773 2.29,-1.844 0.34,-1.296 0.52,-2.586 0.52,-3.828 V 470.18 c 0,-8.41 -0.05,-16.629 -0.18,-24.5 -0.11,-8.227 -0.19,-16.465 -0.19,-24.504 0,-0.715 -0.04,-1.528 -0.11,-2.465 -0.1,-0.902 -0.23,-1.785 -0.46,-2.633 -0.24,-0.863 -0.56,-1.629 -0.99,-2.348 -0.36,-0.656 -0.86,-1.101 -1.46,-1.382 -0.59,-0.274 -1.38,-0.438 -2.43,-0.477 -1.18,-0.055 -2.35,-0.129 -3.44,-0.266 -1.17,-0.113 -2.22,-0.394 -3.12,-0.789 -1.09,-0.488 -1.67,-1.445 -1.67,-2.726 0,-1.254 0.73,-2.117 2.04,-2.348 0.98,-0.168 1.89,-0.258 2.65,-0.258 3.52,0 6.92,0.129 10.06,0.371 3.15,0.262 6.51,0.375 9.92,0.375 1.73,0 3.43,-0.113 5.07,-0.3 1.74,-0.207 3.48,-0.325 5.19,-0.325 h 1.6 c 0.94,0 1.84,0.211 2.69,0.645 0.99,0.488 1.52,1.379 1.52,2.594 0,1.39 -0.79,1.933 -1.28,2.109 -0.6,0.238 -1.32,0.375 -2.14,0.426 -0.77,0.043 -1.51,0.043 -2.25,0 h -0.23 c -0.51,0 -0.73,0.098 -0.82,0.152 l -0.23,0.168 -0.29,-0.019 c -1.53,-0.149 -2.72,0.093 -3.53,0.718 -0.87,0.653 -1.52,1.54 -1.92,2.614 -0.41,1.16 -0.69,2.465 -0.81,3.886 -0.14,1.446 -0.18,2.797 -0.18,4.004 0,3.043 0.02,6.051 0.04,9.016 0.04,2.957 0.07,5.957 0.07,9.012 v 5.539 c 0,1.144 0.02,2.238 0.07,3.234 0.05,1.238 0.12,1.801 0.16,2.031 0,0.067 0.02,0.114 0.05,0.164 0.49,-0.164 1.12,-0.281 1.96,-0.355 0.9,-0.488 2.14,-1.445 3.65,-2.836 1.66,-1.539 3.49,-3.352 5.48,-5.402 1.95,-2.043 4.04,-4.301 6.18,-6.703 2.15,-2.383 4.21,-4.739 6.19,-7.032 1.97,-2.289 3.75,-4.41 5.37,-6.293 l 3.7,-4.347 c 0.17,-0.282 0.49,-0.707 0.96,-1.313 0.45,-0.562 0.93,-1.164 1.42,-1.84 0.49,-0.656 0.93,-1.254 1.35,-1.797 0.37,-0.46 0.61,-0.761 0.72,-1 0.3,-0.457 0.38,-0.695 0.4,-0.738 -0.54,-0.215 -1.07,-0.304 -1.63,-0.304 -0.4,0 -1.15,0.027 -2.2,0.066 -1.09,0.023 -2.28,-0.02 -3.46,-0.207 -1.21,-0.164 -2.31,-0.488 -3.24,-0.938 -1.42,-0.664 -1.72,-1.746 -1.72,-2.504 0,-1.332 0.39,-2.179 1.19,-2.5 0.61,-0.25 1.32,-0.371 2.28,-0.371 3.14,0 6.38,0.09 9.55,0.301 5.87,0.391 11.61,0.465 17.16,0 2.53,-0.211 5.17,-0.301 7.84,-0.301 0.54,0 1.19,0.075 2.03,0.184 1.52,0.262 1.87,1.262 1.93,1.895 0.15,2.226 -1.13,2.957 -1.88,3.16"
         style="fill:#ffffff;fill-opacity:1;fill-rule:nonzero;stroke:none"
         id="path98" /><path
         d="m 1353.77,493.273 c 3.07,0 5.97,-0.468 8.66,-1.406 4.47,-1.558 8.43,-4.023 11.74,-7.332 3.35,-3.347 6.14,-7.406 8.31,-12.082 2.19,-4.683 3.78,-9.683 4.75,-14.855 0.81,-4.637 1.19,-9.575 1.1,-14.672 -0.08,-5.09 -0.93,-9.965 -2.54,-14.52 -1.61,-4.515 -4.15,-8.5 -7.6,-11.804 -3.4,-3.305 -8.12,-5.493 -14.05,-6.543 -2.31,-0.414 -4.55,-0.633 -6.62,-0.633 -3.42,0 -6.57,0.594 -9.37,1.707 -4.56,1.84 -8.5,4.605 -11.69,8.191 -3.24,3.629 -5.87,7.871 -7.82,12.629 -2.01,4.797 -3.42,9.641 -4.22,14.414 -0.91,4.641 -1.32,9.508 -1.3,14.488 0.04,4.961 0.86,9.665 2.44,14.02 1.54,4.305 4.07,8.098 7.5,11.293 3.42,3.191 8.21,5.355 14.21,6.48 2.23,0.415 4.43,0.625 6.5,0.625 m 35.84,-7.031 c -4.43,4.113 -9.63,7.352 -15.49,9.637 -5.87,2.301 -12.18,3.441 -18.73,3.441 -6.81,0 -13.2,-1.222 -18.93,-3.699 -5.75,-2.441 -10.78,-5.894 -15,-10.226 -4.21,-4.301 -7.52,-9.493 -9.85,-15.43 -2.33,-5.899 -3.51,-12.395 -3.51,-19.289 0,-6.887 1.16,-13.328 3.44,-19.098 2.29,-5.773 5.52,-10.871 9.59,-15.133 4.11,-4.242 9.07,-7.593 14.78,-9.968 5.7,-2.375 12.01,-3.59 18.74,-3.59 6.82,0 13.3,1.328 19.3,3.961 5.99,2.609 11.28,6.187 15.75,10.636 4.45,4.454 7.98,9.739 10.52,15.676 2.54,5.938 3.83,12.344 3.83,19 0,6.992 -1.31,13.469 -3.9,19.199 -2.58,5.75 -6.13,10.75 -10.54,14.883"
         style="fill:#ffffff;fill-opacity:1;fill-rule:nonzero;stroke:none"
         id="path100" /><path
         d="m 1465.27,493.273 c 3.08,0 5.98,-0.468 8.66,-1.406 4.47,-1.558 8.43,-4.023 11.76,-7.332 3.33,-3.347 6.13,-7.406 8.3,-12.082 2.18,-4.683 3.79,-9.683 4.75,-14.855 0.81,-4.614 1.18,-9.555 1.11,-14.672 -0.09,-5.11 -0.95,-9.965 -2.56,-14.52 -1.61,-4.515 -4.15,-8.5 -7.59,-11.804 -3.4,-3.305 -8.13,-5.493 -14.04,-6.543 -2.33,-0.414 -4.57,-0.633 -6.65,-0.633 -3.42,0 -6.56,0.594 -9.35,1.707 -4.57,1.84 -8.5,4.605 -11.7,8.191 -3.23,3.629 -5.86,7.871 -7.82,12.629 -2,4.77 -3.42,9.621 -4.22,14.414 -0.9,4.641 -1.32,9.508 -1.3,14.488 0.04,4.961 0.86,9.684 2.43,14.02 1.55,4.305 4.09,8.098 7.51,11.293 3.42,3.191 8.2,5.355 14.21,6.48 2.25,0.415 4.42,0.625 6.5,0.625 m 35.84,-7.031 c -4.42,4.113 -9.61,7.352 -15.49,9.637 -5.86,2.301 -12.14,3.441 -18.73,3.441 -6.81,0 -13.17,-1.222 -18.93,-3.699 -5.75,-2.441 -10.77,-5.894 -14.99,-10.226 -4.21,-4.325 -7.52,-9.52 -9.85,-15.43 -2.33,-5.899 -3.51,-12.395 -3.51,-19.289 0,-6.887 1.16,-13.328 3.44,-19.098 2.28,-5.773 5.52,-10.871 9.62,-15.133 4.06,-4.242 9.04,-7.593 14.74,-9.968 5.7,-2.375 12.01,-3.59 18.74,-3.59 6.82,0 13.33,1.328 19.33,3.961 5.97,2.609 11.25,6.187 15.7,10.636 4.48,4.454 8.01,9.739 10.55,15.676 2.53,5.965 3.81,12.344 3.81,19 0,6.992 -1.3,13.445 -3.88,19.199 -2.59,5.75 -6.13,10.75 -10.55,14.883"
         style="fill:#ffffff;fill-opacity:1;fill-rule:nonzero;stroke:none"
         id="path102" /><path
         d="m 1598.26,432.836 c -0.44,0.957 -1.25,1.613 -2.37,1.863 -1.14,0.258 -2.17,0.02 -3.17,-0.769 -0.23,-0.207 -0.6,-0.715 -1.86,-2.934 -0.9,-1.601 -1.96,-3.402 -3.19,-5.41 -1.21,-1.996 -2.54,-3.91 -3.95,-5.719 -1.39,-1.765 -2.71,-3.035 -3.97,-3.754 -0.7,-0.449 -2.04,-1.05 -4.04,-1.75 -1.99,-0.715 -4.28,-1.277 -6.76,-1.629 -2.47,-0.367 -5.04,-0.394 -7.65,-0.062 -2.51,0.301 -4.79,1.207 -6.7,2.648 -0.44,0.399 -0.81,1.168 -1.12,2.293 -0.3,1.227 -0.56,2.641 -0.71,4.207 -0.15,1.543 -0.26,3.215 -0.32,4.989 -0.02,1.765 -0.04,3.394 -0.04,4.863 v 4.68 c 0,7.496 0.04,14.839 0.12,22.039 0.09,7.371 0.14,14.777 0.14,22.05 0,0.629 0,1.391 0.04,2.305 0.05,0.883 0.12,1.766 0.24,2.629 0.12,0.855 0.32,1.695 0.58,2.449 0.26,0.727 0.6,1.254 1.07,1.649 0.7,0.562 1.63,0.882 2.79,1 l 3.96,0.379 c 1.36,0.128 2.56,0.339 3.54,0.652 1.26,0.363 1.96,1.301 1.96,2.633 0,0.883 -0.47,1.742 -1.37,2.535 l -0.22,0.187 h -0.27 c -3.48,0 -6.62,-0.07 -9.36,-0.261 -5.38,-0.297 -11.54,-0.395 -17.06,0.211 -2.79,0.281 -5.65,0.421 -8.52,0.421 -0.96,0 -1.93,-0.101 -2.91,-0.257 -0.77,-0.137 -2.04,-0.653 -2.04,-2.723 0,-1.52 0.9,-2.516 2.53,-2.781 1.31,-0.203 2.74,-0.414 4.35,-0.617 1.55,-0.192 3.01,-0.586 4.38,-1.188 1.19,-0.512 1.92,-1.508 2.2,-3.101 0.32,-1.583 0.49,-3.379 0.49,-5.395 v -36.027 c 0,-2.309 0.09,-5.125 0.25,-8.391 0.16,-3.238 0.23,-6.492 0.23,-9.645 0,-3.078 -0.16,-5.957 -0.48,-8.546 -0.3,-2.465 -0.92,-4.149 -1.73,-4.985 -1.07,-0.976 -2.19,-1.539 -3.45,-1.722 -1.35,-0.192 -2.64,-0.325 -3.86,-0.414 -1.35,-0.098 -2.43,-0.286 -3.31,-0.586 -0.79,-0.305 -1.72,-1.032 -1.72,-2.891 0,-0.645 0.2,-1.281 0.65,-1.809 0.47,-0.605 1.09,-0.918 1.82,-0.918 2.69,0 5.1,0.075 7.17,0.258 2,0.168 3.94,0.336 5.8,0.488 1.86,0.172 3.77,0.325 5.79,0.497 1.96,0.164 4.34,0.238 7.04,0.238 5.4,0 11.02,-0.387 16.7,-1.106 5.77,-0.738 11.46,-1.113 16.88,-1.113 1.29,0 1.89,1.582 2.28,2.953 0.45,1.614 1,3.723 1.66,6.317 0.64,2.586 1.56,5.519 2.7,8.714 1.11,3.161 2.71,6.426 4.74,9.661 l 0.22,0.32 -0.17,0.375"
         style="fill:#ffffff;fill-opacity:1;fill-rule:nonzero;stroke:none"
         id="path104" /><path
         d="m 83.875,142.246 c 0.0625,2.41 0.1016,4.856 0.1016,7.317 0,0.73 0.0078,1.382 0.0547,1.941 0.0195,0.273 0.0898,0.48 0.1835,0.613 0.0352,0.051 0.1915,0.219 0.668,0.371 0.3242,0.102 0.9883,0.239 2.1953,0.239 0.7344,0 1.4063,0.086 2.0157,0.253 1.1484,0.34 1.832,1.317 1.832,2.625 0,0.645 -0.3047,1.27 -0.8672,1.829 l -0.4531,0.468 h -6.2657 c -0.6445,0 -1.3164,-0.039 -2.0039,-0.097 -1.8164,-0.196 -3.4921,-0.102 -4.7734,0.078 -1.0273,0.144 -2.207,0.215 -3.4961,0.215 h -0.7148 c -0.4258,0 -0.8868,-0.039 -1.375,-0.118 -1.1836,-0.175 -1.9571,-1.093 -1.9571,-2.316 0,-1.758 1.1133,-2.422 1.5938,-2.617 0.5703,-0.242 1.2578,-0.391 2.0156,-0.438 0.543,-0.031 1.1289,-0.121 1.7188,-0.214 0.3125,-0.051 0.5703,-0.176 0.6523,-0.239 0.0117,-0.015 0.1484,-0.254 0.2852,-1.101 0.1132,-0.774 0.1757,-1.485 0.1757,-2.137 v -1.23 c 0,-1.055 -0.0117,-2.114 -0.0351,-3.176 -0.0195,-1.082 -0.0274,-2.188 -0.0274,-3.289 l -0.0664,-5.95 c 0,-0.75 -0.0625,-1.535 -0.1562,-2.351 -0.0703,-0.617 -0.2227,-0.781 -0.2774,-0.844 -0.2382,-0.191 -0.5312,-0.34 -0.9179,-0.426 -0.6094,-0.136 -1.1953,-0.265 -1.7657,-0.375 -0.664,-0.125 -1.2382,-0.281 -1.7343,-0.457 -1.0742,-0.359 -1.7188,-1.218 -1.7188,-2.285 0,-1.18 0.625,-2.109 1.6563,-2.488 0.5781,-0.219 1.1836,-0.324 1.8047,-0.324 h 0.8984 c 0.6953,0 1.3008,0.019 1.8164,0.078 0.5117,0.039 0.9805,0.097 1.4258,0.168 0.375,0.058 0.7812,0.097 1.2148,0.144 1.2617,0.117 3.2149,0.059 4.961,-0.125 1.9609,-0.207 3.9648,-0.293 5.8281,-0.097 1.4336,0.144 2.3633,1.179 2.3633,2.644 0,1.113 -0.7188,1.992 -1.875,2.285 -0.5196,0.157 -1.1133,0.274 -1.7891,0.391 -0.625,0.109 -1.25,0.234 -1.9023,0.359 -0.3868,0.063 -0.6641,0.188 -0.8203,0.325 -0.1094,0.097 -0.2618,0.273 -0.3438,0.675 -0.1055,0.543 -0.1914,1.082 -0.2187,1.61 v 0.84 c 0,2.429 0.0273,4.835 0.0937,7.226"
         style="fill:#ffffff;fill-opacity:1;fill-rule:nonzero;stroke:none"
         id="path106" /><path
         d="m 125.414,152.941 c -1.184,1.317 -2.664,2.364 -4.359,3.114 -2.774,1.23 -6.301,1.515 -9.407,0.625 -1.16,-0.34 -2.238,-0.762 -3.23,-1.278 -0.285,-0.148 -0.559,-0.304 -0.84,-0.468 0.676,1.875 1.5,3.671 2.477,5.386 1.722,3.02 3.949,5.727 6.636,8.039 0.622,0.539 1.235,1.036 1.872,1.512 0.625,0.442 1.257,0.883 1.847,1.223 0.156,0.09 0.442,0.207 0.848,0.398 0.469,0.207 0.91,0.41 1.336,0.649 0.504,0.261 0.957,0.554 1.351,0.879 0.719,0.585 1.075,1.226 1.075,1.941 0,0.754 -0.313,1.426 -0.872,1.953 -0.332,0.281 -0.636,0.527 -0.949,0.703 l -0.433,0.246 -0.504,-0.043 c -0.633,-0.054 -1.317,-0.23 -2.102,-0.554 -0.64,-0.262 -1.203,-0.508 -1.703,-0.743 -3.07,-1.425 -5.973,-3.23 -8.621,-5.371 -2.66,-2.16 -5.035,-4.621 -7.043,-7.332 -2.008,-2.734 -3.6055,-5.746 -4.7383,-8.937 -1.1602,-3.223 -1.7383,-6.668 -1.7383,-10.215 0,-1.824 0.1992,-3.652 0.5781,-5.391 0.3985,-1.777 1.0039,-3.457 1.8243,-5.019 0.8203,-1.582 1.8902,-3.02 3.2032,-4.27 1.297,-1.258 2.891,-2.3 4.766,-3.113 2.246,-0.937 4.519,-1.414 6.777,-1.414 2.328,0 4.496,0.484 6.437,1.453 1.907,0.949 3.547,2.258 4.911,3.867 1.339,1.602 2.39,3.449 3.128,5.469 0.762,2.031 1.122,4.18 1.122,6.359 0,2.032 -0.297,3.934 -0.911,5.684 -0.636,1.777 -1.554,3.348 -2.738,4.648 m -9.098,-21.437 c -0.832,-0.598 -1.843,-0.879 -3.113,-0.879 -1.5,0 -2.672,0.363 -3.598,1.055 -0.996,0.769 -1.785,1.758 -2.367,2.929 -0.617,1.289 -1.054,2.696 -1.312,4.18 -0.262,1.563 -0.399,3.066 -0.399,4.465 0,0.75 0.036,1.434 0.094,2.09 l 0.172,1.621 c 0.297,0.34 0.664,0.703 1.066,1.07 0.563,0.531 1.2,1.035 1.871,1.508 0.672,0.437 1.387,0.84 2.133,1.16 1.914,0.813 3.953,0.418 5.317,-0.351 0.925,-0.555 1.652,-1.239 2.222,-2.118 0.618,-0.91 1.071,-1.984 1.375,-3.175 0.313,-1.239 0.457,-2.52 0.457,-3.797 0,-1.203 -0.136,-2.492 -0.414,-3.821 -0.257,-1.269 -0.707,-2.441 -1.297,-3.496 -0.578,-0.984 -1.316,-1.804 -2.207,-2.441"
         style="fill:#ffffff;fill-opacity:1;fill-rule:nonzero;stroke:none"
         id="path108" /><path
         d="m 155.711,137.688 c -1.227,1.16 -2.727,2.039 -4.465,2.605 -0.527,0.176 -1.078,0.312 -1.641,0.41 0.727,0.75 1.446,1.574 2.129,2.442 0.895,1.125 1.676,2.316 2.321,3.527 0.718,1.355 1.082,2.613 1.082,3.797 0,1.574 -0.293,2.949 -0.883,4.074 -0.598,1.102 -1.363,2.027 -2.32,2.742 -0.946,0.711 -1.996,1.223 -3.153,1.524 -2.211,0.593 -4.605,0.664 -7.051,-0.321 -1.152,-0.461 -2.21,-1.047 -3.167,-1.718 -0.985,-0.684 -1.805,-1.438 -2.438,-2.247 -0.777,-1.007 -1.145,-2.003 -1.051,-3.085 0.094,-0.618 0.406,-1.165 0.895,-1.622 0.511,-0.453 1.027,-0.546 1.371,-0.546 0.523,0 1,0.214 1.449,0.652 0.926,1.047 1.789,1.894 2.559,2.519 1.058,0.887 3.316,1.075 4.804,-0.363 0.696,-0.672 1.063,-1.812 1.063,-3.418 0,-0.887 -0.262,-1.785 -0.793,-2.722 -0.606,-1.067 -1.371,-2.071 -2.281,-3.028 -0.93,-0.984 -1.942,-1.863 -3.012,-2.656 -1.082,-0.789 -2.07,-1.434 -2.871,-1.887 l -1.262,-0.594 c -1.516,-0.742 -1.758,-1.835 -1.758,-2.429 0,-1.594 1.032,-2.676 2.551,-2.676 0.582,0 1.168,0.242 2.016,0.828 0.429,0.281 0.754,0.481 1.093,0.637 0.551,0.293 1.063,0.418 1.602,0.418 l 0.305,-0.02 c 0.883,-0.078 1.722,-0.195 2.523,-0.351 0.856,-0.164 1.602,-0.496 2.246,-0.957 0.668,-0.489 1.231,-1.082 1.676,-1.778 0.477,-0.75 0.844,-1.582 1.102,-2.453 0.269,-0.894 0.394,-1.785 0.394,-2.652 0,-1.711 -0.348,-3.266 -1.019,-4.629 -0.715,-1.391 -1.664,-2.656 -2.872,-3.742 -1.222,-1.114 -2.691,-2.09 -4.355,-2.899 -1.664,-0.812 -3.441,-1.496 -5.254,-2.023 -0.582,-0.067 -1.078,-0.379 -1.398,-0.84 -0.262,-0.359 -0.442,-0.809 -0.489,-1.277 -0.074,-0.586 0.071,-1.133 0.403,-1.614 0.242,-0.332 0.793,-0.898 1.843,-0.898 h 0.008 0.02 c 2.414,0.059 4.933,0.605 7.488,1.672 2.516,1.043 4.863,2.469 6.945,4.226 2.106,1.797 3.872,3.887 5.247,6.243 1.414,2.449 2.14,5.066 2.14,7.781 0,1.816 -0.332,3.555 -0.945,5.148 -0.656,1.621 -1.582,3.028 -2.797,4.2"
         style="fill:#ffffff;fill-opacity:1;fill-rule:nonzero;stroke:none"
         id="path110" /><path
         d="m 193.031,138.234 c -0.246,0.543 -0.746,1.27 -1.859,1.707 -1.156,0.461 -2.363,0.098 -3.152,-0.996 l -1.832,-2.636 c -0.446,-0.633 -0.903,-1.289 -1.391,-1.961 -0.488,-0.676 -0.926,-1.289 -1.309,-1.778 -0.011,-0.011 -0.293,-0.254 -1.457,-0.492 -1.144,-0.242 -2.402,-0.387 -3.734,-0.457 -1.188,-0.051 -2.32,-0.051 -3.402,0 0.382,0.402 0.816,0.84 1.257,1.328 0.875,0.938 1.801,1.992 2.746,3.156 0.981,1.161 1.895,2.352 2.758,3.563 0.852,1.223 1.629,2.402 2.266,3.555 0.699,1.222 1.168,2.304 1.406,3.269 1.031,3.696 0.684,6.762 -1.019,9.113 -1.731,2.383 -4.43,3.575 -8.039,3.575 -0.676,0 -1.34,-0.028 -1.997,-0.067 -0.75,-0.058 -1.527,-0.195 -2.308,-0.453 -0.801,-0.269 -1.645,-0.68 -2.496,-1.258 -0.836,-0.566 -1.707,-1.347 -2.621,-2.363 -0.168,-0.168 -0.387,-0.437 -0.68,-0.828 l -0.652,-0.91 c -0.305,-0.418 -0.555,-0.84 -0.75,-1.238 -0.239,-0.547 -0.364,-0.989 -0.364,-1.418 0,-0.801 0.356,-1.504 1.008,-1.985 0.707,-0.508 1.594,-0.586 2.383,-0.191 0.555,0.269 1.008,0.761 1.41,1.48 0.184,0.332 0.449,0.696 0.805,1.117 0.293,0.332 0.715,0.625 1.269,0.887 0.364,0.188 1.082,0.391 2.418,0.391 2.43,0 3.094,-1.004 3.313,-1.348 0.601,-0.918 0.551,-2.305 -0.137,-4.121 -0.461,-1.094 -1.078,-2.352 -1.84,-3.699 -0.812,-1.418 -1.722,-2.883 -2.734,-4.367 -1.031,-1.504 -2.137,-3.028 -3.32,-4.539 -1.184,-1.528 -2.36,-2.942 -3.461,-4.161 -0.657,-0.644 -0.793,-1.332 -0.793,-1.769 0,-0.399 0,-1.61 0.929,-2.332 0.414,-0.344 0.957,-0.528 1.582,-0.598 l 0.454,-0.039 c 0.851,0 1.425,0.567 1.781,0.988 0.984,0 2.082,0.02 3.261,0.047 1.387,0.02 2.622,0.032 3.68,0.032 2.645,-0.09 4.86,-0.278 6.567,-0.54 1.828,-0.273 3.39,-0.476 4.554,-0.554 l 0.274,-0.012 c 0.929,0 1.941,0.645 2.078,2.102 0.039,0.449 0.125,1.113 0.238,1.961 0.125,0.82 0.383,1.882 0.77,3.144 0.355,1.211 1.05,2.637 2.039,4.207 l 0.445,0.727 -0.344,0.761"
         style="fill:#ffffff;fill-opacity:1;fill-rule:nonzero;stroke:none"
         id="path112" /><path
         d="M 6.04297,441.598 133.066,502.086 260.07,441.598 Z"
         style="fill:#ffffff;fill-opacity:1;fill-rule:nonzero;stroke:none"
         id="path114" /><path
         d="M 266.105,417.418 H 0 v 12.105 h 266.105 v -12.105"
         style="fill:#ffffff;fill-opacity:1;fill-rule:nonzero;stroke:none"
         id="path116" /><path
         d="M 72.5938,205.703 H 0 v 36.301 h 72.5938 v -36.301"
         style="fill:#ffffff;fill-opacity:1;fill-rule:nonzero;stroke:none"
         id="path118" /><path
         d="m 266.105,205.703 h -72.57 v 36.301 h 72.57 v -36.301"
         style="fill:#ffffff;fill-opacity:1;fill-rule:nonzero;stroke:none"
         id="path120" /><path
         d="M 120.965,205.703 H 96.7852 v 36.301 h 24.1798 v -36.301"
         style="fill:#ffffff;fill-opacity:1;fill-rule:nonzero;stroke:none"
         id="path122" /><path
         d="m 169.336,205.703 h -24.18 v 36.301 h 24.18 v -36.301"
         style="fill:#ffffff;fill-opacity:1;fill-rule:nonzero;stroke:none"
         id="path124" /><path
         d="M 21.168,405.336 24.1875,254.102 H 0.0078125 L 3.02344,405.336 H 21.168"
         style="fill:#ffffff;fill-opacity:1;fill-rule:nonzero;stroke:none"
         id="path126" /><path
         d="M 69.5703,405.336 72.5898,254.102 H 48.3906 l 3.0117,151.234 h 18.168"
         style="fill:#ffffff;fill-opacity:1;fill-rule:nonzero;stroke:none"
         id="path128" /><path
         d="m 117.945,405.336 3.02,-151.234 H 96.7734 l 3.0235,151.234 h 18.1481"
         style="fill:#ffffff;fill-opacity:1;fill-rule:nonzero;stroke:none"
         id="path130" /><path
         d="m 166.316,405.336 3.016,-151.234 h -24.18 l 3.008,151.234 h 18.156"
         style="fill:#ffffff;fill-opacity:1;fill-rule:nonzero;stroke:none"
         id="path132" /><path
         d="m 214.723,405.336 3.015,-151.234 h -24.203 l 3.047,151.234 h 18.141"
         style="fill:#ffffff;fill-opacity:1;fill-rule:nonzero;stroke:none"
         id="path134" /><path
         d="m 263.098,405.336 3.015,-151.234 h -24.179 l 3.004,151.234 h 18.16"
         style="fill:#ffffff;fill-opacity:1;fill-rule:nonzero;stroke:none"
         id="path136" /><path
         d="M 133.059,532.32 0,468.793 v -15.086 l 133.059,63.5 133.046,-63.5 v 15.086 L 133.059,532.32"
         style="fill:#ffffff;fill-opacity:1;fill-rule:nonzero;stroke:none"
         id="path138" /></g></g></svg>
