<svg xmlns="http://www.w3.org/2000/svg" viewBox="0 0 502.76 495"><defs><style>.cls-1{fill:#fff;}</style></defs><g id="Layer_2" data-name="Layer 2"><g id="Layer_1-2" data-name="Layer 1"><g id="layer1"><g id="text1097"><path id="path3600" class="cls-1" d="M75.93,423.92l5,5.2-3.07,3L64.2,417.94l3.06-3,5,5.2L85.46,407.4l3.64,3.76Z"/><path id="path3602" class="cls-1" d="M66.27,392.34l6.56,8.2,5-1.47,3.35,4.19-23.94,6.26-3.23-4,11.33-22,3.43,4.28Zm-2.07,3.77-4.52,8.21,9-2.61Z"/><path id="path3604" class="cls-1" d="M56.39,369.3l-3,7.07.14.22L56,380.42l5.3-3.39,2.82,4.41-19,12.18-5.27-8.24a12.37,12.37,0,0,1-2-4.92,7.7,7.7,0,0,1,.55-4.42,7.78,7.78,0,0,1,3-3.35,7.64,7.64,0,0,1,4.34-1.32A7.54,7.54,0,0,1,50,372.76l3.39-8.19Zm-12.08,7.85a3.52,3.52,0,0,0-1.79,2.6,5.45,5.45,0,0,0,1.06,3.57l2.3,3.59,6.64-4.24-2.3-3.59a5.38,5.38,0,0,0-2.8-2.46,3.59,3.59,0,0,0-3.11.53Z"/><path id="path3606" class="cls-1" d="M33.37,365.75l3.31,6.44-3.79,1.95-9-17.53,3.79-1.94L31,361.1l16.32-8.38,2.39,4.66Z"/><path id="path3608" class="cls-1" d="M39.68,334.6a10.29,10.29,0,0,1,.27,8c-1,2.32-3.05,4.08-6.13,5.3L22,352.55l-1.92-4.87,11.6-4.57q5.64-2.22,3.8-6.91a4.75,4.75,0,0,0-2.72-2.95,6.88,6.88,0,0,0-4.77.49l-11.6,4.57-1.89-4.81,11.77-4.64c3.09-1.21,5.79-1.31,8.12-.28s4.06,3,5.25,6Z"/><path id="path3610" class="cls-1" d="M29.51,301.66q1.08,4.72-.93,8t-6.87,4.31L9.37,316.74l-1.17-5.1,12.16-2.76q5.91-1.35,4.8-6.26a4.71,4.71,0,0,0-2.25-3.33,6.93,6.93,0,0,0-4.79-.24L6,301.82l-1.15-5L17.17,294c3.23-.73,5.92-.42,8.06.95s3.57,3.59,4.28,6.74ZM5.86,310.35a2.31,2.31,0,0,1-.24,1.72,2.2,2.2,0,0,1-1.43,1,2.07,2.07,0,0,1-1.69-.28,2.22,2.22,0,0,1-1-1.43,2.08,2.08,0,0,1,.28-1.68,2.09,2.09,0,0,1,1.4-1,2.15,2.15,0,0,1,1.72.27,2.18,2.18,0,0,1,1,1.4ZM4.41,304a2.31,2.31,0,0,1-.24,1.72,2.25,2.25,0,0,1-1.44,1,2.15,2.15,0,0,1-1.68-.25,2.17,2.17,0,0,1-1-1.43,2.12,2.12,0,0,1,.27-1.71,2.11,2.11,0,0,1,1.4-1,2.16,2.16,0,0,1,1.71.28,2.21,2.21,0,0,1,1,1.43Z"/><path id="path3612" class="cls-1" d="M3.7,289.5,3,284.31l18.2-2.3-1.42-11.24,4.22-.54,2.08,16.44Z"/><path id="path3614" class="cls-1" d="M1.43,268.66l-.31-5.22,22.56-1.36L24,267.3Z"/><path id="path3616" class="cls-1" d="M14.55,248.36l3.13,3.08,5.71.08-.06,5.19L.72,256.42l.07-5.2,10.56.14L.92,241.21,1,235.4l10,9.5,12.66-9.75-.08,6.1Z"/><path id="path3618" class="cls-1" d="M25.53,222.8a13.4,13.4,0,0,1-2.28,6.13,11.18,11.18,0,0,1-10.83,4.72,11.22,11.22,0,0,1-9.36-7.21,14,14,0,0,1,1.55-12.59,11.35,11.35,0,0,1,10.83-4.75,11.26,11.26,0,0,1,9.36,7.24,13.09,13.09,0,0,1,.73,6.46Zm-4.42-.54a7.26,7.26,0,0,0-.46-3.7,6.54,6.54,0,0,0-2.25-2.82,7.62,7.62,0,0,0-3.6-1.39,7.44,7.44,0,0,0-3.84.48A6.39,6.39,0,0,0,8.12,217a7.45,7.45,0,0,0-.88,7.18A6.57,6.57,0,0,0,9.46,227a7.65,7.65,0,0,0,3.6,1.35,7.6,7.6,0,0,0,3.83-.44,6.78,6.78,0,0,0,2.88-2.21A7.28,7.28,0,0,0,21.11,222.26Z"/><path id="path3620" class="cls-1" d="M30.46,196.07a13.17,13.17,0,0,1-3,5.81,11.39,11.39,0,0,1-5.1,3.3,11.56,11.56,0,0,1-6.21.1A11.23,11.23,0,0,1,7.71,197a13.3,13.3,0,0,1,0-6.54,13.1,13.1,0,0,1,3-5.78,11.36,11.36,0,0,1,11.32-3.43,11.3,11.3,0,0,1,8.43,8.3,13.17,13.17,0,0,1,0,6.51ZM26.13,195a7.25,7.25,0,0,0,0-3.73,6.58,6.58,0,0,0-1.91-3.06,7.44,7.44,0,0,0-3.41-1.81,7.42,7.42,0,0,0-3.86,0,6.35,6.35,0,0,0-3.08,1.83,7.12,7.12,0,0,0-1.77,3.29,7,7,0,0,0,0,3.73A6.67,6.67,0,0,0,14,198.36a7.78,7.78,0,0,0,3.42,1.78,7.77,7.77,0,0,0,3.86,0,7,7,0,0,0,3.12-1.86,7.29,7.29,0,0,0,1.74-3.3Z"/><path id="path3622" class="cls-1" d="M13.17,172.63l1.76-4.92,17.27,6.2L36,163.24l4,1.44-5.6,15.59Z"/><path id="path3624" class="cls-1" d="M20.61,153l2.09-4.79,20.72,9L41.33,162Z"/><path id="path3626" class="cls-1" d="M60.11,126.42l-11.63-7,6.13,11.46-1.21,2-12.74,0L52,139.83,49.49,144,30.13,132.37l2.24-3.71H48.76L41,114.28l2.21-3.68,19.39,11.62Z"/><path id="path3628" class="cls-1" d="M71.21,103.19l-6.45,8.27L67.35,116l-3.3,4.23L52.41,98.41l3.18-4.08,24,5.92-3.37,4.33ZM67.06,102l-9-2.49,4.62,8.15Z"/><path id="path3630" class="cls-1" d="M70.51,83.52l-5,5.26-3.1-2.92L76,71.53l3.1,2.92-5,5.26L87.45,92.3l-3.59,3.8Z"/><path id="path3632" class="cls-1" d="M104.79,70.4l2.78,3.14-13.1,11.6-15-16.92L92.27,56.9,95.06,60l-8.9,7.88,3.25,3.67,7.86-7,2.7,3.05-7.86,7,3.47,3.91Z"/><path id="path3634" class="cls-1" d="M127.63,59l-7.8-11.1,1,13-1.94,1.35-11.65-5.13L114.78,68l-4,2.81L97.82,52.24l3.55-2.47,15,6.67-1.22-16.29,3.53-2.46,13,18.5Z"/><path id="path3636" class="cls-1" d="M147.24,42.3,138,47.19l.49,5.22-4.74,2.5-1.64-24.69,4.57-2.41,19.49,15.28-4.86,2.56Zm-3.31-2.75-7.2-6,.86,9.33Z"/><path id="path3638" class="cls-1" d="M171.09,32l-9.75,3.87-.08,5.24-5,2,1-24.72,4.8-1.91,17.72,17.3-5.1,2Zm-3-3.08-6.52-6.73-.15,9.37Z"/><path id="path3640" class="cls-1" d="M180.49,14.65l-7,2-1.18-4.09,18.92-5.48,1.19,4.1-6.95,2,5.1,17.61-5,1.46Z"/><path id="path3642" class="cls-1" d="M195.51,6.27l5.11-1.12,4.82,22.09-5.11,1.11Z"/><path id="path3644" class="cls-1" d="M217.58,16.11,215,19.67l.81,5.66-5.15.74L207.49,3.69,212.63,3l1.49,10.46,8.42-11.87L228.3.72,220.45,12,232,23l-6,.86Z"/><path id="path3646" class="cls-1" d="M248.07,17.64l-10.49.42L235.77,23l-5.35.21,9.17-23L244.75,0l11,22.18-5.49.22Zm-1.81-3.9-3.92-8.51L239.1,14Z"/><path id="path3648" class="cls-1" d="M256.78,11.42l9.13.36-.16,4-9.13-.36Z"/><path id="path3650" class="cls-1" d="M271.84.7l5.21.47-2,22.51-5.21-.47Z"/><path id="path3652" class="cls-1" d="M304.64,5.3l-3.82,22.28-4.23-.73L287.8,11.42l-2.32,13.52-5.09-.87,3.82-22.28,4.27.73L297.23,18l2.32-13.53Z"/><path id="path3654" class="cls-1" d="M316,12.57l-1.6,5.76,10.08,2.8-1.13,4.05L313.3,22.37l-2.21,7.93-5-1.4,6.07-21.78,16.45,4.59-1.12,4Z"/><path id="path3656" class="cls-1" d="M335.7,38.85a13.26,13.26,0,0,1-5.36-3.75,11.41,11.41,0,0,1-2.58-5.5,11.6,11.6,0,0,1,.74-6.17,11.27,11.27,0,0,1,9.32-7.25,13.4,13.4,0,0,1,6.48.93,13.06,13.06,0,0,1,5.32,3.74,11.52,11.52,0,0,1-7.48,18.92,13,13,0,0,1-6.44-.92Zm1.64-4.14a7.31,7.31,0,0,0,3.69.49,6.7,6.7,0,0,0,3.3-1.48,7.43,7.43,0,0,0,2.24-3.14,7.35,7.35,0,0,0,.51-3.83,6.36,6.36,0,0,0-1.4-3.29,7,7,0,0,0-3-2.2A6.94,6.94,0,0,0,339,20.8a6.56,6.56,0,0,0-3.31,1.43,7.76,7.76,0,0,0-2.22,3.15,7.67,7.67,0,0,0-.53,3.82,6.8,6.8,0,0,0,1.42,3.34A7.33,7.33,0,0,0,337.34,34.71Z"/><path id="path3658" class="cls-1" d="M363.57,51.62l-.89-7.6-.23-.12-4-2.14-3,5.56-4.61-2.46,10.61-20,8.64,4.6a12.4,12.4,0,0,1,4.12,3.33,7.7,7.7,0,0,1,1.69,4.11,7.87,7.87,0,0,1-1,4.41,7.4,7.4,0,0,1-7.45,4.12l1.06,8.79Zm6.68-12.76a3.51,3.51,0,0,0,.28-3.14,5.4,5.4,0,0,0-2.68-2.59l-3.76-2-3.7,7,3.76,2a5.4,5.4,0,0,0,3.65.77A3.56,3.56,0,0,0,370.25,38.86Z"/><path id="path3660" class="cls-1" d="M388.63,67.88l7.74-11.15-11.85,5.36-1.94-1.35.8-12.71-7.59,10.89-4-2.81,12.93-18.54L388.24,40l-1.09,16.37L402,49.65l3.53,2.46L392.66,70.68Z"/><path id="path3662" class="cls-1" d="M411.09,80.5l-7.81-7-4.73,2.27-4-3.58,22.6-10.09L421,65.54l-7.58,23.57-4.09-3.66Zm1.43-4,3.11-8.83-8.45,4Z"/><path id="path3664" class="cls-1" d="M429.08,99.26l-7-7.8-4.94,1.75-3.59-4,23.54-7.64,3.46,3.84-10,22.63L426.82,104Zm1.85-3.89,4-8.45-8.83,3.13Z"/><path id="path3666" class="cls-1" d="M448.57,102l-4.3-5.81,3.42-2.54,11.73,15.82L456,112l-4.31-5.81L437,117.15l-3.12-4.2Z"/><path id="path3668" class="cls-1" d="M461.67,113.18l2.83,4.4-19,12.22-2.83-4.41Z"/><path id="path3670" class="cls-1" d="M460.14,137.3l-4.23-1.15-5,2.72-2.47-4.57,19.86-10.78,2.48,4.57-9.28,5,14.06,3.76L478.3,142,465,138.57l-6.29,14.69-2.91-5.36Z"/><path id="path3672" class="cls-1" d="M469.28,166.45l-4-9.7H460l-2-4.95,24.73.67,2,4.78-17,18-2.1-5.08Zm3.05-3,6.62-6.62h-9.36Z"/><path id="path3674" class="cls-1" d="M489.89,186.17l-1.82-7,4.12-1.07,5,19.06L493,198.24l-1.82-7-17.75,4.62-1.32-5.07Z"/><path id="path3676" class="cls-1" d="M477,215.21q-.76-4.78,1.47-7.88t7.14-3.85l12.5-2,.82,5.17-12.32,1.94q-6,.94-5.21,5.92a4.78,4.78,0,0,0,2,3.48,6.92,6.92,0,0,0,4.76.55l12.32-1.94.8,5.1-12.5,2c-3.28.51-5.94,0-8-1.49s-3.32-3.82-3.82-7Z"/><path id="path3678" class="cls-1" d="M502.05,229.42l.44,10.25a14.08,14.08,0,0,1-1.14,6.55,10.33,10.33,0,0,1-3.74,4.56,12,12,0,0,1-11.87.51,10.5,10.5,0,0,1-4.16-4.22,14.45,14.45,0,0,1-1.67-6.42l-.44-10.26ZM484.19,240.2a7.61,7.61,0,0,0,2.1,5.31,6.72,6.72,0,0,0,5.22,1.81,6.58,6.58,0,0,0,5-2.25,7.49,7.49,0,0,0,1.67-5.47l-.2-4.77-14,.6Z"/><path id="path3680" class="cls-1" d="M483.31,274.79l-4.19-.26,1.08-17.47,22.56,1.41-1.06,17-4.19-.26.74-11.86-4.9-.3-.65,10.47-4.06-.25.65-10.48-5.22-.32Z"/><path id="path3682" class="cls-1" d="M497.54,302.91l-22.29-3.75.71-4.24,15.41-8.83-13.54-2.28.86-5.09L501,282.46l-.72,4.27-15.39,8.81,13.53,2.27Z"/><path id="path3684" class="cls-1" d="M481,322.31l-1.31,4.59-8.82-2.52a13.86,13.86,0,0,1-.88-4.68,16.69,16.69,0,0,1,.63-4.9,13.37,13.37,0,0,1,3.17-5.67,11.42,11.42,0,0,1,5.22-3.11,12.26,12.26,0,0,1,11.58,3.31,11,11,0,0,1,2.78,5.43,13.38,13.38,0,0,1-.3,6.56,14,14,0,0,1-2.44,4.91,10.65,10.65,0,0,1-3.91,3.11l-2.06-4.08a7.76,7.76,0,0,0,4.06-4.91,8,8,0,0,0,.18-4,6.48,6.48,0,0,0-1.73-3.21,8,8,0,0,0-7.23-2.07,6.81,6.81,0,0,0-3.2,1.77,7.86,7.86,0,0,0-1.91,3.42,8.41,8.41,0,0,0-.19,4.18Z"/><path id="path3686" class="cls-1" d="M487.9,336.11,486.08,341l-21.18-7.89,1.82-4.9Z"/><path id="path3688" class="cls-1" d="M459.59,344.76a19,19,0,0,1,2.8-4.44,12.23,12.23,0,0,1,3.38-2.86l2.86,3.24a12.11,12.11,0,0,0-3,2.44,13.16,13.16,0,0,0-2.24,3.38,6.59,6.59,0,0,0-.77,3.27,2.05,2.05,0,0,0,1.18,1.7,1.59,1.59,0,0,0,1.47,0,4.3,4.3,0,0,0,1.46-1.11,27.42,27.42,0,0,0,1.74-2.12,38.5,38.5,0,0,1,2.87-3.35,6.93,6.93,0,0,1,3-1.77,5.4,5.4,0,0,1,3.78.43,6.2,6.2,0,0,1,2.79,2.44,7.08,7.08,0,0,1,1,4,13.33,13.33,0,0,1-1.32,5.18,16.65,16.65,0,0,1-2.22,3.64,12.53,12.53,0,0,1-2.84,2.69l-2.95-3.11a12.66,12.66,0,0,0,4.2-5,6,6,0,0,0,.7-3.26,2.21,2.21,0,0,0-1.28-1.72,1.87,1.87,0,0,0-2.08.37,21,21,0,0,0-2.54,2.93A35.6,35.6,0,0,1,468.7,355a6.85,6.85,0,0,1-2.92,1.76,5.17,5.17,0,0,1-3.76-.39,6.11,6.11,0,0,1-2.78-2.47,7.13,7.13,0,0,1-1-4,13.17,13.17,0,0,1,1.31-5.18Z"/><path id="path3690" class="cls-1" d="M449.27,374.14l-3.65-2.08,8.67-15.2,19.64,11.2-8.47,14.84-3.65-2.09,5.89-10.32-4.26-2.43-5.2,9.12-3.53-2,5.2-9.12-4.55-2.59Z"/><path id="path3692" class="cls-1" d="M461.86,388.39l-3,4.3-15.09-10.43-6.44,9.33-3.51-2.43,9.42-13.62Z"/><path id="path3694" class="cls-1" d="M444.45,405l4.58-5.6,3.3,2.7-12.47,15.25-3.3-2.7,4.58-5.6-14.2-11.62,3.32-4.05Z"/><path id="path3696" class="cls-1" d="M415.09,410a18.94,18.94,0,0,1,4.14-3.23,12.27,12.27,0,0,1,4.15-1.53l1.58,4a12,12,0,0,0-3.63,1.28,13,13,0,0,0-3.26,2.41,6.57,6.57,0,0,0-1.84,2.81,2,2,0,0,0,.53,2,1.62,1.62,0,0,0,1.4.46,4.47,4.47,0,0,0,1.75-.55c.6-.31,1.39-.78,2.36-1.4a35.64,35.64,0,0,1,3.83-2.17,7,7,0,0,1,3.39-.66,5.39,5.39,0,0,1,3.4,1.69,6.24,6.24,0,0,1,1.8,3.25,7.13,7.13,0,0,1-.4,4.07,13.28,13.28,0,0,1-3,4.42A17.68,17.68,0,0,1,428,429.5a12.76,12.76,0,0,1-3.59,1.55l-1.72-3.93a12.66,12.66,0,0,0,5.65-3.24,6,6,0,0,0,1.77-2.84,2.18,2.18,0,0,0-.62-2,1.86,1.86,0,0,0-2.08-.37,20.53,20.53,0,0,0-3.38,1.9,38.55,38.55,0,0,1-3.84,2.17,6.85,6.85,0,0,1-3.34.66,5.16,5.16,0,0,1-3.4-1.65,6.14,6.14,0,0,1-1.78-3.27,7.2,7.2,0,0,1,.45-4.07A13.13,13.13,0,0,1,415.09,410Z"/></g><g id="flowRoot1105"><path id="path867" class="cls-1" d="M208.62,493.86l-.15-22.61L197.7,489.4h-7.37L179.55,472v21.83H164.31V444.24h13.76l16.16,26.44L210,444.24h13.75l.15,49.62Z"/><path id="path869" class="cls-1" d="M231.87,444.24H248.6v49.62H231.87Z"/><path id="path871" class="cls-1" d="M267.43,457.22H252.9v-13h45.79v13H284.16v36.64H267.43Z"/><path id="path873" class="cls-1" d="M321.53,495a53.7,53.7,0,0,1-12-1.35,33.1,33.1,0,0,1-9.57-3.76l5.39-12.19a35.41,35.41,0,0,0,7.94,3.33,31.61,31.61,0,0,0,8.43,1.21,13.92,13.92,0,0,0,5-.64,2.22,2.22,0,0,0,1.48-2.06q0-1.56-2-2.34a41.14,41.14,0,0,0-6.38-1.7,76.15,76.15,0,0,1-9.57-2.55,16.81,16.81,0,0,1-6.66-4.53,12.46,12.46,0,0,1-2.84-8.58,14.72,14.72,0,0,1,2.63-8.51,17.25,17.25,0,0,1,7.79-6,32.73,32.73,0,0,1,12.69-2.2,44.42,44.42,0,0,1,10,1.13,30.84,30.84,0,0,1,8.72,3.19l-5,12.12a30.84,30.84,0,0,0-13.82-3.68q-6.45,0-6.45,3.12c0,1,.64,1.75,1.91,2.27a45.52,45.52,0,0,0,6.31,1.56A60.25,60.25,0,0,1,335,465.3a16,16,0,0,1,6.73,4.46q2.91,3.12,2.91,8.51a14.68,14.68,0,0,1-2.62,8.5,17.92,17.92,0,0,1-7.87,6,32.37,32.37,0,0,1-12.62,2.2Z"/></g><path id="path2577-2-3" class="cls-1" d="M224.57,90.38h0c-16,0-37,9.09-56.12,24.33a32.27,32.27,0,0,0-17.25,41.62,43.17,43.17,0,0,0-34.88,42.3,42.58,42.58,0,0,0,2,12.79,43,43,0,0,0-5.2,55.06,42.62,42.62,0,0,0-7.61,24.45,43.15,43.15,0,0,0,22.06,37.6,49.61,49.61,0,0,0-.35,5.84A48.57,48.57,0,0,0,161,380.56a48.5,48.5,0,0,0,85.32-2.87,38,38,0,0,0,4.93-16.81h6V385.4H267.4V360.88h13.17V385.4h10.17V360.88h13.17V385.4h10.18V360.88h13.17V385.4h10.18V360.82a37.47,37.47,0,0,0,35.34-37.38v-.81H397.3V312.45H372.78V299.28H397.3V289.1H372.78V275.93H397.3V265.76H372.78V252.59H397.3V242.41H372.78V229.24H397.3V219.06H372.78V205.89H397.3V195.71H372.78V182.55H397.3V172.37H372.78v-.81a37.48,37.48,0,0,0-35.34-37.39V109.6H327.26v24.51H314.09V109.6H303.91v24.51H290.75V109.6H280.57v24.51H267.4V109.6H257.22v24.51h-5.84v-17c0-7-2.55-13.11-5.09-15.65A26.78,26.78,0,0,0,224.57,90.38Zm0,10.18a16.65,16.65,0,0,1,16.63,16.63v65.87s-6-5.81-16.63-5.81a5.09,5.09,0,1,0,0,10.18c6.13,0,16.63,3.44,16.63,16.63V326.41a48.48,48.48,0,0,0-25.74-17.14,5.09,5.09,0,0,0-2.65,9.83,38.32,38.32,0,1,1-43.89,54.8,5.1,5.1,0,0,0-3.19-2.55,38.3,38.3,0,0,1-27.59-44.68,5.1,5.1,0,0,0-2.92-5.67,33,33,0,0,1-19.57-30.07,32.6,32.6,0,0,1,4.45-16.54,42.9,42.9,0,0,0,28.46,10.77,5.09,5.09,0,1,0,0-10.18,32.91,32.91,0,0,1-21.09-58.17,5.09,5.09,0,0,0,1.46-5.82,32.91,32.91,0,1,1,63.41-12.36,5.09,5.09,0,0,0,10.18,0,43.14,43.14,0,0,0-40.33-43,22.06,22.06,0,0,1,10.25-31.57,26.82,26.82,0,0,1,8.7-1.79A21.91,21.91,0,0,1,201,134.72a5.09,5.09,0,0,0,9.16-4.45A32.49,32.49,0,0,0,188.58,113c13-7.93,25.78-12.43,36-12.43Zm26.81,43.73h84a27.11,27.11,0,0,1,27.27,27.27V323.44a27.1,27.1,0,0,1-27.27,27.26h-84V307.94h54.41l15.41-15.42A15.26,15.26,0,0,0,338.57,268h0a15.22,15.22,0,0,0-10.79-4.44h0A15.22,15.22,0,0,0,314,285.33l-12.44,12.43H279.5v-24l12.43-12.43a15.27,15.27,0,1,0-7.19-7.2l-15.42,15.42v28.25H251.38V197.24h50.19L314,209.67a15.22,15.22,0,0,0,13.77,21.81h0A15.22,15.22,0,0,0,338.57,227h0a15.26,15.26,0,0,0-17.37-24.57l-15.41-15.41H251.38V144.29Zm-92,49.25a5.09,5.09,0,0,0-5.09,5.09,43.14,43.14,0,0,0,37.49,42.72,22.09,22.09,0,0,1-21.54,17.35,5.09,5.09,0,0,0,0,10.18,32.28,32.28,0,0,0,31.87-27.41,42.71,42.71,0,0,0,26.06-12.68,5.09,5.09,0,1,0-7.27-7.12,32.92,32.92,0,0,1-56.43-23A5.09,5.09,0,0,0,159.42,193.54Zm168.36,17.58a5.12,5.12,0,0,1,0,10.24h0a5.12,5.12,0,0,1,0-10.24ZM298.5,242.4a5.07,5.07,0,0,1,3.6,1.52,5,5,0,1,1-3.6-1.52Zm29.28,31.23h0a5.13,5.13,0,1,1-3.6,1.53,5,5,0,0,1,3.6-1.53Zm-119.5,6.78a43.15,43.15,0,0,0-43.09,43.1c0,.25,0,.49,0,.74a42.4,42.4,0,0,0-5.78-.4,5.09,5.09,0,0,0,0,10.18A33,33,0,0,1,192.34,367a5.09,5.09,0,1,0,10.18,0,43.17,43.17,0,0,0-27-40,33.65,33.65,0,0,1-.18-3.48,33,33,0,0,1,32.91-32.92,5.09,5.09,0,1,0,0-10.18Z"/></g></g></g></svg>