<?xml version="1.0" encoding="UTF-8" standalone="no"?>
<!-- Created with Inkscape (http://www.inkscape.org/) -->

<svg
   xmlns:dc="http://purl.org/dc/elements/1.1/"
   xmlns:cc="http://creativecommons.org/ns#"
   xmlns:rdf="http://www.w3.org/1999/02/22-rdf-syntax-ns#"
   xmlns:svg="http://www.w3.org/2000/svg"
   xmlns="http://www.w3.org/2000/svg"
   xmlns:sodipodi="http://sodipodi.sourceforge.net/DTD/sodipodi-0.dtd"
   xmlns:inkscape="http://www.inkscape.org/namespaces/inkscape"
   width="2000"
   height="800"
   viewBox="0 0 2000 800"
   version="1.1"
   id="svg8"
   inkscape:version="0.92.4 (5da689c313, 2019-01-14)"
   sodipodi:docname="logo_tekstiga_valge.svg"
   inkscape:export-filename="/home/andri/Pictures/Inkscape mess/MITS/official/800px_valge.png"
   inkscape:export-xdpi="96"
   inkscape:export-ydpi="96">
  <defs
     id="defs2" />
  <sodipodi:namedview
     id="base"
     pagecolor="#ffffff"
     bordercolor="#666666"
     borderopacity="1.0"
     inkscape:pageopacity="0.0"
     inkscape:pageshadow="2"
     inkscape:zoom="0.24748737"
     inkscape:cx="104.33405"
     inkscape:cy="712.37631"
     inkscape:document-units="px"
     inkscape:current-layer="flowRoot2574"
     showgrid="false"
     units="px"
     inkscape:pagecheckerboard="false"
     showborder="true"
     borderlayer="false"
     inkscape:window-width="1920"
     inkscape:window-height="1053"
     inkscape:window-x="0"
     inkscape:window-y="27"
     inkscape:window-maximized="1" />
  <metadata
     id="metadata5">
    <rdf:RDF>
      <cc:Work
         rdf:about="">
        <dc:format>image/svg+xml</dc:format>
        <dc:type
           rdf:resource="http://purl.org/dc/dcmitype/StillImage" />
        <dc:title />
      </cc:Work>
    </rdf:RDF>
  </metadata>
  <g
     inkscape:label="Layer 1"
     inkscape:groupmode="layer"
     id="layer1"
     transform="translate(0,32.3)">
    <path
       inkscape:connector-curvature="0"
       id="path2577-2"
       style="opacity:1;fill:#ffffff;fill-opacity:1;stroke:none;stroke-width:7.44470978;stroke-miterlimit:4;stroke-dasharray:none;stroke-opacity:1"
       d="m 594.49095,326.91314 c -9.97585,10e-4 -19.95151,-3.76491 -27.48754,-11.30144 -11.86586,-11.86576 -14.38394,-29.77987 -7.56628,-44.21923 l -31.65239,-31.65232 -61.08446,0.002 h -66.70032 v -25.91737 h 66.70032 71.82005 l 2.47853,2.48148 36.76333,36.76032 c 14.43903,-6.81799 32.34994,-4.29706 44.21631,7.56921 15.07222,15.07232 15.07222,39.89698 0,54.96931 v 0.002 c -7.53622,7.53619 -17.51205,11.30345 -27.48755,11.30438 z m 0,-25.752 c 3.28884,-4.2e-4 6.57797,-1.29317 9.16239,-3.87737 5.16891,-5.16877 5.16891,-13.15332 0,-18.3222 -5.16886,-5.16879 -13.15618,-5.17197 -18.32505,-0.002 -5.1687,5.16879 -5.1687,13.15911 0,18.32791 2.58445,2.58444 5.87371,3.87502 9.16266,3.87459 z m -47.03281,39.11278 c -15.07223,-15.07232 -39.90264,-15.07232 -54.97507,0 -11.86619,11.86627 -14.38254,29.77819 -7.56439,44.21735 l -36.76363,36.76358 -2.47908,2.47902 v 71.81976 h 25.91546 v -61.08658 l 31.65147,-31.65149 c 14.43925,6.81726 32.35165,4.3011 44.21735,-7.5645 15.07223,-15.07232 15.07023,-39.9048 -0.002,-54.97712 z m -18.32436,18.32431 c 5.16886,5.16886 5.16886,13.15761 0,18.3264 -5.1687,5.1688 -13.15745,5.1688 -18.32631,0 -5.16886,-5.16879 -5.16886,-13.15754 0,-18.3264 5.16886,-5.1687 13.15761,-5.1687 18.32631,0 z m 65.35719,49.89054 c -9.97585,-9.3e-4 -19.95151,3.76509 -27.48754,11.30152 -11.86586,11.8657 -14.38394,29.77988 -7.56628,44.21926 l -31.65239,31.65232 -61.08446,-0.002 h -66.70032 v 25.91748 h 66.70032 71.82003 l 2.47853,-2.4814 36.76333,-36.76038 c 14.43903,6.81808 32.34994,4.29713 44.21631,-7.56912 15.07222,-15.07234 15.07222,-39.89709 0,-54.9694 v -0.002 c -7.53622,-7.53621 -17.51205,-11.30345 -27.48755,-11.30447 z m 0,25.752 c 3.28884,4.8e-4 6.57797,1.29326 9.16239,3.87744 5.16889,5.16879 5.16889,13.15334 0,18.32222 -5.16886,5.16879 -13.15618,5.17206 -18.32504,0.002 -5.16871,-5.16879 -5.16871,-13.15912 0,-18.32791 2.58444,-2.58444 5.8737,-3.87502 9.16265,-3.8746 z m 24.60042,284.53973 h -25.91544 v -62.41077 h 25.91544 z M 440.77524,79.03085 h -25.9153 V 16.6201 h 25.91528 z M 559.65259,718.7805 h -25.9153 v -62.41077 h 25.91528 z m -59.43893,0 H 474.2984 v -62.41077 h 25.91526 z m -59.4386,0 h -25.91528 v -62.41077 h 25.91528 z M 619.09154,79.03087 H 593.17629 V 16.6201 h 25.91525 z m -59.43882,0 H 533.73747 V 16.6201 h 25.91525 z m -59.4387,0 H 474.29856 V 16.6201 h 25.91546 z m 271.27872,454.02831 v 25.91524 h -62.41075 v -25.91524 z m 0,-59.43888 v 25.91537 h -62.41075 v -25.91539 z m 0,-59.4388 v 25.91537 H 709.08199 V 414.1815 Z m 0,-237.75534 v 25.91528 h -62.41075 v -25.91528 z m 0,59.43879 v 25.91535 h -62.41075 v -25.91535 z m 0,59.4388 v 25.91544 h -62.41075 v -25.91544 z m 0,59.43889 v 25.91534 H 709.08199 V 354.74261 Z M 399.99996,79.03085 v 25.91452 h 213.74757 c 38.68224,0 69.41967,30.7375 69.41967,69.41983 v 386.67462 c 0,38.68215 -30.73743,69.41689 -69.41967,69.41689 H 392.57012 v 25.91444 h 221.17741 c 52.59105,0 95.33426,-42.74028 95.33426,-95.33131 V 174.3652 c 0,-52.59114 -42.74321,-95.33435 -95.33426,-95.33435 z m -68.2527,-111.32987 c -40.8846,0 -94.16729,23.12226 -142.88439,61.9231 -29.24046,12.56843 -49.77359,41.64918 -49.77359,75.44096 0,10.58839 2.003,20.90815 5.86477,30.5341 -50.52623,9.79703 -88.80127,54.34762 -88.80127,107.69356 0,11.08939 1.66869,22.0064 4.96879,32.56194 -20.82926,20.56153 -32.61431,48.51983 -32.61431,78.02313 0,23.06348 7.16808,44.4765 19.37368,62.15937 -12.68427,18.33616 -19.37368,39.72607 -19.37368,62.247 0,39.89286 21.7493,76.44371 56.18391,95.71633 -0.59282,4.92782 -0.89289,9.89992 -0.89289,14.86587 0,53.81243 35.10058,101.38788 86.02937,117.60213 22.15299,37.91273 62.5077,61.23164 106.6286,61.23164 48.37148,0 90.31274,-27.95957 110.58221,-68.55223 10.30968,-17.85707 12.96047,-35.74654 12.96047,-54.87676 v -0.11422 -14.31154 l 3.6e-4,-428.01992 v -53.47925 c -10e-4,8.4e-4 -10e-4,0.002 0,0.002 V 35.94903 35.83481 c 0,-17.71747 -6.4997,-33.36629 -12.96047,-39.82709 -12.41155,-17.13338 -32.56486,-28.30783 -55.29154,-28.30783 z m 0,25.91828 c 23.34184,0 42.33346,18.98706 42.33346,42.33048 l -1.8e-4,167.69098 c 0,0 -15.40716,-14.77542 -42.33328,-14.77542 -7.15673,0 -12.96045,5.80208 -12.96045,12.96058 0,7.1585 5.80372,12.95763 12.96045,12.95763 15.58773,0 42.33346,8.74817 42.33346,42.33344 v 311.49728 c -16.11225,-20.78789 -38.82729,-36.47585 -65.54692,-43.65499 -6.90973,-1.85064 -14.02074,2.23846 -15.87832,9.14988 -1.85742,6.91325 2.24153,14.02262 9.15299,15.87836 42.55208,11.43323 72.27225,50.15603 72.27225,94.16984 0,53.82983 -43.79473,97.62449 -97.62447,97.62449 -36.33515,0 -69.44463,-20.03171 -86.40867,-52.27701 -1.68124,-3.19488 -4.61749,-5.54499 -8.10253,-6.48324 -42.52784,-11.44532 -72.22858,-50.16216 -72.22858,-94.15522 0,-6.58317 0.66445,-13.17718 1.9724,-19.60144 1.21289,-5.95586 -1.87924,-11.95732 -7.43428,-14.42821 -30.2705,-13.45654 -49.82912,-43.5055 -49.82912,-76.55255 0,-15.03067 3.89684,-29.39764 11.33545,-42.12329 19.34498,17.05572 44.70835,27.43539 72.46474,27.43539 7.15688,0 12.96063,-5.79906 12.96063,-12.95765 0,-7.15857 -5.80375,-12.96056 -12.96063,-12.96056 -46.20812,0 -83.80019,-37.59207 -83.80019,-83.80026 0,-24.8743 10.97603,-48.31783 30.11392,-64.3127 4.31964,-3.6112 5.81337,-9.59981 3.69677,-14.81623 -4.09157,-10.08377 -6.16519,-20.66735 -6.16519,-31.45614 0,-46.2081 37.59205,-83.80026 83.80017,-83.80026 46.2083,0 83.80326,37.59216 83.80326,83.80026 0,7.1585 5.80083,12.96058 12.95774,12.96058 7.15672,0 12.96045,-5.80208 12.96045,-12.96058 0,-58.12864 -45.44708,-105.81832 -102.67215,-109.46758 -5.18708,-8.67039 -7.91279,-18.5294 -7.91279,-28.76008 0,-23.09977 14.02281,-42.97973 34.00027,-51.59141 0.77236,-0.22929 1.53036,-0.52998 2.26131,-0.91026 6.18911,-2.3534 12.89001,-3.65304 19.89309,-3.65304 21.69669,0 41.06851,12.13149 50.55272,31.66325 3.12737,6.43979 10.88047,9.1251 17.31671,5.99599 6.43797,-3.12575 9.12328,-10.87881 5.99588,-17.31676 C 284.20096,46.95815 263.71045,30.9323 240.11301,25.25622 273.18779,5.07482 305.75,-6.38074 331.74726,-6.38074 Z M 165.87114,230.33507 c -7.15673,0 -12.95756,5.79913 -12.95756,12.95763 0,55.66305 41.67519,101.74577 95.45664,108.76443 -5.51361,25.21464 -28.00934,44.15408 -54.85342,44.15408 -7.15686,0 -12.9577,5.79913 -12.9577,12.95763 0,7.1585 5.80082,12.95763 12.9577,12.95763 41.07813,0 75.20009,-30.33521 81.15097,-69.7805 25.15061,-2.71966 48.37025,-13.92545 66.34334,-32.27016 5.00904,-5.11277 4.92309,-13.31894 -0.18955,-18.32622 -5.11111,-5.00569 -13.3173,-4.92606 -18.32631,0.18733 -15.89465,16.22465 -37.15394,25.15962 -59.86311,25.15962 -46.20833,0 -83.80035,-37.59492 -83.80035,-83.80313 0,-7.15857 -5.80377,-12.95772 -12.96065,-12.95772 z m 124.4065,221.16719 c -60.49942,0 -109.71854,49.21914 -109.71854,109.71847 0,0.62571 0.0227,1.25177 0.0327,1.87902 -4.81893,-0.64924 -9.72637,-1.01536 -14.71989,-1.01536 -7.15691,0 -12.95774,5.80206 -12.95774,12.96057 0,7.1585 5.80083,12.95763 12.95774,12.95763 46.2081,0 83.80308,37.59209 83.80308,83.80025 0,7.1586 5.80083,12.96059 12.95774,12.96059 7.1567,0 12.96043,-5.80199 12.96043,-12.96059 0,-45.98008 -28.44573,-85.41847 -68.65126,-101.71226 -0.30764,-2.93559 -0.46386,-5.90654 -0.46386,-8.86985 0,-46.20819 37.59202,-83.80026 83.80016,-83.80026 7.15673,0 12.96066,-5.80199 12.96066,-12.96058 0,-7.15848 -5.80393,-12.95763 -12.96066,-12.95763 z"
       sodipodi:nodetypes="ccccccccccccccccsccccsccccccccccccccsccccccccccccccccccccccccccccccccccccccccccccccccccccccccccccccccccccccccccccccccccccccccccccccccccccccssssccsssscccscscscscscscsccccccscccsccssssccccssccsccscsssscsssssscsccsccccscscsssccccssccsscsssssscsssss" />
    <g
       aria-label="MITS"
       transform="matrix(10.989011,0,0,10.989011,-7608.7054,-2829.3088)"
       style="font-style:normal;font-weight:normal;font-size:40px;line-height:1.25;font-family:sans-serif;letter-spacing:0px;word-spacing:0px;fill:#ffffff;fill-opacity:1;stroke:none"
       id="flowRoot2574">
      <path
         d="m 799.57219,304.9278 -0.08,-14.84 -7.2,12.08 h -3.52 l -7.16,-11.68 v 14.44 h -7.32 v -28 h 6.52 l 9.84,16.16 9.6,-16.16 h 6.52 l 0.08,28 z"
         style="font-style:normal;font-variant:normal;font-weight:800;font-stretch:normal;font-family:Montserrat;-inkscape-font-specification:'Montserrat Ultra-Bold';fill:#ffffff;fill-opacity:1"
         id="path817" />
      <path
         d="m 812.41719,276.9278 h 7.92 v 28 h -7.92 z"
         style="font-style:normal;font-variant:normal;font-weight:800;font-stretch:normal;font-family:Montserrat;-inkscape-font-specification:'Montserrat Ultra-Bold';fill:#ffffff;fill-opacity:1"
         id="path819" />
      <path
         d="m 831.97094,283.2078 h -8.6 v -6.28 h 25.08 v 6.28 h -8.56 v 21.72 h -7.92 z"
         style="font-style:normal;font-variant:normal;font-weight:800;font-stretch:normal;font-family:Montserrat;-inkscape-font-specification:'Montserrat Ultra-Bold';fill:#ffffff;fill-opacity:1"
         id="path821" />
      <path
         d="m 861.16344,305.4878 q -3.4,0 -6.6,-0.84 -3.2,-0.84 -5.2,-2.24 l 2.6,-5.84 q 1.88,1.24 4.36,2 2.48,0.76 4.88,0.76 4.56,0 4.56,-2.28 0,-1.2 -1.32,-1.76 -1.28,-0.6 -4.16,-1.24 -3.16,-0.68 -5.28,-1.44 -2.12,-0.8 -3.64,-2.52 -1.52,-1.72 -1.52,-4.64 0,-2.56 1.4,-4.6 1.4,-2.08 4.16,-3.28 2.8,-1.2 6.84,-1.2 2.76,0 5.44,0.64 2.68,0.6 4.72,1.8 l -2.44,5.88 q -4,-2.16 -7.76,-2.16 -2.36,0 -3.44,0.72 -1.08,0.68 -1.08,1.8 0,1.12 1.28,1.68 1.28,0.56 4.12,1.16 3.2,0.68 5.28,1.48 2.12,0.76 3.64,2.48 1.56,1.68 1.56,4.6 0,2.52 -1.4,4.56 -1.4,2.04 -4.2,3.28 -2.8,1.2 -6.8,1.2 z"
         style="font-style:normal;font-variant:normal;font-weight:800;font-stretch:normal;font-family:Montserrat;-inkscape-font-specification:'Montserrat Ultra-Bold';fill:#ffffff;fill-opacity:1"
         id="path823" />
    </g>
  </g>
</svg>
